<?xml version="1.0" standalone="no"?>
 <!DOCTYPE svg PUBLIC "-//W3C//DTD SVG 1.1//EN" 
 "http://www.w3.org/Graphics/SVG/1.1/DTD/svg11.dtd"> 
<svg xmlns="http://www.w3.org/2000/svg" version="1.1" 
    width="29.7002cm" height="21.0007cm" viewBox="0 0 116930 82680 ">
<title>SVG Picture created as HotWireRev2-F.Mask.svg date 2016/04/10 19:44:42 </title>
  <desc>Picture generated by PCBNEW </desc>
<g style="fill:#000000; fill-opacity:1;stroke:#000000; stroke-opacity:1;
stroke-linecap:round; stroke-linejoin:round; "
 transform="translate(0 0) scale(1 1)">
</g>
<g style="fill:#000000; fill-opacity:0.0; 
stroke:#000000; stroke-width:-0.000393701; stroke-opacity:1; 
stroke-linecap:round; stroke-linejoin:round;">
</g>
<g style="fill:#000000; fill-opacity:0.0; 
stroke:#000000; stroke-width:78.7402; stroke-opacity:1; 
stroke-linecap:round; stroke-linejoin:round;">
<circle cx="39680" cy="51100" r="950.329" /> 
<circle cx="69530" cy="17100" r="952.956" /> 
<circle cx="39455" cy="16900" r="950.329" /> 
</g>
<g style="fill:#000000; fill-opacity:0.0; 
stroke:#000000; stroke-width:393.701; stroke-opacity:1; 
stroke-linecap:round; stroke-linejoin:round;">
<path d="M56480 27675
L56480 28025
" />
<path d="M56755 27350
L56480 27675
" />
<path d="M58780 27375
L59280 27400
" />
<path d="M57755 27375
L57755 27900
" />
<path d="M54005 25475
L54055 25975
" />
<path d="M54080 25450
L53480 25450
" />
<path d="M54355 24425
L54530 24625
" />
<path d="M52655 24875
L53105 25350
" />
<path d="M52280 23875
L52030 23600
" />
<path d="M52630 22850
L53155 22850
" />
<path d="M48155 22525
L48155 21575
" />
<path d="M46155 22550
L46155 23500
" />
<path d="M47155 22550
L47155 23450
" />
<path d="M56405 17200
L55855 17725
" />
<path d="M56305 18700
L55855 18700
" />
<path d="M55855 19700
L55405 19700
" />
<path d="M47955 30175
L47505 30175
" />
<path d="M46505 30175
L46055 30175
" />
<path d="M46505 31175
L46055 31175
" />
<path d="M47980 31175
L47530 31175
" />
<path d="M47955 32175
L47505 32175
" />
<path d="M46505 32150
L46055 32150
" />
<path d="M46505 33175
L46055 33175
" />
<path d="M47955 33175
L47505 33175
" />
<path d="M47955 34175
L47505 34175
" />
<path d="M47930 35175
L47480 35175
" />
<path d="M46555 35175
L46105 35175
" />
<path d="M46505 34175
L46055 34175
" />
</g>
<g style="fill:#000000; fill-opacity:0.0; 
stroke:#000000; stroke-width:78.7402; stroke-opacity:1; 
stroke-linecap:round; stroke-linejoin:round;">
<circle cx="69530" cy="17100" r="1444.39" /> 
<circle cx="39455" cy="16900" r="1457.74" /> 
<circle cx="39680" cy="51100" r="1421.49" /> 
<circle cx="69530" cy="17100" r="760.345" /> 
</g>
<g style="fill:#000000; fill-opacity:0.0; 
stroke:#000000; stroke-width:0; stroke-opacity:1; 
stroke-linecap:round; stroke-linejoin:round;">
</g>
<g style="fill:#000000; fill-opacity:1.0; 
stroke:#000000; stroke-width:0; stroke-opacity:1; 
stroke-linecap:round; stroke-linejoin:round;">
<polyline style="fill-rule:evenodd;"
points="59320,43881
59320,44668
60265,44668
60265,43881
59320,43881
" /> 
<polyline style="fill-rule:evenodd;"
points="60894,43881
60894,44668
61839,44668
61839,43881
60894,43881
" /> 
<polyline style="fill-rule:evenodd;"
points="59420,50106
59420,50893
60365,50893
60365,50106
59420,50106
" /> 
<polyline style="fill-rule:evenodd;"
points="60994,50106
60994,50893
61939,50893
61939,50106
60994,50106
" /> 
<polyline style="fill-rule:evenodd;"
points="59570,35981
59570,36768
60515,36768
60515,35981
59570,35981
" /> 
<polyline style="fill-rule:evenodd;"
points="61144,35981
61144,36768
62089,36768
62089,35981
61144,35981
" /> 
<polyline style="fill-rule:evenodd;"
points="59820,28631
59820,29418
60765,29418
60765,28631
59820,28631
" /> 
<polyline style="fill-rule:evenodd;"
points="61394,28631
61394,29418
62339,29418
62339,28631
61394,28631
" /> 
<polyline style="fill-rule:evenodd;"
points="54936,28084
55723,28084
55723,27139
54936,27139
54936,28084
" /> 
<polyline style="fill-rule:evenodd;"
points="54936,26510
55723,26510
55723,25565
54936,25565
54936,26510
" /> 
<polyline style="fill-rule:evenodd;"
points="54114,28468
54114,27681
53169,27681
53169,28468
54114,28468
" /> 
<polyline style="fill-rule:evenodd;"
points="52540,28468
52540,27681
51595,27681
51595,28468
52540,28468
" /> 
<polyline style="fill-rule:evenodd;"
points="46486,20559
47273,20559
47273,19614
46486,19614
46486,20559
" /> 
<polyline style="fill-rule:evenodd;"
points="46486,18985
47273,18985
47273,18040
46486,18040
46486,18985
" /> 
<polyline style="fill-rule:evenodd;"
points="54564,29418
54564,28631
53619,28631
53619,29418
54564,29418
" /> 
<polyline style="fill-rule:evenodd;"
points="52990,29418
52990,28631
52045,28631
52045,29418
52990,29418
" /> 
<polyline style="fill-rule:evenodd;"
points="46275,19888
45134,19888
45134,21049
46275,21049
46275,19888
" /> 
<polyline style="fill-rule:evenodd;"
points="46275,17900
45134,17900
45134,19061
46275,19061
46275,17900
" /> 
<polyline style="fill-rule:evenodd;"
points="53689,27468
53689,26681
52744,26681
52744,27468
53689,27468
" /> 
<polyline style="fill-rule:evenodd;"
points="52115,27468
52115,26681
51170,26681
51170,27468
52115,27468
" /> 
<polyline style="fill-rule:evenodd;"
points="50639,26493
50639,25706
49694,25706
49694,26493
50639,26493
" /> 
<polyline style="fill-rule:evenodd;"
points="49065,26493
49065,25706
48120,25706
48120,26493
49065,26493
" /> 
<polyline style="fill-rule:evenodd;"
points="44793,24429
44793,25570
45954,25570
45954,24429
44793,24429
" /> 
<polyline style="fill-rule:evenodd;"
points="42805,24429
42805,25570
43966,25570
43966,24429
42805,24429
" /> 
<polyline style="fill-rule:evenodd;"
points="45514,26793
45514,26006
44569,26006
44569,26793
45514,26793
" /> 
<polyline style="fill-rule:evenodd;"
points="43940,26793
43940,26006
42995,26006
42995,26793
43940,26793
" /> 
<polyline style="fill-rule:evenodd;"
points="57970,23156
57970,23943
58915,23943
58915,23156
57970,23156
" /> 
<polyline style="fill-rule:evenodd;"
points="59544,23156
59544,23943
60489,23943
60489,23156
59544,23156
" /> 
<polyline style="fill-rule:evenodd;"
points="59620,20731
59620,21518
60565,21518
60565,20731
59620,20731
" /> 
<polyline style="fill-rule:evenodd;"
points="61194,20731
61194,21518
62139,21518
62139,20731
61194,20731
" /> 
<polyline style="fill-rule:evenodd;"
points="50436,20559
51223,20559
51223,19614
50436,19614
50436,20559
" /> 
<polyline style="fill-rule:evenodd;"
points="50436,18985
51223,18985
51223,18040
50436,18040
50436,18985
" /> 
<polyline style="fill-rule:evenodd;"
points="54339,18768
54339,17981
53394,17981
53394,18768
54339,18768
" /> 
<polyline style="fill-rule:evenodd;"
points="52765,18768
52765,17981
51820,17981
51820,18768
52765,18768
" /> 
<polyline style="fill-rule:evenodd;"
points="56336,26921
56336,27878
57173,27878
57173,26921
56336,26921
" /> 
</g>
<g style="fill:#000000; fill-opacity:1.0; 
stroke:#000000; stroke-width:837.48; stroke-opacity:1; 
stroke-linecap:round; stroke-linejoin:round;">
</g>
<g style="fill:#000000; fill-opacity:0.0; 
stroke:#000000; stroke-width:837.48; stroke-opacity:1; 
stroke-linecap:round; stroke-linejoin:round;">
<path d="M57755 27460
L57755 27340
" />
<path d="M58755 27460
L58755 27340
" />
</g>
<g style="fill:#000000; fill-opacity:0.0; 
stroke:#000000; stroke-width:0; stroke-opacity:1; 
stroke-linecap:round; stroke-linejoin:round;">
</g>
<g style="fill:#000000; fill-opacity:1.0; 
stroke:#000000; stroke-width:0; stroke-opacity:1; 
stroke-linecap:round; stroke-linejoin:round;">
<polyline style="fill-rule:evenodd;"
points="53576,25928
54533,25928
54533,24971
53576,24971
53576,25928
" /> 
</g>
<g style="fill:#000000; fill-opacity:1.0; 
stroke:#000000; stroke-width:957.48; stroke-opacity:1; 
stroke-linecap:round; stroke-linejoin:round;">
</g>
<g style="fill:#000000; fill-opacity:0.0; 
stroke:#000000; stroke-width:957.48; stroke-opacity:1; 
stroke-linecap:round; stroke-linejoin:round;">
<path d="M54055 24450
L54055 24450
" />
</g>
<g style="fill:#000000; fill-opacity:0.0; 
stroke:#000000; stroke-width:0; stroke-opacity:1; 
stroke-linecap:round; stroke-linejoin:round;">
</g>
<g style="fill:#000000; fill-opacity:1.0; 
stroke:#000000; stroke-width:0; stroke-opacity:1; 
stroke-linecap:round; stroke-linejoin:round;">
<polyline style="fill-rule:evenodd;"
points="52126,25268
53083,25268
53083,24431
52126,24431
52126,25268
" /> 
</g>
<g style="fill:#000000; fill-opacity:1.0; 
stroke:#000000; stroke-width:837.48; stroke-opacity:1; 
stroke-linecap:round; stroke-linejoin:round;">
</g>
<g style="fill:#000000; fill-opacity:0.0; 
stroke:#000000; stroke-width:837.48; stroke-opacity:1; 
stroke-linecap:round; stroke-linejoin:round;">
<path d="M52665 23850
L52545 23850
" />
<path d="M52665 22850
L52545 22850
" />
</g>
<g style="fill:#000000; fill-opacity:0.0; 
stroke:#000000; stroke-width:0; stroke-opacity:1; 
stroke-linecap:round; stroke-linejoin:round;">
</g>
<g style="fill:#000000; fill-opacity:1.0; 
stroke:#000000; stroke-width:0; stroke-opacity:1; 
stroke-linecap:round; stroke-linejoin:round;">
<polyline style="fill-rule:evenodd;"
points="56333,17281
55376,17281
55376,18118
56333,18118
56333,17281
" /> 
</g>
<g style="fill:#000000; fill-opacity:1.0; 
stroke:#000000; stroke-width:837.48; stroke-opacity:1; 
stroke-linecap:round; stroke-linejoin:round;">
</g>
<g style="fill:#000000; fill-opacity:0.0; 
stroke:#000000; stroke-width:837.48; stroke-opacity:1; 
stroke-linecap:round; stroke-linejoin:round;">
<path d="M55795 18700
L55915 18700
" />
<path d="M55795 19700
L55915 19700
" />
</g>
<g style="fill:#000000; fill-opacity:1.0; 
stroke:#000000; stroke-width:0; stroke-opacity:1; 
stroke-linecap:round; stroke-linejoin:round;">
<circle cx="68130" cy="33250" r="828.74" /> 
</g>
<g style="fill:#000000; fill-opacity:1.0; 
stroke:#000000; stroke-width:39.3701; stroke-opacity:1; 
stroke-linecap:round; stroke-linejoin:round;">
</g>
<g style="fill:#000000; fill-opacity:1.0; 
stroke:#000000; stroke-width:0; stroke-opacity:1; 
stroke-linecap:round; stroke-linejoin:round;">
<circle cx="66880" cy="34500" r="778.74" /> 
</g>
<g style="fill:#000000; fill-opacity:1.0; 
stroke:#000000; stroke-width:39.3701; stroke-opacity:1; 
stroke-linecap:round; stroke-linejoin:round;">
</g>
<g style="fill:#000000; fill-opacity:1.0; 
stroke:#000000; stroke-width:0; stroke-opacity:1; 
stroke-linecap:round; stroke-linejoin:round;">
<circle cx="65630" cy="33250" r="828.74" /> 
</g>
<g style="fill:#000000; fill-opacity:1.0; 
stroke:#000000; stroke-width:39.3701; stroke-opacity:1; 
stroke-linecap:round; stroke-linejoin:round;">
</g>
<g style="fill:#000000; fill-opacity:1.0; 
stroke:#000000; stroke-width:0; stroke-opacity:1; 
stroke-linecap:round; stroke-linejoin:round;">
<circle cx="68130" cy="35750" r="828.74" /> 
</g>
<g style="fill:#000000; fill-opacity:1.0; 
stroke:#000000; stroke-width:39.3701; stroke-opacity:1; 
stroke-linecap:round; stroke-linejoin:round;">
</g>
<g style="fill:#000000; fill-opacity:1.0; 
stroke:#000000; stroke-width:0; stroke-opacity:1; 
stroke-linecap:round; stroke-linejoin:round;">
<circle cx="65630" cy="35750" r="828.74" /> 
</g>
<g style="fill:#000000; fill-opacity:1.0; 
stroke:#000000; stroke-width:39.3701; stroke-opacity:1; 
stroke-linecap:round; stroke-linejoin:round;">
</g>
<g style="fill:#000000; fill-opacity:1.0; 
stroke:#000000; stroke-width:0; stroke-opacity:1; 
stroke-linecap:round; stroke-linejoin:round;">
<circle cx="68280" cy="26150" r="828.74" /> 
</g>
<g style="fill:#000000; fill-opacity:1.0; 
stroke:#000000; stroke-width:39.3701; stroke-opacity:1; 
stroke-linecap:round; stroke-linejoin:round;">
</g>
<g style="fill:#000000; fill-opacity:1.0; 
stroke:#000000; stroke-width:0; stroke-opacity:1; 
stroke-linecap:round; stroke-linejoin:round;">
<circle cx="67030" cy="27400" r="778.74" /> 
</g>
<g style="fill:#000000; fill-opacity:1.0; 
stroke:#000000; stroke-width:39.3701; stroke-opacity:1; 
stroke-linecap:round; stroke-linejoin:round;">
</g>
<g style="fill:#000000; fill-opacity:1.0; 
stroke:#000000; stroke-width:0; stroke-opacity:1; 
stroke-linecap:round; stroke-linejoin:round;">
<circle cx="65780" cy="26150" r="828.74" /> 
</g>
<g style="fill:#000000; fill-opacity:1.0; 
stroke:#000000; stroke-width:39.3701; stroke-opacity:1; 
stroke-linecap:round; stroke-linejoin:round;">
</g>
<g style="fill:#000000; fill-opacity:1.0; 
stroke:#000000; stroke-width:0; stroke-opacity:1; 
stroke-linecap:round; stroke-linejoin:round;">
<circle cx="68280" cy="28650" r="828.74" /> 
</g>
<g style="fill:#000000; fill-opacity:1.0; 
stroke:#000000; stroke-width:39.3701; stroke-opacity:1; 
stroke-linecap:round; stroke-linejoin:round;">
</g>
<g style="fill:#000000; fill-opacity:1.0; 
stroke:#000000; stroke-width:0; stroke-opacity:1; 
stroke-linecap:round; stroke-linejoin:round;">
<circle cx="65780" cy="28650" r="828.74" /> 
</g>
<g style="fill:#000000; fill-opacity:1.0; 
stroke:#000000; stroke-width:39.3701; stroke-opacity:1; 
stroke-linecap:round; stroke-linejoin:round;">
</g>
<g style="fill:#000000; fill-opacity:1.0; 
stroke:#000000; stroke-width:0; stroke-opacity:1; 
stroke-linecap:round; stroke-linejoin:round;">
<circle cx="68205" cy="47475" r="828.74" /> 
</g>
<g style="fill:#000000; fill-opacity:1.0; 
stroke:#000000; stroke-width:39.3701; stroke-opacity:1; 
stroke-linecap:round; stroke-linejoin:round;">
</g>
<g style="fill:#000000; fill-opacity:1.0; 
stroke:#000000; stroke-width:0; stroke-opacity:1; 
stroke-linecap:round; stroke-linejoin:round;">
<circle cx="66955" cy="48725" r="778.74" /> 
</g>
<g style="fill:#000000; fill-opacity:1.0; 
stroke:#000000; stroke-width:39.3701; stroke-opacity:1; 
stroke-linecap:round; stroke-linejoin:round;">
</g>
<g style="fill:#000000; fill-opacity:1.0; 
stroke:#000000; stroke-width:0; stroke-opacity:1; 
stroke-linecap:round; stroke-linejoin:round;">
<circle cx="65705" cy="47475" r="828.74" /> 
</g>
<g style="fill:#000000; fill-opacity:1.0; 
stroke:#000000; stroke-width:39.3701; stroke-opacity:1; 
stroke-linecap:round; stroke-linejoin:round;">
</g>
<g style="fill:#000000; fill-opacity:1.0; 
stroke:#000000; stroke-width:0; stroke-opacity:1; 
stroke-linecap:round; stroke-linejoin:round;">
<circle cx="68205" cy="49975" r="828.74" /> 
</g>
<g style="fill:#000000; fill-opacity:1.0; 
stroke:#000000; stroke-width:39.3701; stroke-opacity:1; 
stroke-linecap:round; stroke-linejoin:round;">
</g>
<g style="fill:#000000; fill-opacity:1.0; 
stroke:#000000; stroke-width:0; stroke-opacity:1; 
stroke-linecap:round; stroke-linejoin:round;">
<circle cx="65705" cy="49975" r="828.74" /> 
</g>
<g style="fill:#000000; fill-opacity:1.0; 
stroke:#000000; stroke-width:39.3701; stroke-opacity:1; 
stroke-linecap:round; stroke-linejoin:round;">
</g>
<g style="fill:#000000; fill-opacity:1.0; 
stroke:#000000; stroke-width:0; stroke-opacity:1; 
stroke-linecap:round; stroke-linejoin:round;">
<circle cx="68280" cy="41400" r="828.74" /> 
</g>
<g style="fill:#000000; fill-opacity:1.0; 
stroke:#000000; stroke-width:39.3701; stroke-opacity:1; 
stroke-linecap:round; stroke-linejoin:round;">
</g>
<g style="fill:#000000; fill-opacity:1.0; 
stroke:#000000; stroke-width:0; stroke-opacity:1; 
stroke-linecap:round; stroke-linejoin:round;">
<circle cx="67030" cy="42650" r="778.74" /> 
</g>
<g style="fill:#000000; fill-opacity:1.0; 
stroke:#000000; stroke-width:39.3701; stroke-opacity:1; 
stroke-linecap:round; stroke-linejoin:round;">
</g>
<g style="fill:#000000; fill-opacity:1.0; 
stroke:#000000; stroke-width:0; stroke-opacity:1; 
stroke-linecap:round; stroke-linejoin:round;">
<circle cx="65780" cy="41400" r="828.74" /> 
</g>
<g style="fill:#000000; fill-opacity:1.0; 
stroke:#000000; stroke-width:39.3701; stroke-opacity:1; 
stroke-linecap:round; stroke-linejoin:round;">
</g>
<g style="fill:#000000; fill-opacity:1.0; 
stroke:#000000; stroke-width:0; stroke-opacity:1; 
stroke-linecap:round; stroke-linejoin:round;">
<circle cx="68280" cy="43900" r="828.74" /> 
</g>
<g style="fill:#000000; fill-opacity:1.0; 
stroke:#000000; stroke-width:39.3701; stroke-opacity:1; 
stroke-linecap:round; stroke-linejoin:round;">
</g>
<g style="fill:#000000; fill-opacity:1.0; 
stroke:#000000; stroke-width:0; stroke-opacity:1; 
stroke-linecap:round; stroke-linejoin:round;">
<circle cx="65780" cy="43900" r="828.74" /> 
</g>
<g style="fill:#000000; fill-opacity:1.0; 
stroke:#000000; stroke-width:39.3701; stroke-opacity:1; 
stroke-linecap:round; stroke-linejoin:round;">
</g>
<g style="fill:#000000; fill-opacity:1.0; 
stroke:#000000; stroke-width:0; stroke-opacity:1; 
stroke-linecap:round; stroke-linejoin:round;">
<polyline style="fill-rule:evenodd;"
points="47086,35593
47923,35593
47923,34756
47086,34756
47086,35593
" /> 
</g>
<g style="fill:#000000; fill-opacity:1.0; 
stroke:#000000; stroke-width:837.48; stroke-opacity:1; 
stroke-linecap:round; stroke-linejoin:round;">
</g>
<g style="fill:#000000; fill-opacity:0.0; 
stroke:#000000; stroke-width:837.48; stroke-opacity:1; 
stroke-linecap:round; stroke-linejoin:round;">
<path d="M46505 35175
L46505 35175
" />
<path d="M47505 34175
L47505 34175
" />
<path d="M46505 34175
L46505 34175
" />
<path d="M47505 33175
L47505 33175
" />
<path d="M46505 33175
L46505 33175
" />
<path d="M47505 32175
L47505 32175
" />
<path d="M46505 32175
L46505 32175
" />
<path d="M47505 31175
L47505 31175
" />
<path d="M46505 31175
L46505 31175
" />
<path d="M47505 30175
L47505 30175
" />
<path d="M46505 30175
L46505 30175
" />
</g>
<g style="fill:#000000; fill-opacity:0.0; 
stroke:#000000; stroke-width:0; stroke-opacity:1; 
stroke-linecap:round; stroke-linejoin:round;">
</g>
<g style="fill:#000000; fill-opacity:1.0; 
stroke:#000000; stroke-width:0; stroke-opacity:1; 
stroke-linecap:round; stroke-linejoin:round;">
<polyline style="fill-rule:evenodd;"
points="59320,42211
59320,43038
60265,43038
60265,42211
59320,42211
" /> 
<polyline style="fill-rule:evenodd;"
points="60894,42211
60894,43038
61839,43038
61839,42211
60894,42211
" /> 
<polyline style="fill-rule:evenodd;"
points="59420,48311
59420,49138
60365,49138
60365,48311
59420,48311
" /> 
<polyline style="fill-rule:evenodd;"
points="60994,48311
60994,49138
61939,49138
61939,48311
60994,48311
" /> 
<polyline style="fill-rule:evenodd;"
points="59570,34086
59570,34913
60515,34913
60515,34086
59570,34086
" /> 
<polyline style="fill-rule:evenodd;"
points="61144,34086
61144,34913
62089,34913
62089,34086
61144,34086
" /> 
<polyline style="fill-rule:evenodd;"
points="59820,26986
59820,27813
60765,27813
60765,26986
59820,26986
" /> 
<polyline style="fill-rule:evenodd;"
points="61394,26986
61394,27813
62339,27813
62339,26986
61394,26986
" /> 
<polyline style="fill-rule:evenodd;"
points="44716,32209
45543,32209
45543,31264
44716,31264
44716,32209
" /> 
<polyline style="fill-rule:evenodd;"
points="44716,30635
45543,30635
45543,29690
44716,29690
44716,30635
" /> 
<polyline style="fill-rule:evenodd;"
points="49343,29890
48516,29890
48516,30835
49343,30835
49343,29890
" /> 
<polyline style="fill-rule:evenodd;"
points="49343,31464
48516,31464
48516,32409
49343,32409
49343,31464
" /> 
<polyline style="fill-rule:evenodd;"
points="55195,28261
55195,29088
56140,29088
56140,28261
55195,28261
" /> 
<polyline style="fill-rule:evenodd;"
points="56769,28261
56769,29088
57714,29088
57714,28261
56769,28261
" /> 
<polyline style="fill-rule:evenodd;"
points="53289,26513
53289,25686
52344,25686
52344,26513
53289,26513
" /> 
<polyline style="fill-rule:evenodd;"
points="51715,26513
51715,25686
50770,25686
50770,26513
51715,26513
" /> 
<polyline style="fill-rule:evenodd;"
points="57718,20665
56891,20665
56891,21610
57718,21610
57718,20665
" /> 
<polyline style="fill-rule:evenodd;"
points="57718,22239
56891,22239
56891,23184
57718,23184
57718,22239
" /> 
<polyline style="fill-rule:evenodd;"
points="58070,21686
58070,22513
59015,22513
59015,21686
58070,21686
" /> 
<polyline style="fill-rule:evenodd;"
points="59644,21686
59644,22513
60589,22513
60589,21686
59644,21686
" /> 
<polyline style="fill-rule:evenodd;"
points="57718,17840
56891,17840
56891,18785
57718,18785
57718,17840
" /> 
<polyline style="fill-rule:evenodd;"
points="57718,19414
56891,19414
56891,20359
57718,20359
57718,19414
" /> 
<polyline style="fill-rule:evenodd;"
points="46768,37663
46768,37112
45528,37112
45528,37663
46768,37663
" /> 
<polyline style="fill-rule:evenodd;"
points="49031,37663
49031,37112
47791,37112
47791,37663
49031,37663
" /> 
<polyline style="fill-rule:evenodd;"
points="49031,39237
49031,38686
47791,38686
47791,39237
49031,39237
" /> 
<polyline style="fill-rule:evenodd;"
points="46768,39237
46768,38686
45528,38686
45528,39237
46768,39237
" /> 
<polyline style="fill-rule:evenodd;"
points="64100,26857
64100,26444
63525,26444
63525,26857
64100,26857
" /> 
<polyline style="fill-rule:evenodd;"
points="64100,27231
64100,26818
63525,26818
63525,27231
64100,27231
" /> 
<polyline style="fill-rule:evenodd;"
points="64100,27605
64100,27192
63525,27192
63525,27605
64100,27605
" /> 
<polyline style="fill-rule:evenodd;"
points="63234,27605
63234,27192
62659,27192
62659,27605
63234,27605
" /> 
<polyline style="fill-rule:evenodd;"
points="63234,26857
63234,26444
62659,26444
62659,26857
63234,26857
" /> 
<polyline style="fill-rule:evenodd;"
points="63725,33957
63725,33544
63150,33544
63150,33957
63725,33957
" /> 
<polyline style="fill-rule:evenodd;"
points="63725,34331
63725,33918
63150,33918
63150,34331
63725,34331
" /> 
<polyline style="fill-rule:evenodd;"
points="63725,34705
63725,34292
63150,34292
63150,34705
63725,34705
" /> 
<polyline style="fill-rule:evenodd;"
points="62859,34705
62859,34292
62284,34292
62284,34705
62859,34705
" /> 
<polyline style="fill-rule:evenodd;"
points="62859,33957
62859,33544
62284,33544
62284,33957
62859,33957
" /> 
<polyline style="fill-rule:evenodd;"
points="63775,42107
63775,41694
63200,41694
63200,42107
63775,42107
" /> 
<polyline style="fill-rule:evenodd;"
points="63775,42481
63775,42068
63200,42068
63200,42481
63775,42481
" /> 
<polyline style="fill-rule:evenodd;"
points="63775,42855
63775,42442
63200,42442
63200,42855
63775,42855
" /> 
<polyline style="fill-rule:evenodd;"
points="62909,42855
62909,42442
62334,42442
62334,42855
62909,42855
" /> 
<polyline style="fill-rule:evenodd;"
points="62909,42107
62909,41694
62334,41694
62334,42107
62909,42107
" /> 
<polyline style="fill-rule:evenodd;"
points="64000,48182
64000,47769
63425,47769
63425,48182
64000,48182
" /> 
<polyline style="fill-rule:evenodd;"
points="64000,48556
64000,48143
63425,48143
63425,48556
64000,48556
" /> 
<polyline style="fill-rule:evenodd;"
points="64000,48930
64000,48517
63425,48517
63425,48930
64000,48930
" /> 
<polyline style="fill-rule:evenodd;"
points="63134,48930
63134,48517
62559,48517
62559,48930
63134,48930
" /> 
<polyline style="fill-rule:evenodd;"
points="63134,48182
63134,47769
62559,47769
62559,48182
63134,48182
" /> 
<polyline style="fill-rule:evenodd;"
points="56730,33317
57044,33317
57044,32726
56730,32726
56730,33317
" /> 
<polyline style="fill-rule:evenodd;"
points="56474,33317
56789,33317
56789,32726
56474,32726
56474,33317
" /> 
<polyline style="fill-rule:evenodd;"
points="56218,33317
56533,33317
56533,32726
56218,32726
56218,33317
" /> 
<polyline style="fill-rule:evenodd;"
points="55962,33317
56277,33317
56277,32726
55962,32726
55962,33317
" /> 
<polyline style="fill-rule:evenodd;"
points="55706,33317
56021,33317
56021,32726
55706,32726
55706,33317
" /> 
<polyline style="fill-rule:evenodd;"
points="55450,33317
55765,33317
55765,32726
55450,32726
55450,33317
" /> 
<polyline style="fill-rule:evenodd;"
points="55194,33317
55509,33317
55509,32726
55194,32726
55194,33317
" /> 
<polyline style="fill-rule:evenodd;"
points="54938,33317
55253,33317
55253,32726
54938,32726
54938,33317
" /> 
<polyline style="fill-rule:evenodd;"
points="54682,33317
54997,33317
54997,32726
54682,32726
54682,33317
" /> 
<polyline style="fill-rule:evenodd;"
points="54426,33317
54741,33317
54741,32726
54426,32726
54426,33317
" /> 
<polyline style="fill-rule:evenodd;"
points="54170,33317
54485,33317
54485,32726
54170,32726
54170,33317
" /> 
<polyline style="fill-rule:evenodd;"
points="53915,33317
54230,33317
54230,32726
53915,32726
53915,33317
" /> 
<polyline style="fill-rule:evenodd;"
points="53915,31073
54230,31073
54230,30482
53915,30482
53915,31073
" /> 
<polyline style="fill-rule:evenodd;"
points="54170,31073
54485,31073
54485,30482
54170,30482
54170,31073
" /> 
<polyline style="fill-rule:evenodd;"
points="54426,31073
54741,31073
54741,30482
54426,30482
54426,31073
" /> 
<polyline style="fill-rule:evenodd;"
points="54682,31073
54997,31073
54997,30482
54682,30482
54682,31073
" /> 
<polyline style="fill-rule:evenodd;"
points="54938,31073
55253,31073
55253,30482
54938,30482
54938,31073
" /> 
<polyline style="fill-rule:evenodd;"
points="55194,31073
55509,31073
55509,30482
55194,30482
55194,31073
" /> 
<polyline style="fill-rule:evenodd;"
points="55450,31073
55765,31073
55765,30482
55450,30482
55450,31073
" /> 
<polyline style="fill-rule:evenodd;"
points="55706,31073
56021,31073
56021,30482
55706,30482
55706,31073
" /> 
<polyline style="fill-rule:evenodd;"
points="55962,31073
56277,31073
56277,30482
55962,30482
55962,31073
" /> 
<polyline style="fill-rule:evenodd;"
points="56218,31073
56533,31073
56533,30482
56218,30482
56218,31073
" /> 
<polyline style="fill-rule:evenodd;"
points="56474,31073
56789,31073
56789,30482
56474,30482
56474,31073
" /> 
<polyline style="fill-rule:evenodd;"
points="56730,31073
57044,31073
57044,30482
56730,30482
56730,31073
" /> 
<polyline style="fill-rule:evenodd;"
points="56434,24417
56434,24830
57009,24830
57009,24417
56434,24417
" /> 
<polyline style="fill-rule:evenodd;"
points="56434,24043
56434,24456
57009,24456
57009,24043
56434,24043
" /> 
<polyline style="fill-rule:evenodd;"
points="56434,23669
56434,24082
57009,24082
57009,23669
56434,23669
" /> 
<polyline style="fill-rule:evenodd;"
points="57300,23669
57300,24082
57875,24082
57875,23669
57300,23669
" /> 
<polyline style="fill-rule:evenodd;"
points="57300,24417
57300,24830
57875,24830
57875,24417
57300,24417
" /> 
<polyline style="fill-rule:evenodd;"
points="54001,20878
54608,20878
54608,20521
54001,20521
54001,20878
" /> 
<polyline style="fill-rule:evenodd;"
points="54001,20378
54608,20378
54608,20021
54001,20021
54001,20378
" /> 
<polyline style="fill-rule:evenodd;"
points="54001,19878
54608,19878
54608,19521
54001,19521
54001,19878
" /> 
<polyline style="fill-rule:evenodd;"
points="54001,19378
54608,19378
54608,19021
54001,19021
54001,19378
" /> 
<polyline style="fill-rule:evenodd;"
points="51501,19378
52108,19378
52108,19021
51501,19021
51501,19378
" /> 
<polyline style="fill-rule:evenodd;"
points="51501,19878
52108,19878
52108,19521
51501,19521
51501,19878
" /> 
<polyline style="fill-rule:evenodd;"
points="51501,20378
52108,20378
52108,20021
51501,20021
51501,20378
" /> 
<polyline style="fill-rule:evenodd;"
points="51501,20878
52108,20878
52108,20521
51501,20521
51501,20878
" /> 
<circle cx="64230" cy="16950" r="828.74" /> 
</g>
<g style="fill:#000000; fill-opacity:1.0; 
stroke:#000000; stroke-width:39.3701; stroke-opacity:1; 
stroke-linecap:round; stroke-linejoin:round;">
</g>
<g style="fill:#000000; fill-opacity:1.0; 
stroke:#000000; stroke-width:0; stroke-opacity:1; 
stroke-linecap:round; stroke-linejoin:round;">
<circle cx="62980" cy="18200" r="778.74" /> 
</g>
<g style="fill:#000000; fill-opacity:1.0; 
stroke:#000000; stroke-width:39.3701; stroke-opacity:1; 
stroke-linecap:round; stroke-linejoin:round;">
</g>
<g style="fill:#000000; fill-opacity:1.0; 
stroke:#000000; stroke-width:0; stroke-opacity:1; 
stroke-linecap:round; stroke-linejoin:round;">
<circle cx="61730" cy="16950" r="828.74" /> 
</g>
<g style="fill:#000000; fill-opacity:1.0; 
stroke:#000000; stroke-width:39.3701; stroke-opacity:1; 
stroke-linecap:round; stroke-linejoin:round;">
</g>
<g style="fill:#000000; fill-opacity:1.0; 
stroke:#000000; stroke-width:0; stroke-opacity:1; 
stroke-linecap:round; stroke-linejoin:round;">
<circle cx="64230" cy="19450" r="828.74" /> 
</g>
<g style="fill:#000000; fill-opacity:1.0; 
stroke:#000000; stroke-width:39.3701; stroke-opacity:1; 
stroke-linecap:round; stroke-linejoin:round;">
</g>
<g style="fill:#000000; fill-opacity:1.0; 
stroke:#000000; stroke-width:0; stroke-opacity:1; 
stroke-linecap:round; stroke-linejoin:round;">
<circle cx="61730" cy="19450" r="828.74" /> 
</g>
<g style="fill:#000000; fill-opacity:1.0; 
stroke:#000000; stroke-width:39.3701; stroke-opacity:1; 
stroke-linecap:round; stroke-linejoin:round;">
</g>
<g style="fill:#000000; fill-opacity:1.0; 
stroke:#000000; stroke-width:826.48; stroke-opacity:1; 
stroke-linecap:round; stroke-linejoin:round;">
</g>
<g style="fill:#000000; fill-opacity:0.0; 
stroke:#000000; stroke-width:826.48; stroke-opacity:1; 
stroke-linecap:round; stroke-linejoin:round;">
<path d="M47155 22879
L47155 22170
" />
<path d="M48155 22879
L48155 22170
" />
<path d="M46155 22879
L46155 22170
" />
</g>
<g style="fill:#000000; fill-opacity:0.0; 
stroke:#000000; stroke-width:0; stroke-opacity:1; 
stroke-linecap:round; stroke-linejoin:round;">
</g>
<g style="fill:#000000; fill-opacity:1.0; 
stroke:#000000; stroke-width:0; stroke-opacity:1; 
stroke-linecap:round; stroke-linejoin:round;">
<polyline style="fill-rule:evenodd;"
points="37895,24676
37895,26723
40414,26723
40414,24676
37895,24676
" /> 
<polyline style="fill-rule:evenodd;"
points="41631,22280
41631,23619
43678,23619
43678,22280
41631,22280
" /> 
<polyline style="fill-rule:evenodd;"
points="37895,19676
37895,21723
40414,21723
40414,19676
37895,19676
" /> 
</g> 
</svg>
