  0
SECTION
  2
HEADER
  9
$ANGBASE
  50
0.0
  9
$ANGDIR
  70
  1
  9
$MEASUREMENT
  70
0
  0
ENDSEC
  0
SECTION
  2
TABLES
  0
TABLE
  2
LTYPE
  70
1
  0
LTYPE
  2
CONTINUOUS
  70
0
  3
Solid line
  72
65
  73
0
  40
0.0
  0
ENDTAB
  0
TABLE
  2
STYLE
  70
4
  0
STYLE
  2
KICAD
  70
0
  40
0
  41
1
  42
1
  50
0
  71
0
  3
isocp.shx
  0
STYLE
  2
KICADB
  70
0
  40
0
  41
1
  42
1
  50
0
  71
0
  3
isocp.shx
  0
STYLE
  2
KICADI
  70
0
  40
0
  41
1
  42
1
  50
15
  71
0
  3
isocp.shx
  0
STYLE
  2
KICADBI
  70
0
  40
0
  41
1
  42
1
  50
15
  71
0
  3
isocp.shx
  0
ENDTAB
  0
TABLE
  2
LAYER
  70
30
  0
LAYER
  2
BLACK
  70
0
  62
7
  6
CONTINUOUS
  0
LAYER
  2
GRAY1
  70
0
  62
251
  6
CONTINUOUS
  0
LAYER
  2
GRAY2
  70
0
  62
8
  6
CONTINUOUS
  0
LAYER
  2
GRAY3
  70
0
  62
9
  6
CONTINUOUS
  0
LAYER
  2
WHITE
  70
0
  62
7
  6
CONTINUOUS
  0
LAYER
  2
LYELLOW
  70
0
  62
51
  6
CONTINUOUS
  0
LAYER
  2
BLUE1
  70
0
  62
178
  6
CONTINUOUS
  0
LAYER
  2
GREEN1
  70
0
  62
98
  6
CONTINUOUS
  0
LAYER
  2
CYAN1
  70
0
  62
138
  6
CONTINUOUS
  0
LAYER
  2
RED1
  70
0
  62
18
  6
CONTINUOUS
  0
LAYER
  2
MAGENTA1
  70
0
  62
228
  6
CONTINUOUS
  0
LAYER
  2
BROWN1
  70
0
  62
58
  6
CONTINUOUS
  0
LAYER
  2
BLUE2
  70
0
  62
5
  6
CONTINUOUS
  0
LAYER
  2
GREEN2
  70
0
  62
3
  6
CONTINUOUS
  0
LAYER
  2
CYAN2
  70
0
  62
4
  6
CONTINUOUS
  0
LAYER
  2
RED2
  70
0
  62
1
  6
CONTINUOUS
  0
LAYER
  2
MAGENTA2
  70
0
  62
6
  6
CONTINUOUS
  0
LAYER
  2
BROWN2
  70
0
  62
54
  6
CONTINUOUS
  0
LAYER
  2
BLUE3
  70
0
  62
171
  6
CONTINUOUS
  0
LAYER
  2
GREEN3
  70
0
  62
91
  6
CONTINUOUS
  0
LAYER
  2
CYAN3
  70
0
  62
131
  6
CONTINUOUS
  0
LAYER
  2
RED3
  70
0
  62
11
  6
CONTINUOUS
  0
LAYER
  2
MAGENTA3
  70
0
  62
221
  6
CONTINUOUS
  0
LAYER
  2
YELLOW3
  70
0
  62
2
  6
CONTINUOUS
  0
LAYER
  2
BLUE4
  70
0
  62
5
  6
CONTINUOUS
  0
LAYER
  2
GREEN4
  70
0
  62
3
  6
CONTINUOUS
  0
LAYER
  2
CYAN4
  70
0
  62
4
  6
CONTINUOUS
  0
LAYER
  2
RED4
  70
0
  62
1
  6
CONTINUOUS
  0
LAYER
  2
MAGENTA4
  70
0
  62
6
  6
CONTINUOUS
  0
LAYER
  2
YELLOW4
  70
0
  62
2
  6
CONTINUOUS
  0
ENDTAB
  0
ENDSEC
  0
SECTION
  2
ENTITIES
0
LINE
8
Black
10
152.746
20
-91.7708
11
153.046
21
-91.9443
0
LINE
8
Black
10
153.046
20
-91.9443
11
153.269
21
-92.2103
0
LINE
8
Black
10
153.269
20
-92.2103
11
153.388
21
-92.5364
0
LINE
8
Black
10
153.388
20
-92.5364
11
153.388
21
-92.8836
0
LINE
8
Black
10
153.388
20
-92.8836
11
153.269
21
-93.2097
0
LINE
8
Black
10
153.269
20
-93.2097
11
153.046
21
-93.4757
0
LINE
8
Black
10
153.046
20
-93.4757
11
152.746
21
-93.6492
0
LINE
8
Black
10
152.746
20
-93.6492
11
152.404
21
-93.7095
0
LINE
8
Black
10
152.404
20
-93.7095
11
152.396
21
-93.7095
0
LINE
8
Black
10
152.396
20
-93.7095
11
152.054
21
-93.6492
0
LINE
8
Black
10
152.054
20
-93.6492
11
151.754
21
-93.4757
0
LINE
8
Black
10
151.754
20
-93.4757
11
151.531
21
-93.2097
0
LINE
8
Black
10
151.531
20
-93.2097
11
151.412
21
-92.8836
0
LINE
8
Black
10
151.412
20
-92.8836
11
151.412
21
-92.5364
0
LINE
8
Black
10
151.412
20
-92.5364
11
151.531
21
-92.2103
0
LINE
8
Black
10
151.531
20
-92.2103
11
151.754
21
-91.9443
0
LINE
8
Black
10
151.754
20
-91.9443
11
152.054
21
-91.7708
0
LINE
8
Black
10
152.054
20
-91.7708
11
152.396
21
-91.7105
0
LINE
8
Black
10
152.396
20
-91.7105
11
152.404
21
-91.7105
0
LINE
8
Black
10
152.404
20
-91.7105
11
152.746
21
-91.7708
0
LINE
8
Black
10
145.779
20
-93.7095
11
143.781
21
-93.7095
0
LINE
8
Black
10
143.781
20
-93.7095
11
143.781
21
-91.7105
0
LINE
8
Black
10
143.781
20
-91.7105
11
145.779
21
-91.7105
0
LINE
8
Black
10
145.779
20
-91.7105
11
145.779
21
-93.7095
0
LINE
8
Black
10
147.666
20
-91.7708
11
147.966
21
-91.9443
0
LINE
8
Black
10
147.966
20
-91.9443
11
148.189
21
-92.2103
0
LINE
8
Black
10
148.189
20
-92.2103
11
148.308
21
-92.5364
0
LINE
8
Black
10
148.308
20
-92.5364
11
148.308
21
-92.8836
0
LINE
8
Black
10
148.308
20
-92.8836
11
148.189
21
-93.2097
0
LINE
8
Black
10
148.189
20
-93.2097
11
147.966
21
-93.4757
0
LINE
8
Black
10
147.966
20
-93.4757
11
147.666
21
-93.6492
0
LINE
8
Black
10
147.666
20
-93.6492
11
147.324
21
-93.7095
0
LINE
8
Black
10
147.324
20
-93.7095
11
147.316
21
-93.7095
0
LINE
8
Black
10
147.316
20
-93.7095
11
146.974
21
-93.6492
0
LINE
8
Black
10
146.974
20
-93.6492
11
146.674
21
-93.4757
0
LINE
8
Black
10
146.674
20
-93.4757
11
146.451
21
-93.2097
0
LINE
8
Black
10
146.451
20
-93.2097
11
146.332
21
-92.8836
0
LINE
8
Black
10
146.332
20
-92.8836
11
146.332
21
-92.5364
0
LINE
8
Black
10
146.332
20
-92.5364
11
146.451
21
-92.2103
0
LINE
8
Black
10
146.451
20
-92.2103
11
146.674
21
-91.9443
0
LINE
8
Black
10
146.674
20
-91.9443
11
146.974
21
-91.7708
0
LINE
8
Black
10
146.974
20
-91.7708
11
147.316
21
-91.7105
0
LINE
8
Black
10
147.316
20
-91.7105
11
147.324
21
-91.7105
0
LINE
8
Black
10
147.324
20
-91.7105
11
147.666
21
-91.7708
0
LINE
8
Black
10
150.206
20
-91.7708
11
150.506
21
-91.9443
0
LINE
8
Black
10
150.506
20
-91.9443
11
150.729
21
-92.2103
0
LINE
8
Black
10
150.729
20
-92.2103
11
150.848
21
-92.5364
0
LINE
8
Black
10
150.848
20
-92.5364
11
150.848
21
-92.8836
0
LINE
8
Black
10
150.848
20
-92.8836
11
150.729
21
-93.2097
0
LINE
8
Black
10
150.729
20
-93.2097
11
150.506
21
-93.4757
0
LINE
8
Black
10
150.506
20
-93.4757
11
150.206
21
-93.6492
0
LINE
8
Black
10
150.206
20
-93.6492
11
149.864
21
-93.7095
0
LINE
8
Black
10
149.864
20
-93.7095
11
149.856
21
-93.7095
0
LINE
8
Black
10
149.856
20
-93.7095
11
149.514
21
-93.6492
0
LINE
8
Black
10
149.514
20
-93.6492
11
149.214
21
-93.4757
0
LINE
8
Black
10
149.214
20
-93.4757
11
148.991
21
-93.2097
0
LINE
8
Black
10
148.991
20
-93.2097
11
148.872
21
-92.8836
0
LINE
8
Black
10
148.872
20
-92.8836
11
148.872
21
-92.5364
0
LINE
8
Black
10
148.872
20
-92.5364
11
148.991
21
-92.2103
0
LINE
8
Black
10
148.991
20
-92.2103
11
149.214
21
-91.9443
0
LINE
8
Black
10
149.214
20
-91.9443
11
149.514
21
-91.7708
0
LINE
8
Black
10
149.514
20
-91.7708
11
149.856
21
-91.7105
0
LINE
8
Black
10
149.856
20
-91.7105
11
149.864
21
-91.7105
0
LINE
8
Black
10
149.864
20
-91.7105
11
150.206
21
-91.7708
  0
ENDSEC
  0
EOF
