  0
SECTION
  2
HEADER
  9
$ANGBASE
  50
0.0
  9
$ANGDIR
  70
  1
  9
$MEASUREMENT
  70
0
  0
ENDSEC
  0
SECTION
  2
TABLES
  0
TABLE
  2
LTYPE
  70
1
  0
LTYPE
  2
CONTINUOUS
  70
0
  3
Solid line
  72
65
  73
0
  40
0.0
  0
ENDTAB
  0
TABLE
  2
STYLE
  70
4
  0
STYLE
  2
KICAD
  70
0
  40
0
  41
1
  42
1
  50
0
  71
0
  3
isocp.shx
  0
STYLE
  2
KICADB
  70
0
  40
0
  41
1
  42
1
  50
0
  71
0
  3
isocp.shx
  0
STYLE
  2
KICADI
  70
0
  40
0
  41
1
  42
1
  50
15
  71
0
  3
isocp.shx
  0
STYLE
  2
KICADBI
  70
0
  40
0
  41
1
  42
1
  50
15
  71
0
  3
isocp.shx
  0
ENDTAB
  0
TABLE
  2
LAYER
  70
30
  0
LAYER
  2
BLACK
  70
0
  62
7
  6
CONTINUOUS
  0
LAYER
  2
GRAY1
  70
0
  62
251
  6
CONTINUOUS
  0
LAYER
  2
GRAY2
  70
0
  62
8
  6
CONTINUOUS
  0
LAYER
  2
GRAY3
  70
0
  62
9
  6
CONTINUOUS
  0
LAYER
  2
WHITE
  70
0
  62
7
  6
CONTINUOUS
  0
LAYER
  2
LYELLOW
  70
0
  62
51
  6
CONTINUOUS
  0
LAYER
  2
BLUE1
  70
0
  62
178
  6
CONTINUOUS
  0
LAYER
  2
GREEN1
  70
0
  62
98
  6
CONTINUOUS
  0
LAYER
  2
CYAN1
  70
0
  62
138
  6
CONTINUOUS
  0
LAYER
  2
RED1
  70
0
  62
18
  6
CONTINUOUS
  0
LAYER
  2
MAGENTA1
  70
0
  62
228
  6
CONTINUOUS
  0
LAYER
  2
BROWN1
  70
0
  62
58
  6
CONTINUOUS
  0
LAYER
  2
BLUE2
  70
0
  62
5
  6
CONTINUOUS
  0
LAYER
  2
GREEN2
  70
0
  62
3
  6
CONTINUOUS
  0
LAYER
  2
CYAN2
  70
0
  62
4
  6
CONTINUOUS
  0
LAYER
  2
RED2
  70
0
  62
1
  6
CONTINUOUS
  0
LAYER
  2
MAGENTA2
  70
0
  62
6
  6
CONTINUOUS
  0
LAYER
  2
BROWN2
  70
0
  62
54
  6
CONTINUOUS
  0
LAYER
  2
BLUE3
  70
0
  62
171
  6
CONTINUOUS
  0
LAYER
  2
GREEN3
  70
0
  62
91
  6
CONTINUOUS
  0
LAYER
  2
CYAN3
  70
0
  62
131
  6
CONTINUOUS
  0
LAYER
  2
RED3
  70
0
  62
11
  6
CONTINUOUS
  0
LAYER
  2
MAGENTA3
  70
0
  62
221
  6
CONTINUOUS
  0
LAYER
  2
YELLOW3
  70
0
  62
2
  6
CONTINUOUS
  0
LAYER
  2
BLUE4
  70
0
  62
5
  6
CONTINUOUS
  0
LAYER
  2
GREEN4
  70
0
  62
3
  6
CONTINUOUS
  0
LAYER
  2
CYAN4
  70
0
  62
4
  6
CONTINUOUS
  0
LAYER
  2
RED4
  70
0
  62
1
  6
CONTINUOUS
  0
LAYER
  2
MAGENTA4
  70
0
  62
6
  6
CONTINUOUS
  0
LAYER
  2
YELLOW4
  70
0
  62
2
  6
CONTINUOUS
  0
ENDTAB
  0
ENDSEC
  0
SECTION
  2
ENTITIES
0
LINE
8
Black
10
144.601
20
-109.749
11
143.101
21
-109.749
0
LINE
8
Black
10
143.101
20
-109.749
11
143.101
21
-109.149
0
LINE
8
Black
10
143.101
20
-109.149
11
144.601
21
-109.149
0
LINE
8
Black
10
144.601
20
-109.149
11
144.601
21
-109.749
0
LINE
8
Black
10
153.901
20
-109.749
11
152.401
21
-109.749
0
LINE
8
Black
10
152.401
20
-109.749
11
152.401
21
-109.149
0
LINE
8
Black
10
152.401
20
-109.149
11
153.901
21
-109.149
0
LINE
8
Black
10
153.901
20
-109.149
11
153.901
21
-109.749
0
LINE
8
Black
10
146.308
20
-89.5417
11
146.312
21
-89.5411
0
LINE
8
Black
10
146.312
20
-89.5411
11
146.372
21
-89.553
0
LINE
8
Black
10
146.372
20
-89.553
11
146.432
21
-89.5636
0
LINE
8
Black
10
146.432
20
-89.5636
11
146.436
21
-89.5656
0
LINE
8
Black
10
146.436
20
-89.5656
11
146.44
21
-89.5663
0
LINE
8
Black
10
146.44
20
-89.5663
11
146.492
21
-89.5981
0
LINE
8
Black
10
146.492
20
-89.5981
11
146.545
21
-89.6287
0
LINE
8
Black
10
146.545
20
-89.6287
11
146.548
21
-89.6317
0
LINE
8
Black
10
146.548
20
-89.6317
11
146.551
21
-89.6338
0
LINE
8
Black
10
146.551
20
-89.6338
11
147.567
21
-90.5228
0
LINE
8
Black
10
147.567
20
-90.5228
11
147.585
21
-90.5453
0
LINE
8
Black
10
147.585
20
-90.5453
11
147.607
21
-90.564
0
LINE
8
Black
10
147.607
20
-90.564
11
147.626
21
-90.5957
0
LINE
8
Black
10
147.626
20
-90.5957
11
147.649
21
-90.6243
0
LINE
8
Black
10
147.649
20
-90.6243
11
147.658
21
-90.6517
0
LINE
8
Black
10
147.658
20
-90.6517
11
147.672
21
-90.6767
0
LINE
8
Black
10
147.672
20
-90.6767
11
147.679
21
-90.7128
0
LINE
8
Black
10
147.679
20
-90.7128
11
147.691
21
-90.7475
0
LINE
8
Black
10
147.691
20
-90.7475
11
147.69
21
-90.7765
0
LINE
8
Black
10
147.69
20
-90.7765
11
147.695
21
-90.805
0
LINE
8
Black
10
147.695
20
-90.805
11
147.695
21
-91.7877
0
LINE
8
Black
10
147.695
20
-91.7877
11
147.966
21
-91.9443
0
LINE
8
Black
10
147.966
20
-91.9443
11
148.189
21
-92.2103
0
LINE
8
Black
10
148.189
20
-92.2103
11
148.308
21
-92.5364
0
LINE
8
Black
10
148.308
20
-92.5364
11
148.308
21
-92.8836
0
LINE
8
Black
10
148.308
20
-92.8836
11
148.189
21
-93.2097
0
LINE
8
Black
10
148.189
20
-93.2097
11
147.966
21
-93.4757
0
LINE
8
Black
10
147.966
20
-93.4757
11
147.695
21
-93.6323
0
LINE
8
Black
10
147.695
20
-93.6323
11
147.695
21
-95.0947
0
LINE
8
Black
10
147.695
20
-95.0947
11
150.015
21
-97.415
0
LINE
8
Black
10
150.015
20
-97.415
11
153.67
21
-97.415
0
LINE
8
Black
10
153.67
20
-97.415
11
153.714
21
-97.4228
0
LINE
8
Black
10
153.714
20
-97.4228
11
153.759
21
-97.4257
0
LINE
8
Black
10
153.759
20
-97.4257
11
153.778
21
-97.434
0
LINE
8
Black
10
153.778
20
-97.434
11
153.798
21
-97.4376
0
LINE
8
Black
10
153.798
20
-97.4376
11
153.837
21
-97.46
0
LINE
8
Black
10
153.837
20
-97.46
11
153.878
21
-97.478
0
LINE
8
Black
10
153.878
20
-97.478
11
157.02
21
-99.5726
0
LINE
8
Black
10
157.02
20
-99.5726
11
157.02
21
-99.48
0
LINE
8
Black
10
157.02
20
-99.48
11
159.02
21
-99.48
0
LINE
8
Black
10
159.02
20
-99.48
11
159.02
21
-101.18
0
LINE
8
Black
10
159.02
20
-101.18
11
158.395
21
-101.18
0
LINE
8
Black
10
158.395
20
-101.18
11
158.395
21
-103.29
0
LINE
8
Black
10
158.395
20
-103.29
11
159.02
21
-103.29
0
LINE
8
Black
10
159.02
20
-103.29
11
159.02
21
-104.99
0
LINE
8
Black
10
159.02
20
-104.99
11
157.02
21
-104.99
0
LINE
8
Black
10
157.02
20
-104.99
11
157.02
21
-103.29
0
LINE
8
Black
10
157.02
20
-103.29
11
157.645
21
-103.29
0
LINE
8
Black
10
157.645
20
-103.29
11
157.645
21
-101.18
0
LINE
8
Black
10
157.645
20
-101.18
11
157.02
21
-101.18
0
LINE
8
Black
10
157.02
20
-101.18
11
157.02
21
-100.474
0
LINE
8
Black
10
157.02
20
-100.474
11
153.556
21
-98.165
0
LINE
8
Black
10
153.556
20
-98.165
11
149.86
21
-98.165
0
LINE
8
Black
10
149.86
20
-98.165
11
149.844
21
-98.1621
0
LINE
8
Black
10
149.844
20
-98.1621
11
149.827
21
-98.1636
0
LINE
8
Black
10
149.827
20
-98.1636
11
149.78
21
-98.1509
0
LINE
8
Black
10
149.78
20
-98.1509
11
149.732
21
-98.1424
0
LINE
8
Black
10
149.732
20
-98.1424
11
149.717
21
-98.1341
0
LINE
8
Black
10
149.717
20
-98.1341
11
149.702
21
-98.1299
0
LINE
8
Black
10
149.702
20
-98.1299
11
149.661
21
-98.1018
0
LINE
8
Black
10
149.661
20
-98.1018
11
149.619
21
-98.0773
0
LINE
8
Black
10
149.619
20
-98.0773
11
149.608
21
-98.0646
0
LINE
8
Black
10
149.608
20
-98.0646
11
149.595
21
-98.0552
0
LINE
8
Black
10
149.595
20
-98.0552
11
147.055
21
-95.5152
0
LINE
8
Black
10
147.055
20
-95.5152
11
147.045
21
-95.5016
0
LINE
8
Black
10
147.045
20
-95.5016
11
147.033
21
-95.491
0
LINE
8
Black
10
147.033
20
-95.491
11
147.008
21
-95.4486
0
LINE
8
Black
10
147.008
20
-95.4486
11
146.98
21
-95.4085
0
LINE
8
Black
10
146.98
20
-95.4085
11
146.976
21
-95.3925
0
LINE
8
Black
10
146.976
20
-95.3925
11
146.968
21
-95.3783
0
LINE
8
Black
10
146.968
20
-95.3783
11
146.959
21
-95.33
0
LINE
8
Black
10
146.959
20
-95.33
11
146.946
21
-95.2827
0
LINE
8
Black
10
146.946
20
-95.2827
11
146.948
21
-95.2662
0
LINE
8
Black
10
146.948
20
-95.2662
11
146.945
21
-95.25
0
LINE
8
Black
10
146.945
20
-95.25
11
146.945
21
-93.6323
0
LINE
8
Black
10
146.945
20
-93.6323
11
146.674
21
-93.4757
0
LINE
8
Black
10
146.674
20
-93.4757
11
146.451
21
-93.2097
0
LINE
8
Black
10
146.451
20
-93.2097
11
146.332
21
-92.8836
0
LINE
8
Black
10
146.332
20
-92.8836
11
146.332
21
-92.5364
0
LINE
8
Black
10
146.332
20
-92.5364
11
146.451
21
-92.2103
0
LINE
8
Black
10
146.451
20
-92.2103
11
146.674
21
-91.9443
0
LINE
8
Black
10
146.674
20
-91.9443
11
146.945
21
-91.7877
0
LINE
8
Black
10
146.945
20
-91.7877
11
146.945
21
-90.9752
0
LINE
8
Black
10
146.945
20
-90.9752
11
146.163
21
-90.291
0
LINE
8
Black
10
146.163
20
-90.291
11
142.898
21
-90.291
0
LINE
8
Black
10
142.898
20
-90.291
11
137.535
21
-95.4105
0
LINE
8
Black
10
137.535
20
-95.4105
11
137.535
21
-105.985
0
LINE
8
Black
10
137.535
20
-105.985
11
139.23
21
-107.68
0
LINE
8
Black
10
139.23
20
-107.68
11
140.5
21
-107.68
0
LINE
8
Black
10
140.5
20
-107.68
11
140.5
21
-108.305
0
LINE
8
Black
10
140.5
20
-108.305
11
141.101
21
-108.305
0
LINE
8
Black
10
141.101
20
-108.305
11
141.492
21
-107.913
0
LINE
8
Black
10
141.492
20
-107.913
11
141.506
21
-107.904
0
LINE
8
Black
10
141.506
20
-107.904
11
141.516
21
-107.891
0
LINE
8
Black
10
141.516
20
-107.891
11
141.559
21
-107.867
0
LINE
8
Black
10
141.559
20
-107.867
11
141.599
21
-107.839
0
LINE
8
Black
10
141.599
20
-107.839
11
141.615
21
-107.834
0
LINE
8
Black
10
141.615
20
-107.834
11
141.629
21
-107.826
0
LINE
8
Black
10
141.629
20
-107.826
11
141.677
21
-107.818
0
LINE
8
Black
10
141.677
20
-107.818
11
141.725
21
-107.805
0
LINE
8
Black
10
141.725
20
-107.805
11
141.741
21
-107.806
0
LINE
8
Black
10
141.741
20
-107.806
11
141.757
21
-107.804
0
LINE
8
Black
10
141.757
20
-107.804
11
143.851
21
-107.804
0
LINE
8
Black
10
143.851
20
-107.804
11
143.979
21
-107.826
0
LINE
8
Black
10
143.979
20
-107.826
11
144.07
21
-107.879
0
LINE
8
Black
10
144.07
20
-107.879
11
144.601
21
-107.879
0
LINE
8
Black
10
144.601
20
-107.879
11
144.601
21
-108.479
0
LINE
8
Black
10
144.601
20
-108.479
11
144.07
21
-108.479
0
LINE
8
Black
10
144.07
20
-108.479
11
143.979
21
-108.531
0
LINE
8
Black
10
143.979
20
-108.531
11
143.851
21
-108.554
0
LINE
8
Black
10
143.851
20
-108.554
11
141.913
21
-108.554
0
LINE
8
Black
10
141.913
20
-108.554
11
141.521
21
-108.945
0
LINE
8
Black
10
141.521
20
-108.945
11
141.508
21
-108.955
0
LINE
8
Black
10
141.508
20
-108.955
11
141.497
21
-108.967
0
LINE
8
Black
10
141.497
20
-108.967
11
141.455
21
-108.992
0
LINE
8
Black
10
141.455
20
-108.992
11
141.414
21
-109.02
0
LINE
8
Black
10
141.414
20
-109.02
11
141.399
21
-109.024
0
LINE
8
Black
10
141.399
20
-109.024
11
141.384
21
-109.032
0
LINE
8
Black
10
141.384
20
-109.032
11
141.336
21
-109.041
0
LINE
8
Black
10
141.336
20
-109.041
11
141.289
21
-109.054
0
LINE
8
Black
10
141.289
20
-109.054
11
141.272
21
-109.052
0
LINE
8
Black
10
141.272
20
-109.052
11
141.256
21
-109.055
0
LINE
8
Black
10
141.256
20
-109.055
11
140.5
21
-109.055
0
LINE
8
Black
10
140.5
20
-109.055
11
140.5
21
-109.68
0
LINE
8
Black
10
140.5
20
-109.68
11
138.9
21
-109.68
0
LINE
8
Black
10
138.9
20
-109.68
11
138.9
21
-108.41
0
LINE
8
Black
10
138.9
20
-108.41
11
136.895
21
-106.405
0
LINE
8
Black
10
136.895
20
-106.405
11
136.885
21
-106.392
0
LINE
8
Black
10
136.885
20
-106.392
11
136.873
21
-106.381
0
LINE
8
Black
10
136.873
20
-106.381
11
136.848
21
-106.339
0
LINE
8
Black
10
136.848
20
-106.339
11
136.82
21
-106.298
0
LINE
8
Black
10
136.82
20
-106.298
11
136.816
21
-106.283
0
LINE
8
Black
10
136.816
20
-106.283
11
136.808
21
-106.268
0
LINE
8
Black
10
136.808
20
-106.268
11
136.799
21
-106.22
0
LINE
8
Black
10
136.799
20
-106.22
11
136.786
21
-106.173
0
LINE
8
Black
10
136.786
20
-106.173
11
136.788
21
-106.156
0
LINE
8
Black
10
136.788
20
-106.156
11
136.785
21
-106.14
0
LINE
8
Black
10
136.785
20
-106.14
11
136.785
21
-95.25
0
LINE
8
Black
10
136.785
20
-95.25
11
136.789
21
-95.2295
0
LINE
8
Black
10
136.789
20
-95.2295
11
136.787
21
-95.2086
0
LINE
8
Black
10
136.787
20
-95.2086
11
136.8
21
-95.1658
0
LINE
8
Black
10
136.8
20
-95.1658
11
136.808
21
-95.1217
0
LINE
8
Black
10
136.808
20
-95.1217
11
136.818
21
-95.1037
0
LINE
8
Black
10
136.818
20
-95.1037
11
136.824
21
-95.0837
0
LINE
8
Black
10
136.824
20
-95.0837
11
136.85
21
-95.0477
0
LINE
8
Black
10
136.85
20
-95.0477
11
136.873
21
-95.009
0
LINE
8
Black
10
136.873
20
-95.009
11
136.889
21
-94.9955
0
LINE
8
Black
10
136.889
20
-94.9955
11
136.901
21
-94.9787
0
LINE
8
Black
10
136.901
20
-94.9787
11
142.489
21
-89.6447
0
LINE
8
Black
10
142.489
20
-89.6447
11
142.499
21
-89.638
0
LINE
8
Black
10
142.499
20
-89.638
11
142.507
21
-89.6287
0
LINE
8
Black
10
142.507
20
-89.6287
11
142.553
21
-89.6021
0
LINE
8
Black
10
142.553
20
-89.6021
11
142.597
21
-89.5725
0
LINE
8
Black
10
142.597
20
-89.5725
11
142.609
21
-89.5697
0
LINE
8
Black
10
142.609
20
-89.5697
11
142.62
21
-89.5636
0
LINE
8
Black
10
142.62
20
-89.5636
11
142.672
21
-89.5544
0
LINE
8
Black
10
142.672
20
-89.5544
11
142.724
21
-89.5418
0
LINE
8
Black
10
142.724
20
-89.5418
11
142.736
21
-89.5431
0
LINE
8
Black
10
142.736
20
-89.5431
11
142.748
21
-89.541
0
LINE
8
Black
10
142.748
20
-89.541
11
146.304
21
-89.541
0
LINE
8
Black
10
146.304
20
-89.541
11
146.308
21
-89.5417
0
LINE
8
Black
10
165.472
20
-102.886
11
165.474
21
-102.903
0
LINE
8
Black
10
165.474
20
-102.903
11
165.461
21
-102.95
0
LINE
8
Black
10
165.461
20
-102.95
11
165.452
21
-102.998
0
LINE
8
Black
10
165.452
20
-102.998
11
165.444
21
-103.013
0
LINE
8
Black
10
165.444
20
-103.013
11
165.44
21
-103.028
0
LINE
8
Black
10
165.44
20
-103.028
11
165.412
21
-103.069
0
LINE
8
Black
10
165.412
20
-103.069
11
165.387
21
-103.111
0
LINE
8
Black
10
165.387
20
-103.111
11
165.375
21
-103.122
0
LINE
8
Black
10
165.375
20
-103.122
11
165.365
21
-103.135
0
LINE
8
Black
10
165.365
20
-103.135
11
164.095
21
-104.405
0
LINE
8
Black
10
164.095
20
-104.405
11
164.082
21
-104.415
0
LINE
8
Black
10
164.082
20
-104.415
11
164.071
21
-104.427
0
LINE
8
Black
10
164.071
20
-104.427
11
164.029
21
-104.452
0
LINE
8
Black
10
164.029
20
-104.452
11
163.988
21
-104.48
0
LINE
8
Black
10
163.988
20
-104.48
11
163.973
21
-104.484
0
LINE
8
Black
10
163.973
20
-104.484
11
163.958
21
-104.492
0
LINE
8
Black
10
163.958
20
-104.492
11
163.91
21
-104.501
0
LINE
8
Black
10
163.91
20
-104.501
11
163.863
21
-104.514
0
LINE
8
Black
10
163.863
20
-104.514
11
163.846
21
-104.512
0
LINE
8
Black
10
163.846
20
-104.512
11
163.83
21
-104.515
0
LINE
8
Black
10
163.83
20
-104.515
11
163.02
21
-104.515
0
LINE
8
Black
10
163.02
20
-104.515
11
163.02
21
-104.99
0
LINE
8
Black
10
163.02
20
-104.99
11
162.395
21
-104.99
0
LINE
8
Black
10
162.395
20
-104.99
11
162.395
21
-105.95
0
LINE
8
Black
10
162.395
20
-105.95
11
162.392
21
-105.966
0
LINE
8
Black
10
162.392
20
-105.966
11
162.394
21
-105.983
0
LINE
8
Black
10
162.394
20
-105.983
11
162.381
21
-106.03
0
LINE
8
Black
10
162.381
20
-106.03
11
162.372
21
-106.078
0
LINE
8
Black
10
162.372
20
-106.078
11
162.364
21
-106.093
0
LINE
8
Black
10
162.364
20
-106.093
11
162.36
21
-106.108
0
LINE
8
Black
10
162.36
20
-106.108
11
162.332
21
-106.149
0
LINE
8
Black
10
162.332
20
-106.149
11
162.307
21
-106.191
0
LINE
8
Black
10
162.307
20
-106.191
11
162.295
21
-106.202
0
LINE
8
Black
10
162.295
20
-106.202
11
162.285
21
-106.215
0
LINE
8
Black
10
162.285
20
-106.215
11
160.057
21
-108.444
0
LINE
8
Black
10
160.057
20
-108.444
11
160.043
21
-108.453
0
LINE
8
Black
10
160.043
20
-108.453
11
160.032
21
-108.466
0
LINE
8
Black
10
160.032
20
-108.466
11
159.99
21
-108.49
0
LINE
8
Black
10
159.99
20
-108.49
11
159.95
21
-108.518
0
LINE
8
Black
10
159.95
20
-108.518
11
159.934
21
-108.523
0
LINE
8
Black
10
159.934
20
-108.523
11
159.92
21
-108.531
0
LINE
8
Black
10
159.92
20
-108.531
11
159.871
21
-108.539
0
LINE
8
Black
10
159.871
20
-108.539
11
159.824
21
-108.552
0
LINE
8
Black
10
159.824
20
-108.552
11
159.808
21
-108.551
0
LINE
8
Black
10
159.808
20
-108.551
11
159.791
21
-108.554
0
LINE
8
Black
10
159.791
20
-108.554
11
153.151
21
-108.554
0
LINE
8
Black
10
153.151
20
-108.554
11
153.023
21
-108.531
0
LINE
8
Black
10
153.023
20
-108.531
11
152.932
21
-108.479
0
LINE
8
Black
10
152.932
20
-108.479
11
152.401
21
-108.479
0
LINE
8
Black
10
152.401
20
-108.479
11
152.401
21
-107.879
0
LINE
8
Black
10
152.401
20
-107.879
11
152.932
21
-107.879
0
LINE
8
Black
10
152.932
20
-107.879
11
153.023
21
-107.826
0
LINE
8
Black
10
153.023
20
-107.826
11
153.151
21
-107.804
0
LINE
8
Black
10
153.151
20
-107.804
11
159.636
21
-107.804
0
LINE
8
Black
10
159.636
20
-107.804
11
161.645
21
-105.795
0
LINE
8
Black
10
161.645
20
-105.795
11
161.645
21
-104.99
0
LINE
8
Black
10
161.645
20
-104.99
11
161.02
21
-104.99
0
LINE
8
Black
10
161.02
20
-104.99
11
161.02
21
-103.29
0
LINE
8
Black
10
161.02
20
-103.29
11
163.02
21
-103.29
0
LINE
8
Black
10
163.02
20
-103.29
11
163.02
21
-103.765
0
LINE
8
Black
10
163.02
20
-103.765
11
163.675
21
-103.765
0
LINE
8
Black
10
163.675
20
-103.765
11
164.725
21
-102.715
0
LINE
8
Black
10
164.725
20
-102.715
11
164.725
21
-99.2153
0
LINE
8
Black
10
164.725
20
-99.2153
11
161.135
21
-95.625
0
LINE
8
Black
10
161.135
20
-95.625
11
153.67
21
-95.625
0
LINE
8
Black
10
153.67
20
-95.625
11
153.654
21
-95.6221
0
LINE
8
Black
10
153.654
20
-95.6221
11
153.637
21
-95.6236
0
LINE
8
Black
10
153.637
20
-95.6236
11
153.59
21
-95.6109
0
LINE
8
Black
10
153.59
20
-95.6109
11
153.542
21
-95.6024
0
LINE
8
Black
10
153.542
20
-95.6024
11
153.527
21
-95.5941
0
LINE
8
Black
10
153.527
20
-95.5941
11
153.512
21
-95.5899
0
LINE
8
Black
10
153.512
20
-95.5899
11
153.471
21
-95.5618
0
LINE
8
Black
10
153.471
20
-95.5618
11
153.429
21
-95.5373
0
LINE
8
Black
10
153.429
20
-95.5373
11
153.418
21
-95.5246
0
LINE
8
Black
10
153.418
20
-95.5246
11
153.405
21
-95.5152
0
LINE
8
Black
10
153.405
20
-95.5152
11
152.135
21
-94.2452
0
LINE
8
Black
10
152.135
20
-94.2452
11
152.125
21
-94.2317
0
LINE
8
Black
10
152.125
20
-94.2317
11
152.113
21
-94.221
0
LINE
8
Black
10
152.113
20
-94.221
11
152.088
21
-94.1786
0
LINE
8
Black
10
152.088
20
-94.1786
11
152.06
21
-94.1385
0
LINE
8
Black
10
152.06
20
-94.1385
11
152.056
21
-94.1225
0
LINE
8
Black
10
152.056
20
-94.1225
11
152.048
21
-94.1083
0
LINE
8
Black
10
152.048
20
-94.1083
11
152.039
21
-94.06
0
LINE
8
Black
10
152.039
20
-94.06
11
152.026
21
-94.0127
0
LINE
8
Black
10
152.026
20
-94.0127
11
152.028
21
-93.9962
0
LINE
8
Black
10
152.028
20
-93.9962
11
152.025
21
-93.98
0
LINE
8
Black
10
152.025
20
-93.98
11
152.025
21
-93.6323
0
LINE
8
Black
10
152.025
20
-93.6323
11
151.754
21
-93.4757
0
LINE
8
Black
10
151.754
20
-93.4757
11
151.531
21
-93.2097
0
LINE
8
Black
10
151.531
20
-93.2097
11
151.412
21
-92.8836
0
LINE
8
Black
10
151.412
20
-92.8836
11
151.412
21
-92.5364
0
LINE
8
Black
10
151.412
20
-92.5364
11
151.531
21
-92.2103
0
LINE
8
Black
10
151.531
20
-92.2103
11
151.754
21
-91.9443
0
LINE
8
Black
10
151.754
20
-91.9443
11
152.054
21
-91.7708
0
LINE
8
Black
10
152.054
20
-91.7708
11
152.396
21
-91.7105
0
LINE
8
Black
10
152.396
20
-91.7105
11
152.404
21
-91.7105
0
LINE
8
Black
10
152.404
20
-91.7105
11
152.746
21
-91.7708
0
LINE
8
Black
10
152.746
20
-91.7708
11
153.046
21
-91.9443
0
LINE
8
Black
10
153.046
20
-91.9443
11
153.269
21
-92.2103
0
LINE
8
Black
10
153.269
20
-92.2103
11
153.388
21
-92.5364
0
LINE
8
Black
10
153.388
20
-92.5364
11
153.388
21
-92.8836
0
LINE
8
Black
10
153.388
20
-92.8836
11
153.269
21
-93.2097
0
LINE
8
Black
10
153.269
20
-93.2097
11
153.046
21
-93.4757
0
LINE
8
Black
10
153.046
20
-93.4757
11
152.775
21
-93.6323
0
LINE
8
Black
10
152.775
20
-93.6323
11
152.775
21
-93.8247
0
LINE
8
Black
10
152.775
20
-93.8247
11
153.825
21
-94.875
0
LINE
8
Black
10
153.825
20
-94.875
11
161.29
21
-94.875
0
LINE
8
Black
10
161.29
20
-94.875
11
161.306
21
-94.8779
0
LINE
8
Black
10
161.306
20
-94.8779
11
161.323
21
-94.8764
0
LINE
8
Black
10
161.323
20
-94.8764
11
161.37
21
-94.8891
0
LINE
8
Black
10
161.37
20
-94.8891
11
161.418
21
-94.8976
0
LINE
8
Black
10
161.418
20
-94.8976
11
161.433
21
-94.9059
0
LINE
8
Black
10
161.433
20
-94.9059
11
161.448
21
-94.9101
0
LINE
8
Black
10
161.448
20
-94.9101
11
161.489
21
-94.9382
0
LINE
8
Black
10
161.489
20
-94.9382
11
161.531
21
-94.9627
0
LINE
8
Black
10
161.531
20
-94.9627
11
161.542
21
-94.9754
0
LINE
8
Black
10
161.542
20
-94.9754
11
161.555
21
-94.9848
0
LINE
8
Black
10
161.555
20
-94.9848
11
165.365
21
-98.7948
0
LINE
8
Black
10
165.365
20
-98.7948
11
165.375
21
-98.8083
0
LINE
8
Black
10
165.375
20
-98.8083
11
165.387
21
-98.819
0
LINE
8
Black
10
165.387
20
-98.819
11
165.412
21
-98.8614
0
LINE
8
Black
10
165.412
20
-98.8614
11
165.44
21
-98.9015
0
LINE
8
Black
10
165.44
20
-98.9015
11
165.444
21
-98.9175
0
LINE
8
Black
10
165.444
20
-98.9175
11
165.452
21
-98.9317
0
LINE
8
Black
10
165.452
20
-98.9317
11
165.461
21
-98.98
0
LINE
8
Black
10
165.461
20
-98.98
11
165.474
21
-99.0273
0
LINE
8
Black
10
165.474
20
-99.0273
11
165.472
21
-99.0438
0
LINE
8
Black
10
165.472
20
-99.0438
11
165.475
21
-99.06
0
LINE
8
Black
10
165.475
20
-99.06
11
165.475
21
-102.87
0
LINE
8
Black
10
165.475
20
-102.87
11
165.472
21
-102.886
0
LINE
8
Black
10
150.206
20
-91.7708
11
150.506
21
-91.9443
0
LINE
8
Black
10
150.506
20
-91.9443
11
150.729
21
-92.2103
0
LINE
8
Black
10
150.729
20
-92.2103
11
150.848
21
-92.5364
0
LINE
8
Black
10
150.848
20
-92.5364
11
150.848
21
-92.8836
0
LINE
8
Black
10
150.848
20
-92.8836
11
150.729
21
-93.2097
0
LINE
8
Black
10
150.729
20
-93.2097
11
150.506
21
-93.4757
0
LINE
8
Black
10
150.506
20
-93.4757
11
150.235
21
-93.6323
0
LINE
8
Black
10
150.235
20
-93.6323
11
150.235
21
-93.8247
0
LINE
8
Black
10
150.235
20
-93.8247
11
152.555
21
-96.145
0
LINE
8
Black
10
152.555
20
-96.145
11
158.75
21
-96.145
0
LINE
8
Black
10
158.75
20
-96.145
11
158.766
21
-96.1479
0
LINE
8
Black
10
158.766
20
-96.1479
11
158.783
21
-96.1464
0
LINE
8
Black
10
158.783
20
-96.1464
11
158.83
21
-96.1591
0
LINE
8
Black
10
158.83
20
-96.1591
11
158.878
21
-96.1676
0
LINE
8
Black
10
158.878
20
-96.1676
11
158.893
21
-96.1759
0
LINE
8
Black
10
158.893
20
-96.1759
11
158.908
21
-96.1801
0
LINE
8
Black
10
158.908
20
-96.1801
11
158.949
21
-96.2082
0
LINE
8
Black
10
158.949
20
-96.2082
11
158.991
21
-96.2327
0
LINE
8
Black
10
158.991
20
-96.2327
11
159.002
21
-96.2454
0
LINE
8
Black
10
159.002
20
-96.2454
11
159.015
21
-96.2548
0
LINE
8
Black
10
159.015
20
-96.2548
11
162.24
21
-99.48
0
LINE
8
Black
10
162.24
20
-99.48
11
163.02
21
-99.48
0
LINE
8
Black
10
163.02
20
-99.48
11
163.02
21
-101.18
0
LINE
8
Black
10
163.02
20
-101.18
11
161.7
21
-101.18
0
LINE
8
Black
10
161.7
20
-101.18
11
160.395
21
-102.485
0
LINE
8
Black
10
160.395
20
-102.485
11
160.395
21
-105.41
0
LINE
8
Black
10
160.395
20
-105.41
11
160.392
21
-105.426
0
LINE
8
Black
10
160.392
20
-105.426
11
160.394
21
-105.443
0
LINE
8
Black
10
160.394
20
-105.443
11
160.381
21
-105.49
0
LINE
8
Black
10
160.381
20
-105.49
11
160.372
21
-105.538
0
LINE
8
Black
10
160.372
20
-105.538
11
160.364
21
-105.553
0
LINE
8
Black
10
160.364
20
-105.553
11
160.36
21
-105.568
0
LINE
8
Black
10
160.36
20
-105.568
11
160.332
21
-105.609
0
LINE
8
Black
10
160.332
20
-105.609
11
160.307
21
-105.651
0
LINE
8
Black
10
160.307
20
-105.651
11
160.295
21
-105.662
0
LINE
8
Black
10
160.295
20
-105.662
11
160.285
21
-105.675
0
LINE
8
Black
10
160.285
20
-105.675
11
158.787
21
-107.174
0
LINE
8
Black
10
158.787
20
-107.174
11
158.773
21
-107.183
0
LINE
8
Black
10
158.773
20
-107.183
11
158.762
21
-107.196
0
LINE
8
Black
10
158.762
20
-107.196
11
158.72
21
-107.22
0
LINE
8
Black
10
158.72
20
-107.22
11
158.68
21
-107.248
0
LINE
8
Black
10
158.68
20
-107.248
11
158.664
21
-107.253
0
LINE
8
Black
10
158.664
20
-107.253
11
158.65
21
-107.261
0
LINE
8
Black
10
158.65
20
-107.261
11
158.601
21
-107.269
0
LINE
8
Black
10
158.601
20
-107.269
11
158.554
21
-107.282
0
LINE
8
Black
10
158.554
20
-107.282
11
158.538
21
-107.281
0
LINE
8
Black
10
158.538
20
-107.281
11
158.521
21
-107.284
0
LINE
8
Black
10
158.521
20
-107.284
11
153.151
21
-107.284
0
LINE
8
Black
10
153.151
20
-107.284
11
153.023
21
-107.261
0
LINE
8
Black
10
153.023
20
-107.261
11
152.932
21
-107.209
0
LINE
8
Black
10
152.932
20
-107.209
11
152.401
21
-107.209
0
LINE
8
Black
10
152.401
20
-107.209
11
152.401
21
-106.609
0
LINE
8
Black
10
152.401
20
-106.609
11
152.932
21
-106.609
0
LINE
8
Black
10
152.932
20
-106.609
11
153.023
21
-106.556
0
LINE
8
Black
10
153.023
20
-106.556
11
153.151
21
-106.534
0
LINE
8
Black
10
153.151
20
-106.534
11
158.366
21
-106.534
0
LINE
8
Black
10
158.366
20
-106.534
11
159.645
21
-105.255
0
LINE
8
Black
10
159.645
20
-105.255
11
159.645
21
-102.33
0
LINE
8
Black
10
159.645
20
-102.33
11
159.648
21
-102.314
0
LINE
8
Black
10
159.648
20
-102.314
11
159.646
21
-102.297
0
LINE
8
Black
10
159.646
20
-102.297
11
159.659
21
-102.25
0
LINE
8
Black
10
159.659
20
-102.25
11
159.668
21
-102.202
0
LINE
8
Black
10
159.668
20
-102.202
11
159.676
21
-102.187
0
LINE
8
Black
10
159.676
20
-102.187
11
159.68
21
-102.172
0
LINE
8
Black
10
159.68
20
-102.172
11
159.708
21
-102.131
0
LINE
8
Black
10
159.708
20
-102.131
11
159.733
21
-102.089
0
LINE
8
Black
10
159.733
20
-102.089
11
159.745
21
-102.078
0
LINE
8
Black
10
159.745
20
-102.078
11
159.755
21
-102.065
0
LINE
8
Black
10
159.755
20
-102.065
11
161.02
21
-100.8
0
LINE
8
Black
10
161.02
20
-100.8
11
161.02
21
-99.48
0
LINE
8
Black
10
161.02
20
-99.48
11
161.18
21
-99.48
0
LINE
8
Black
10
161.18
20
-99.48
11
158.595
21
-96.895
0
LINE
8
Black
10
158.595
20
-96.895
11
152.4
21
-96.895
0
LINE
8
Black
10
152.4
20
-96.895
11
152.384
21
-96.8921
0
LINE
8
Black
10
152.384
20
-96.8921
11
152.367
21
-96.8936
0
LINE
8
Black
10
152.367
20
-96.8936
11
152.32
21
-96.8809
0
LINE
8
Black
10
152.32
20
-96.8809
11
152.272
21
-96.8724
0
LINE
8
Black
10
152.272
20
-96.8724
11
152.257
21
-96.8641
0
LINE
8
Black
10
152.257
20
-96.8641
11
152.242
21
-96.8599
0
LINE
8
Black
10
152.242
20
-96.8599
11
152.201
21
-96.8318
0
LINE
8
Black
10
152.201
20
-96.8318
11
152.159
21
-96.8073
0
LINE
8
Black
10
152.159
20
-96.8073
11
152.148
21
-96.7946
0
LINE
8
Black
10
152.148
20
-96.7946
11
152.135
21
-96.7852
0
LINE
8
Black
10
152.135
20
-96.7852
11
149.595
21
-94.2452
0
LINE
8
Black
10
149.595
20
-94.2452
11
149.585
21
-94.2317
0
LINE
8
Black
10
149.585
20
-94.2317
11
149.573
21
-94.221
0
LINE
8
Black
10
149.573
20
-94.221
11
149.548
21
-94.1786
0
LINE
8
Black
10
149.548
20
-94.1786
11
149.52
21
-94.1385
0
LINE
8
Black
10
149.52
20
-94.1385
11
149.516
21
-94.1225
0
LINE
8
Black
10
149.516
20
-94.1225
11
149.508
21
-94.1083
0
LINE
8
Black
10
149.508
20
-94.1083
11
149.499
21
-94.06
0
LINE
8
Black
10
149.499
20
-94.06
11
149.486
21
-94.0127
0
LINE
8
Black
10
149.486
20
-94.0127
11
149.488
21
-93.9962
0
LINE
8
Black
10
149.488
20
-93.9962
11
149.485
21
-93.98
0
LINE
8
Black
10
149.485
20
-93.98
11
149.485
21
-93.6323
0
LINE
8
Black
10
149.485
20
-93.6323
11
149.214
21
-93.4757
0
LINE
8
Black
10
149.214
20
-93.4757
11
148.991
21
-93.2097
0
LINE
8
Black
10
148.991
20
-93.2097
11
148.872
21
-92.8836
0
LINE
8
Black
10
148.872
20
-92.8836
11
148.872
21
-92.5364
0
LINE
8
Black
10
148.872
20
-92.5364
11
148.991
21
-92.2103
0
LINE
8
Black
10
148.991
20
-92.2103
11
149.214
21
-91.9443
0
LINE
8
Black
10
149.214
20
-91.9443
11
149.514
21
-91.7708
0
LINE
8
Black
10
149.514
20
-91.7708
11
149.856
21
-91.7105
0
LINE
8
Black
10
149.856
20
-91.7105
11
149.864
21
-91.7105
0
LINE
8
Black
10
149.864
20
-91.7105
11
150.206
21
-91.7708
0
LINE
8
Black
10
145.779
20
-93.7095
11
144.311
21
-93.7095
0
LINE
8
Black
10
144.311
20
-93.7095
11
140.075
21
-97.9453
0
LINE
8
Black
10
140.075
20
-97.9453
11
140.075
21
-103.68
0
LINE
8
Black
10
140.075
20
-103.68
11
140.5
21
-103.68
0
LINE
8
Black
10
140.5
20
-103.68
11
140.5
21
-104.411
0
LINE
8
Black
10
140.5
20
-104.411
11
140.505
21
-104.415
0
LINE
8
Black
10
140.505
20
-104.415
11
142.624
21
-106.534
0
LINE
8
Black
10
142.624
20
-106.534
11
143.851
21
-106.534
0
LINE
8
Black
10
143.851
20
-106.534
11
143.979
21
-106.556
0
LINE
8
Black
10
143.979
20
-106.556
11
144.07
21
-106.609
0
LINE
8
Black
10
144.07
20
-106.609
11
144.601
21
-106.609
0
LINE
8
Black
10
144.601
20
-106.609
11
144.601
21
-107.209
0
LINE
8
Black
10
144.601
20
-107.209
11
144.07
21
-107.209
0
LINE
8
Black
10
144.07
20
-107.209
11
143.979
21
-107.261
0
LINE
8
Black
10
143.979
20
-107.261
11
143.851
21
-107.284
0
LINE
8
Black
10
143.851
20
-107.284
11
142.469
21
-107.284
0
LINE
8
Black
10
142.469
20
-107.284
11
142.452
21
-107.281
0
LINE
8
Black
10
142.452
20
-107.281
11
142.436
21
-107.282
0
LINE
8
Black
10
142.436
20
-107.282
11
142.389
21
-107.269
0
LINE
8
Black
10
142.389
20
-107.269
11
142.34
21
-107.261
0
LINE
8
Black
10
142.34
20
-107.261
11
142.326
21
-107.253
0
LINE
8
Black
10
142.326
20
-107.253
11
142.31
21
-107.248
0
LINE
8
Black
10
142.31
20
-107.248
11
142.27
21
-107.22
0
LINE
8
Black
10
142.27
20
-107.22
11
142.228
21
-107.196
0
LINE
8
Black
10
142.228
20
-107.196
11
142.217
21
-107.183
0
LINE
8
Black
10
142.217
20
-107.183
11
142.203
21
-107.174
0
LINE
8
Black
10
142.203
20
-107.174
11
140.5
21
-105.47
0
LINE
8
Black
10
140.5
20
-105.47
11
140.5
21
-105.68
0
LINE
8
Black
10
140.5
20
-105.68
11
138.9
21
-105.68
0
LINE
8
Black
10
138.9
20
-105.68
11
138.9
21
-103.68
0
LINE
8
Black
10
138.9
20
-103.68
11
139.325
21
-103.68
0
LINE
8
Black
10
139.325
20
-103.68
11
139.325
21
-97.79
0
LINE
8
Black
10
139.325
20
-97.79
11
139.328
21
-97.7738
0
LINE
8
Black
10
139.328
20
-97.7738
11
139.326
21
-97.7573
0
LINE
8
Black
10
139.326
20
-97.7573
11
139.339
21
-97.71
0
LINE
8
Black
10
139.339
20
-97.71
11
139.348
21
-97.6617
0
LINE
8
Black
10
139.348
20
-97.6617
11
139.356
21
-97.6475
0
LINE
8
Black
10
139.356
20
-97.6475
11
139.36
21
-97.6315
0
LINE
8
Black
10
139.36
20
-97.6315
11
139.388
21
-97.5914
0
LINE
8
Black
10
139.388
20
-97.5914
11
139.413
21
-97.549
0
LINE
8
Black
10
139.413
20
-97.549
11
139.425
21
-97.5383
0
LINE
8
Black
10
139.425
20
-97.5383
11
139.435
21
-97.5248
0
LINE
8
Black
10
139.435
20
-97.5248
11
143.781
21
-93.1792
0
LINE
8
Black
10
143.781
20
-93.1792
11
143.781
21
-91.7105
0
LINE
8
Black
10
143.781
20
-91.7105
11
145.779
21
-91.7105
0
LINE
8
Black
10
145.779
20
-91.7105
11
145.779
21
-93.7095
0
LINE
8
Black
10
153.901
20
-105.939
11
152.401
21
-105.939
0
LINE
8
Black
10
152.401
20
-105.939
11
152.401
21
-105.339
0
LINE
8
Black
10
152.401
20
-105.339
11
153.901
21
-105.339
0
LINE
8
Black
10
153.901
20
-105.339
11
153.901
21
-105.939
0
LINE
8
Black
10
144.601
20
-105.939
11
143.101
21
-105.939
0
LINE
8
Black
10
143.101
20
-105.939
11
143.101
21
-105.339
0
LINE
8
Black
10
143.101
20
-105.339
11
144.601
21
-105.339
0
LINE
8
Black
10
144.601
20
-105.339
11
144.601
21
-105.939
0
LINE
8
Black
10
153.901
20
-104.669
11
152.401
21
-104.669
0
LINE
8
Black
10
152.401
20
-104.669
11
152.401
21
-104.069
0
LINE
8
Black
10
152.401
20
-104.069
11
153.901
21
-104.069
0
LINE
8
Black
10
153.901
20
-104.069
11
153.901
21
-104.669
0
LINE
8
Black
10
144.601
20
-104.669
11
143.101
21
-104.669
0
LINE
8
Black
10
143.101
20
-104.669
11
143.101
21
-104.069
0
LINE
8
Black
10
143.101
20
-104.069
11
144.601
21
-104.069
0
LINE
8
Black
10
144.601
20
-104.069
11
144.601
21
-104.669
0
LINE
8
Black
10
144.601
20
-103.399
11
143.101
21
-103.399
0
LINE
8
Black
10
143.101
20
-103.399
11
143.101
21
-102.799
0
LINE
8
Black
10
143.101
20
-102.799
11
144.601
21
-102.799
0
LINE
8
Black
10
144.601
20
-102.799
11
144.601
21
-103.399
0
LINE
8
Black
10
153.901
20
-103.399
11
152.401
21
-103.399
0
LINE
8
Black
10
152.401
20
-103.399
11
152.401
21
-102.799
0
LINE
8
Black
10
152.401
20
-102.799
11
153.901
21
-102.799
0
LINE
8
Black
10
153.901
20
-102.799
11
153.901
21
-103.399
0
LINE
8
Black
10
144.601
20
-102.129
11
143.101
21
-102.129
0
LINE
8
Black
10
143.101
20
-102.129
11
143.101
21
-101.529
0
LINE
8
Black
10
143.101
20
-101.529
11
144.601
21
-101.529
0
LINE
8
Black
10
144.601
20
-101.529
11
144.601
21
-102.129
0
LINE
8
Black
10
153.901
20
-102.129
11
152.401
21
-102.129
0
LINE
8
Black
10
152.401
20
-102.129
11
152.401
21
-101.529
0
LINE
8
Black
10
152.401
20
-101.529
11
153.901
21
-101.529
0
LINE
8
Black
10
153.901
20
-101.529
11
153.901
21
-102.129
0
LINE
8
Black
10
153.901
20
-100.859
11
152.401
21
-100.859
0
LINE
8
Black
10
152.401
20
-100.859
11
152.401
21
-100.259
0
LINE
8
Black
10
152.401
20
-100.259
11
153.901
21
-100.259
0
LINE
8
Black
10
153.901
20
-100.259
11
153.901
21
-100.859
0
LINE
8
Black
10
144.601
20
-100.859
11
143.101
21
-100.859
0
LINE
8
Black
10
143.101
20
-100.859
11
143.101
21
-100.259
0
LINE
8
Black
10
143.101
20
-100.259
11
144.601
21
-100.259
0
LINE
8
Black
10
144.601
20
-100.259
11
144.601
21
-100.859
  0
ENDSEC
  0
EOF
