999
DXF created by G-Code Ripper <by Scorch, www.scorchworks.com>
0
SECTION
2
HEADER
0
ENDSEC
0
SECTION
2
TABLES
0
TABLE
2
LTYPE
70
1
0
LTYPE
2
CONTINUOUS
70
64
3
Solid line
72
65
73
0
40
0.000000
0
ENDTAB
0
TABLE
2
LAYER
70
6
0
LAYER
2
1
70
64
62
7
6
CONTINUOUS
0
LAYER
2
2
70
64
62
7
6
CONTINUOUS
0
ENDTAB
0
TABLE
2
STYLE
70
0
0
ENDTAB
0
ENDSEC
0
SECTION
2
BLOCKS
0
ENDSEC
0
SECTION
2
ENTITIES
  0
LINE
  5
30
100
AcDbEntity
  8
1
 62
10
100
AcDbLine
 10
5.4585
 20
-4.1707
 30
0.0098
 11
5.4585
 21
-4.1707
 31
-0.0001
  0
LINE
  5
30
100
AcDbEntity
  8
1
 62
10
100
AcDbLine
 10
5.4585
 20
-4.1707
 30
-0.0001
 11
5.5353
 21
-4.1707
 31
-0.0001
  0
LINE
  5
30
100
AcDbEntity
  8
1
 62
10
100
AcDbLine
 10
5.5353
 20
-4.1707
 30
-0.0001
 11
5.5913
 21
-4.2267
 31
-0.0001
  0
LINE
  5
30
100
AcDbEntity
  8
1
 62
10
100
AcDbLine
 10
5.5913
 20
-4.2267
 30
-0.0001
 11
5.5913
 21
-4.2267
 31
0.0039
  0
LINE
  5
30
100
AcDbEntity
  8
1
 62
10
100
AcDbLine
 10
5.5419
 20
-4.1066
 30
0.0039
 11
5.5419
 21
-4.1066
 31
-0.0001
  0
LINE
  5
30
100
AcDbEntity
  8
1
 62
10
100
AcDbLine
 10
5.5419
 20
-4.1066
 30
-0.0001
 11
5.5419
 21
-4.0718
 31
-0.0001
  0
LINE
  5
30
100
AcDbEntity
  8
1
 62
10
100
AcDbLine
 10
5.5419
 20
-4.0718
 30
-0.0001
 11
5.5247
 21
-4.0718
 31
-0.0001
  0
LINE
  5
30
100
AcDbEntity
  8
1
 62
10
100
AcDbLine
 10
5.5247
 20
-4.0718
 30
-0.0001
 11
5.5247
 21
-3.8608
 31
-0.0001
  0
LINE
  5
30
100
AcDbEntity
  8
1
 62
10
100
AcDbLine
 10
5.5247
 20
-3.8608
 30
-0.0001
 11
5.6857
 21
-3.6993
 31
-0.0001
  0
LINE
  5
30
100
AcDbEntity
  8
1
 62
10
100
AcDbLine
 10
5.6857
 20
-3.6993
 30
-0.0001
 11
5.7493
 21
-3.6993
 31
-0.0001
  0
LINE
  5
30
100
AcDbEntity
  8
1
 62
10
100
AcDbLine
 10
5.7493
 20
-3.6993
 30
-0.0001
 11
5.7493
 21
-3.6004
 31
-0.0001
  0
LINE
  5
30
100
AcDbEntity
  8
1
 62
10
100
AcDbLine
 10
5.7493
 20
-3.6004
 30
-0.0001
 11
5.6504
 21
-3.6004
 31
-0.0001
  0
LINE
  5
30
100
AcDbEntity
  8
1
 62
10
100
AcDbLine
 10
5.6504
 20
-3.6004
 30
-0.0001
 11
5.6504
 21
-3.6639
 31
-0.0001
  0
LINE
  5
30
100
AcDbEntity
  8
1
 62
10
100
AcDbLine
 10
5.6504
 20
-3.6639
 30
-0.0001
 11
5.4823
 21
-3.8325
 31
-0.0001
  0
LINE
  5
30
100
AcDbEntity
  8
1
 62
10
100
AcDbLine
 10
5.4823
 20
-3.8325
 30
-0.0001
 11
5.4823
 21
-3.8325
 31
0.0039
  0
LINE
  5
30
100
AcDbEntity
  8
1
 62
10
100
AcDbLine
 10
5.4585
 20
-4.0718
 30
0.0039
 11
5.4585
 21
-4.0718
 31
-0.0001
  0
LINE
  5
30
100
AcDbEntity
  8
1
 62
10
100
AcDbLine
 10
5.4585
 20
-4.0718
 30
-0.0001
 11
5.4752
 21
-4.0718
 31
-0.0001
  0
LINE
  5
30
100
AcDbEntity
  8
1
 62
10
100
AcDbLine
 10
5.4752
 20
-4.0718
 30
-0.0001
 11
5.4752
 21
-3.8502
 31
-0.0001
  0
LINE
  5
30
100
AcDbEntity
  8
1
 62
10
100
AcDbLine
 10
5.4752
 20
-3.8502
 30
-0.0001
 11
5.4753
 21
-3.8484
 31
-0.0001
  0
LINE
  5
30
100
AcDbEntity
  8
1
 62
10
100
AcDbLine
 10
5.4753
 20
-3.8484
 30
-0.0001
 11
5.4755
 21
-3.8462
 31
-0.0001
  0
LINE
  5
30
100
AcDbEntity
  8
1
 62
10
100
AcDbLine
 10
5.4755
 20
-3.8462
 30
-0.0001
 11
5.4760
 21
-3.8441
 31
-0.0001
  0
LINE
  5
30
100
AcDbEntity
  8
1
 62
10
100
AcDbLine
 10
5.4760
 20
-3.8441
 30
-0.0001
 11
5.4766
 21
-3.8421
 31
-0.0001
  0
LINE
  5
30
100
AcDbEntity
  8
1
 62
10
100
AcDbLine
 10
5.4766
 20
-3.8421
 30
-0.0001
 11
5.4774
 21
-3.8401
 31
-0.0001
  0
LINE
  5
30
100
AcDbEntity
  8
1
 62
10
100
AcDbLine
 10
5.4774
 20
-3.8401
 30
-0.0001
 11
5.4783
 21
-3.8381
 31
-0.0001
  0
LINE
  5
30
100
AcDbEntity
  8
1
 62
10
100
AcDbLine
 10
5.4783
 20
-3.8381
 30
-0.0001
 11
5.4795
 21
-3.8363
 31
-0.0001
  0
LINE
  5
30
100
AcDbEntity
  8
1
 62
10
100
AcDbLine
 10
5.4795
 20
-3.8363
 30
-0.0001
 11
5.4808
 21
-3.8346
 31
-0.0001
  0
LINE
  5
30
100
AcDbEntity
  8
1
 62
10
100
AcDbLine
 10
5.4808
 20
-3.8346
 30
-0.0001
 11
5.4822
 21
-3.8329
 31
-0.0001
  0
LINE
  5
30
100
AcDbEntity
  8
1
 62
10
100
AcDbLine
 10
5.4822
 20
-3.8329
 30
-0.0001
 11
5.4823
 21
-3.8330
 31
-0.0001
  0
LINE
  5
30
100
AcDbEntity
  8
1
 62
10
100
AcDbLine
 10
5.4823
 20
-3.8330
 30
-0.0001
 11
5.4823
 21
-3.8330
 31
0.0039
  0
LINE
  5
30
100
AcDbEntity
  8
1
 62
10
100
AcDbLine
 10
5.4585
 20
-4.1707
 30
0.0039
 11
5.4585
 21
-4.1707
 31
-0.0001
  0
LINE
  5
30
100
AcDbEntity
  8
1
 62
10
100
AcDbLine
 10
5.4585
 20
-4.1707
 30
-0.0001
 11
5.4585
 21
-4.0718
 31
-0.0001
  0
LINE
  5
30
100
AcDbEntity
  8
1
 62
10
100
AcDbLine
 10
5.4585
 20
-4.0718
 30
-0.0001
 11
5.4585
 21
-4.0718
 31
0.0039
  0
LINE
  5
30
100
AcDbEntity
  8
1
 62
10
100
AcDbLine
 10
5.4585
 20
-4.3282
 30
0.0039
 11
5.4585
 21
-4.3282
 31
-0.0001
  0
LINE
  5
30
100
AcDbEntity
  8
1
 62
10
100
AcDbLine
 10
5.4585
 20
-4.3282
 30
-0.0001
 11
5.5419
 21
-4.3282
 31
-0.0001
  0
LINE
  5
30
100
AcDbEntity
  8
1
 62
10
100
AcDbLine
 10
5.5419
 20
-4.3282
 30
-0.0001
 11
5.5419
 21
-4.3035
 31
-0.0001
  0
LINE
  5
30
100
AcDbEntity
  8
1
 62
10
100
AcDbLine
 10
5.5419
 20
-4.3035
 30
-0.0001
 11
5.5610
 21
-4.3035
 31
-0.0001
  0
LINE
  5
30
100
AcDbEntity
  8
1
 62
10
100
AcDbLine
 10
5.5610
 20
-4.3035
 30
-0.0001
 11
5.5632
 21
-4.3034
 31
-0.0001
  0
LINE
  5
30
100
AcDbEntity
  8
1
 62
10
100
AcDbLine
 10
5.5632
 20
-4.3034
 30
-0.0001
 11
5.5653
 21
-4.3031
 31
-0.0001
  0
LINE
  5
30
100
AcDbEntity
  8
1
 62
10
100
AcDbLine
 10
5.5653
 20
-4.3031
 30
-0.0001
 11
5.5674
 21
-4.3026
 31
-0.0001
  0
LINE
  5
30
100
AcDbEntity
  8
1
 62
10
100
AcDbLine
 10
5.5674
 20
-4.3026
 30
-0.0001
 11
5.5695
 21
-4.3020
 31
-0.0001
  0
LINE
  5
30
100
AcDbEntity
  8
1
 62
10
100
AcDbLine
 10
5.5695
 20
-4.3020
 30
-0.0001
 11
5.5715
 21
-4.3011
 31
-0.0001
  0
LINE
  5
30
100
AcDbEntity
  8
1
 62
10
100
AcDbLine
 10
5.5715
 20
-4.3011
 30
-0.0001
 11
5.5734
 21
-4.3001
 31
-0.0001
  0
LINE
  5
30
100
AcDbEntity
  8
1
 62
10
100
AcDbLine
 10
5.5734
 20
-4.3001
 30
-0.0001
 11
5.5752
 21
-4.2990
 31
-0.0001
  0
LINE
  5
30
100
AcDbEntity
  8
1
 62
10
100
AcDbLine
 10
5.5752
 20
-4.2990
 30
-0.0001
 11
5.5769
 21
-4.2977
 31
-0.0001
  0
LINE
  5
30
100
AcDbEntity
  8
1
 62
10
100
AcDbLine
 10
5.5769
 20
-4.2977
 30
-0.0001
 11
5.5783
 21
-4.2965
 31
-0.0001
  0
LINE
  5
30
100
AcDbEntity
  8
1
 62
10
100
AcDbLine
 10
5.5783
 20
-4.2965
 30
-0.0001
 11
5.5782
 21
-4.2964
 31
-0.0001
  0
LINE
  5
30
100
AcDbEntity
  8
1
 62
10
100
AcDbLine
 10
5.5782
 20
-4.2964
 30
-0.0001
 11
5.5913
 21
-4.2838
 31
-0.0001
  0
LINE
  5
30
100
AcDbEntity
  8
1
 62
10
100
AcDbLine
 10
5.5913
 20
-4.2838
 30
-0.0001
 11
5.6635
 21
-4.2838
 31
-0.0001
  0
LINE
  5
30
100
AcDbEntity
  8
1
 62
10
100
AcDbLine
 10
5.6635
 20
-4.2838
 30
-0.0001
 11
5.6656
 21
-4.2837
 31
-0.0001
  0
LINE
  5
30
100
AcDbEntity
  8
1
 62
10
100
AcDbLine
 10
5.6656
 20
-4.2837
 30
-0.0001
 11
5.6678
 21
-4.2834
 31
-0.0001
  0
LINE
  5
30
100
AcDbEntity
  8
1
 62
10
100
AcDbLine
 10
5.6678
 20
-4.2834
 30
-0.0001
 11
5.6699
 21
-4.2829
 31
-0.0001
  0
LINE
  5
30
100
AcDbEntity
  8
1
 62
10
100
AcDbLine
 10
5.6699
 20
-4.2829
 30
-0.0001
 11
5.6719
 21
-4.2823
 31
-0.0001
  0
LINE
  5
30
100
AcDbEntity
  8
1
 62
10
100
AcDbLine
 10
5.6719
 20
-4.2823
 30
-0.0001
 11
5.6739
 21
-4.2815
 31
-0.0001
  0
LINE
  5
30
100
AcDbEntity
  8
1
 62
10
100
AcDbLine
 10
5.6739
 20
-4.2815
 30
-0.0001
 11
5.6751
 21
-4.2809
 31
-0.0001
  0
LINE
  5
30
100
AcDbEntity
  8
1
 62
10
100
AcDbLine
 10
5.6751
 20
-4.2809
 30
-0.0001
 11
5.6751
 21
-4.2807
 31
-0.0001
  0
LINE
  5
30
100
AcDbEntity
  8
1
 62
10
100
AcDbLine
 10
5.6751
 20
-4.2807
 30
-0.0001
 11
5.7033
 21
-4.2807
 31
-0.0001
  0
LINE
  5
30
100
AcDbEntity
  8
1
 62
10
100
AcDbLine
 10
5.7033
 20
-4.2807
 30
-0.0001
 11
5.7033
 21
-4.2373
 31
-0.0001
  0
LINE
  5
30
100
AcDbEntity
  8
1
 62
10
100
AcDbLine
 10
5.7033
 20
-4.2373
 30
-0.0001
 11
5.6751
 21
-4.2373
 31
-0.0001
  0
LINE
  5
30
100
AcDbEntity
  8
1
 62
10
100
AcDbLine
 10
5.6751
 20
-4.2373
 30
-0.0001
 11
5.6731
 21
-4.2364
 31
-0.0001
  0
LINE
  5
30
100
AcDbEntity
  8
1
 62
10
100
AcDbLine
 10
5.6731
 20
-4.2364
 30
-0.0001
 11
5.6711
 21
-4.2356
 31
-0.0001
  0
LINE
  5
30
100
AcDbEntity
  8
1
 62
10
100
AcDbLine
 10
5.6711
 20
-4.2356
 30
-0.0001
 11
5.6691
 21
-4.2351
 31
-0.0001
  0
LINE
  5
30
100
AcDbEntity
  8
1
 62
10
100
AcDbLine
 10
5.6691
 20
-4.2351
 30
-0.0001
 11
5.6670
 21
-4.2347
 31
-0.0001
  0
LINE
  5
30
100
AcDbEntity
  8
1
 62
10
100
AcDbLine
 10
5.6670
 20
-4.2347
 30
-0.0001
 11
5.6648
 21
-4.2345
 31
-0.0001
  0
LINE
  5
30
100
AcDbEntity
  8
1
 62
10
100
AcDbLine
 10
5.6648
 20
-4.2345
 30
-0.0001
 11
5.6635
 21
-4.2344
 31
-0.0001
  0
LINE
  5
30
100
AcDbEntity
  8
1
 62
10
100
AcDbLine
 10
5.6635
 20
-4.2344
 30
-0.0001
 11
5.6635
 21
-4.2343
 31
-0.0001
  0
LINE
  5
30
100
AcDbEntity
  8
1
 62
10
100
AcDbLine
 10
5.6635
 20
-4.2343
 30
-0.0001
 11
5.5812
 21
-4.2343
 31
-0.0001
  0
LINE
  5
30
100
AcDbEntity
  8
1
 62
10
100
AcDbLine
 10
5.5812
 20
-4.2343
 30
-0.0001
 11
5.5791
 21
-4.2344
 31
-0.0001
  0
LINE
  5
30
100
AcDbEntity
  8
1
 62
10
100
AcDbLine
 10
5.5791
 20
-4.2344
 30
-0.0001
 11
5.5769
 21
-4.2347
 31
-0.0001
  0
LINE
  5
30
100
AcDbEntity
  8
1
 62
10
100
AcDbLine
 10
5.5769
 20
-4.2347
 30
-0.0001
 11
5.5748
 21
-4.2351
 31
-0.0001
  0
LINE
  5
30
100
AcDbEntity
  8
1
 62
10
100
AcDbLine
 10
5.5748
 20
-4.2351
 30
-0.0001
 11
5.5728
 21
-4.2358
 31
-0.0001
  0
LINE
  5
30
100
AcDbEntity
  8
1
 62
10
100
AcDbLine
 10
5.5728
 20
-4.2358
 30
-0.0001
 11
5.5708
 21
-4.2366
 31
-0.0001
  0
LINE
  5
30
100
AcDbEntity
  8
1
 62
10
100
AcDbLine
 10
5.5708
 20
-4.2366
 30
-0.0001
 11
5.5688
 21
-4.2376
 31
-0.0001
  0
LINE
  5
30
100
AcDbEntity
  8
1
 62
10
100
AcDbLine
 10
5.5688
 20
-4.2376
 30
-0.0001
 11
5.5670
 21
-4.2388
 31
-0.0001
  0
LINE
  5
30
100
AcDbEntity
  8
1
 62
10
100
AcDbLine
 10
5.5670
 20
-4.2388
 30
-0.0001
 11
5.5653
 21
-4.2401
 31
-0.0001
  0
LINE
  5
30
100
AcDbEntity
  8
1
 62
10
100
AcDbLine
 10
5.5653
 20
-4.2401
 30
-0.0001
 11
5.5640
 21
-4.2413
 31
-0.0001
  0
LINE
  5
30
100
AcDbEntity
  8
1
 62
10
100
AcDbLine
 10
5.5640
 20
-4.2413
 30
-0.0001
 11
5.5641
 21
-4.2414
 31
-0.0001
  0
LINE
  5
30
100
AcDbEntity
  8
1
 62
10
100
AcDbLine
 10
5.5641
 20
-4.2414
 30
-0.0001
 11
5.5509
 21
-4.2540
 31
-0.0001
  0
LINE
  5
30
100
AcDbEntity
  8
1
 62
10
100
AcDbLine
 10
5.5509
 20
-4.2540
 30
-0.0001
 11
5.5419
 21
-4.2540
 31
-0.0001
  0
LINE
  5
30
100
AcDbEntity
  8
1
 62
10
100
AcDbLine
 10
5.5419
 20
-4.2540
 30
-0.0001
 11
5.5419
 21
-4.2293
 31
-0.0001
  0
LINE
  5
30
100
AcDbEntity
  8
1
 62
10
100
AcDbLine
 10
5.5419
 20
-4.2293
 30
-0.0001
 11
5.4858
 21
-4.2293
 31
-0.0001
  0
LINE
  5
30
100
AcDbEntity
  8
1
 62
10
100
AcDbLine
 10
5.4858
 20
-4.2293
 30
-0.0001
 11
5.4247
 21
-4.1682
 31
-0.0001
  0
LINE
  5
30
100
AcDbEntity
  8
1
 62
10
100
AcDbLine
 10
5.4247
 20
-4.1682
 30
-0.0001
 11
5.4247
 21
-3.7609
 31
-0.0001
  0
LINE
  5
30
100
AcDbEntity
  8
1
 62
10
100
AcDbLine
 10
5.4247
 20
-3.7609
 30
-0.0001
 11
5.6296
 21
-3.5645
 31
-0.0001
  0
LINE
  5
30
100
AcDbEntity
  8
1
 62
10
100
AcDbLine
 10
5.6296
 20
-3.5645
 30
-0.0001
 11
5.7508
 21
-3.5645
 31
-0.0001
  0
LINE
  5
30
100
AcDbEntity
  8
1
 62
10
100
AcDbLine
 10
5.7508
 20
-3.5645
 30
-0.0001
 11
5.7750
 21
-3.5862
 31
-0.0001
  0
LINE
  5
30
100
AcDbEntity
  8
1
 62
10
100
AcDbLine
 10
5.7750
 20
-3.5862
 30
-0.0001
 11
5.7750
 21
-3.6069
 31
-0.0001
  0
LINE
  5
30
100
AcDbEntity
  8
1
 62
10
100
AcDbLine
 10
5.7750
 20
-3.6069
 30
-0.0001
 11
5.7714
 21
-3.6092
 31
-0.0001
  0
LINE
  5
30
100
AcDbEntity
  8
1
 62
10
100
AcDbLine
 10
5.7714
 20
-3.6092
 30
-0.0001
 11
5.7680
 21
-3.6118
 31
-0.0001
  0
LINE
  5
30
100
AcDbEntity
  8
1
 62
10
100
AcDbLine
 10
5.7680
 20
-3.6118
 30
-0.0001
 11
5.7648
 21
-3.6147
 31
-0.0001
  0
LINE
  5
30
100
AcDbEntity
  8
1
 62
10
100
AcDbLine
 10
5.7648
 20
-3.6147
 30
-0.0001
 11
5.7619
 21
-3.6179
 31
-0.0001
  0
LINE
  5
30
100
AcDbEntity
  8
1
 62
10
100
AcDbLine
 10
5.7619
 20
-3.6179
 30
-0.0001
 11
5.7592
 21
-3.6214
 31
-0.0001
  0
LINE
  5
30
100
AcDbEntity
  8
1
 62
10
100
AcDbLine
 10
5.7592
 20
-3.6214
 30
-0.0001
 11
5.7569
 21
-3.6250
 31
-0.0001
  0
LINE
  5
30
100
AcDbEntity
  8
1
 62
10
100
AcDbLine
 10
5.7569
 20
-3.6250
 30
-0.0001
 11
5.7549
 21
-3.6288
 31
-0.0001
  0
LINE
  5
30
100
AcDbEntity
  8
1
 62
10
100
AcDbLine
 10
5.7549
 20
-3.6288
 30
-0.0001
 11
5.7532
 21
-3.6328
 31
-0.0001
  0
LINE
  5
30
100
AcDbEntity
  8
1
 62
10
100
AcDbLine
 10
5.7532
 20
-3.6328
 30
-0.0001
 11
5.7519
 21
-3.6369
 31
-0.0001
  0
LINE
  5
30
100
AcDbEntity
  8
1
 62
10
100
AcDbLine
 10
5.7519
 20
-3.6369
 30
-0.0001
 11
5.7510
 21
-3.6412
 31
-0.0001
  0
LINE
  5
30
100
AcDbEntity
  8
1
 62
10
100
AcDbLine
 10
5.7510
 20
-3.6412
 30
-0.0001
 11
5.7504
 21
-3.6454
 31
-0.0001
  0
LINE
  5
30
100
AcDbEntity
  8
1
 62
10
100
AcDbLine
 10
5.7504
 20
-3.6454
 30
-0.0001
 11
5.7502
 21
-3.6498
 31
-0.0001
  0
LINE
  5
30
100
AcDbEntity
  8
1
 62
10
100
AcDbLine
 10
5.7502
 20
-3.6498
 30
-0.0001
 11
5.7504
 21
-3.6541
 31
-0.0001
  0
LINE
  5
30
100
AcDbEntity
  8
1
 62
10
100
AcDbLine
 10
5.7504
 20
-3.6541
 30
-0.0001
 11
5.7510
 21
-3.6584
 31
-0.0001
  0
LINE
  5
30
100
AcDbEntity
  8
1
 62
10
100
AcDbLine
 10
5.7510
 20
-3.6584
 30
-0.0001
 11
5.7519
 21
-3.6626
 31
-0.0001
  0
LINE
  5
30
100
AcDbEntity
  8
1
 62
10
100
AcDbLine
 10
5.7519
 20
-3.6626
 30
-0.0001
 11
5.7532
 21
-3.6667
 31
-0.0001
  0
LINE
  5
30
100
AcDbEntity
  8
1
 62
10
100
AcDbLine
 10
5.7532
 20
-3.6667
 30
-0.0001
 11
5.7549
 21
-3.6707
 31
-0.0001
  0
LINE
  5
30
100
AcDbEntity
  8
1
 62
10
100
AcDbLine
 10
5.7549
 20
-3.6707
 30
-0.0001
 11
5.7568
 21
-3.6745
 31
-0.0001
  0
LINE
  5
30
100
AcDbEntity
  8
1
 62
10
100
AcDbLine
 10
5.7568
 20
-3.6745
 30
-0.0001
 11
5.7592
 21
-3.6782
 31
-0.0001
  0
LINE
  5
30
100
AcDbEntity
  8
1
 62
10
100
AcDbLine
 10
5.7592
 20
-3.6782
 30
-0.0001
 11
5.7618
 21
-3.6816
 31
-0.0001
  0
LINE
  5
30
100
AcDbEntity
  8
1
 62
10
100
AcDbLine
 10
5.7618
 20
-3.6816
 30
-0.0001
 11
5.7647
 21
-3.6848
 31
-0.0001
  0
LINE
  5
30
100
AcDbEntity
  8
1
 62
10
100
AcDbLine
 10
5.7647
 20
-3.6848
 30
-0.0001
 11
5.7679
 21
-3.6877
 31
-0.0001
  0
LINE
  5
30
100
AcDbEntity
  8
1
 62
10
100
AcDbLine
 10
5.7679
 20
-3.6877
 30
-0.0001
 11
5.7713
 21
-3.6903
 31
-0.0001
  0
LINE
  5
30
100
AcDbEntity
  8
1
 62
10
100
AcDbLine
 10
5.7713
 20
-3.6903
 30
-0.0001
 11
5.7750
 21
-3.6927
 31
-0.0001
  0
LINE
  5
30
100
AcDbEntity
  8
1
 62
10
100
AcDbLine
 10
5.7750
 20
-3.6927
 30
-0.0001
 11
5.7750
 21
-3.6927
 31
-0.0001
  0
LINE
  5
30
100
AcDbEntity
  8
1
 62
10
100
AcDbLine
 10
5.7750
 20
-3.6927
 30
-0.0001
 11
5.7750
 21
-3.7502
 31
-0.0001
  0
LINE
  5
30
100
AcDbEntity
  8
1
 62
10
100
AcDbLine
 10
5.7750
 20
-3.7502
 30
-0.0001
 11
5.7751
 21
-3.7524
 31
-0.0001
  0
LINE
  5
30
100
AcDbEntity
  8
1
 62
10
100
AcDbLine
 10
5.7751
 20
-3.7524
 30
-0.0001
 11
5.7754
 21
-3.7545
 31
-0.0001
  0
LINE
  5
30
100
AcDbEntity
  8
1
 62
10
100
AcDbLine
 10
5.7754
 20
-3.7545
 30
-0.0001
 11
5.7759
 21
-3.7566
 31
-0.0001
  0
LINE
  5
30
100
AcDbEntity
  8
1
 62
10
100
AcDbLine
 10
5.7759
 20
-3.7566
 30
-0.0001
 11
5.7765
 21
-3.7587
 31
-0.0001
  0
LINE
  5
30
100
AcDbEntity
  8
1
 62
10
100
AcDbLine
 10
5.7765
 20
-3.7587
 30
-0.0001
 11
5.7774
 21
-3.7607
 31
-0.0001
  0
LINE
  5
30
100
AcDbEntity
  8
1
 62
10
100
AcDbLine
 10
5.7774
 20
-3.7607
 30
-0.0001
 11
5.7783
 21
-3.7626
 31
-0.0001
  0
LINE
  5
30
100
AcDbEntity
  8
1
 62
10
100
AcDbLine
 10
5.7783
 20
-3.7626
 30
-0.0001
 11
5.7795
 21
-3.7644
 31
-0.0001
  0
LINE
  5
30
100
AcDbEntity
  8
1
 62
10
100
AcDbLine
 10
5.7795
 20
-3.7644
 30
-0.0001
 11
5.7808
 21
-3.7661
 31
-0.0001
  0
LINE
  5
30
100
AcDbEntity
  8
1
 62
10
100
AcDbLine
 10
5.7808
 20
-3.7661
 30
-0.0001
 11
5.7820
 21
-3.7675
 31
-0.0001
  0
LINE
  5
30
100
AcDbEntity
  8
1
 62
10
100
AcDbLine
 10
5.7820
 20
-3.7675
 30
-0.0001
 11
5.7821
 21
-3.7674
 31
-0.0001
  0
LINE
  5
30
100
AcDbEntity
  8
1
 62
10
100
AcDbLine
 10
5.7821
 20
-3.7674
 30
-0.0001
 11
5.7821
 21
-3.7674
 31
0.0039
  0
LINE
  5
30
100
AcDbEntity
  8
1
 62
10
100
AcDbLine
 10
5.4585
 20
-4.3282
 30
0.0039
 11
5.4585
 21
-4.3282
 31
-0.0001
  0
LINE
  5
30
100
AcDbEntity
  8
1
 62
10
100
AcDbLine
 10
5.4585
 20
-4.3282
 30
-0.0001
 11
5.4585
 21
-4.2727
 31
-0.0001
  0
LINE
  5
30
100
AcDbEntity
  8
1
 62
10
100
AcDbLine
 10
5.4585
 20
-4.2727
 30
-0.0001
 11
5.3823
 21
-4.1965
 31
-0.0001
  0
LINE
  5
30
100
AcDbEntity
  8
1
 62
10
100
AcDbLine
 10
5.3823
 20
-4.1965
 30
-0.0001
 11
5.3823
 21
-4.1965
 31
0.0039
  0
LINE
  5
30
100
AcDbEntity
  8
1
 62
10
100
AcDbLine
 10
5.6241
 20
-3.9809
 30
0.0039
 11
5.6241
 21
-3.9809
 31
-0.0001
  0
LINE
  5
30
100
AcDbEntity
  8
1
 62
10
100
AcDbLine
 10
5.6241
 20
-3.9809
 30
-0.0001
 11
5.7033
 21
-3.9809
 31
-0.0001
  0
LINE
  5
30
100
AcDbEntity
  8
1
 62
10
100
AcDbLine
 10
5.7033
 20
-3.9809
 30
-0.0001
 11
5.7033
 21
-3.9375
 31
-0.0001
  0
LINE
  5
30
100
AcDbEntity
  8
1
 62
10
100
AcDbLine
 10
5.7033
 20
-3.9375
 30
-0.0001
 11
5.6241
 21
-3.9375
 31
-0.0001
  0
LINE
  5
30
100
AcDbEntity
  8
1
 62
10
100
AcDbLine
 10
5.6241
 20
-3.9375
 30
-0.0001
 11
5.6241
 21
-3.9809
 31
-0.0001
  0
LINE
  5
30
100
AcDbEntity
  8
1
 62
10
100
AcDbLine
 10
5.6241
 20
-3.9809
 30
-0.0001
 11
5.6241
 21
-3.9809
 31
0.0039
  0
LINE
  5
30
100
AcDbEntity
  8
1
 62
10
100
AcDbLine
 10
5.6241
 20
-4.0309
 30
0.0039
 11
5.6241
 21
-4.0309
 31
-0.0001
  0
LINE
  5
30
100
AcDbEntity
  8
1
 62
10
100
AcDbLine
 10
5.6241
 20
-4.0309
 30
-0.0001
 11
5.7033
 21
-4.0309
 31
-0.0001
  0
LINE
  5
30
100
AcDbEntity
  8
1
 62
10
100
AcDbLine
 10
5.7033
 20
-4.0309
 30
-0.0001
 11
5.7033
 21
-3.9875
 31
-0.0001
  0
LINE
  5
30
100
AcDbEntity
  8
1
 62
10
100
AcDbLine
 10
5.7033
 20
-3.9875
 30
-0.0001
 11
5.6241
 21
-3.9875
 31
-0.0001
  0
LINE
  5
30
100
AcDbEntity
  8
1
 62
10
100
AcDbLine
 10
5.6241
 20
-3.9875
 30
-0.0001
 11
5.6241
 21
-4.0309
 31
-0.0001
  0
LINE
  5
30
100
AcDbEntity
  8
1
 62
10
100
AcDbLine
 10
5.6241
 20
-4.0309
 30
-0.0001
 11
5.6241
 21
-4.0309
 31
0.0039
  0
LINE
  5
30
100
AcDbEntity
  8
1
 62
10
100
AcDbLine
 10
5.6241
 20
-4.0809
 30
0.0039
 11
5.6241
 21
-4.0809
 31
-0.0001
  0
LINE
  5
30
100
AcDbEntity
  8
1
 62
10
100
AcDbLine
 10
5.6241
 20
-4.0809
 30
-0.0001
 11
5.7033
 21
-4.0809
 31
-0.0001
  0
LINE
  5
30
100
AcDbEntity
  8
1
 62
10
100
AcDbLine
 10
5.7033
 20
-4.0809
 30
-0.0001
 11
5.7033
 21
-4.0374
 31
-0.0001
  0
LINE
  5
30
100
AcDbEntity
  8
1
 62
10
100
AcDbLine
 10
5.7033
 20
-4.0374
 30
-0.0001
 11
5.6241
 21
-4.0374
 31
-0.0001
  0
LINE
  5
30
100
AcDbEntity
  8
1
 62
10
100
AcDbLine
 10
5.6241
 20
-4.0374
 30
-0.0001
 11
5.6241
 21
-4.0809
 31
-0.0001
  0
LINE
  5
30
100
AcDbEntity
  8
1
 62
10
100
AcDbLine
 10
5.6241
 20
-4.0809
 30
-0.0001
 11
5.6241
 21
-4.0809
 31
0.0039
  0
LINE
  5
30
100
AcDbEntity
  8
1
 62
10
100
AcDbLine
 10
5.6241
 20
-4.1308
 30
0.0039
 11
5.6241
 21
-4.1308
 31
-0.0001
  0
LINE
  5
30
100
AcDbEntity
  8
1
 62
10
100
AcDbLine
 10
5.6241
 20
-4.1308
 30
-0.0001
 11
5.7033
 21
-4.1308
 31
-0.0001
  0
LINE
  5
30
100
AcDbEntity
  8
1
 62
10
100
AcDbLine
 10
5.7033
 20
-4.1308
 30
-0.0001
 11
5.7033
 21
-4.0874
 31
-0.0001
  0
LINE
  5
30
100
AcDbEntity
  8
1
 62
10
100
AcDbLine
 10
5.7033
 20
-4.0874
 30
-0.0001
 11
5.6241
 21
-4.0874
 31
-0.0001
  0
LINE
  5
30
100
AcDbEntity
  8
1
 62
10
100
AcDbLine
 10
5.6241
 20
-4.0874
 30
-0.0001
 11
5.6241
 21
-4.1308
 31
-0.0001
  0
LINE
  5
30
100
AcDbEntity
  8
1
 62
10
100
AcDbLine
 10
5.6241
 20
-4.1308
 30
-0.0001
 11
5.6241
 21
-4.1308
 31
0.0039
  0
LINE
  5
30
100
AcDbEntity
  8
1
 62
10
100
AcDbLine
 10
5.6241
 20
-4.1808
 30
0.0039
 11
5.6241
 21
-4.1808
 31
-0.0001
  0
LINE
  5
30
100
AcDbEntity
  8
1
 62
10
100
AcDbLine
 10
5.6241
 20
-4.1808
 30
-0.0001
 11
5.7033
 21
-4.1808
 31
-0.0001
  0
LINE
  5
30
100
AcDbEntity
  8
1
 62
10
100
AcDbLine
 10
5.7033
 20
-4.1808
 30
-0.0001
 11
5.7033
 21
-4.1374
 31
-0.0001
  0
LINE
  5
30
100
AcDbEntity
  8
1
 62
10
100
AcDbLine
 10
5.7033
 20
-4.1374
 30
-0.0001
 11
5.6241
 21
-4.1374
 31
-0.0001
  0
LINE
  5
30
100
AcDbEntity
  8
1
 62
10
100
AcDbLine
 10
5.6241
 20
-4.1374
 30
-0.0001
 11
5.6241
 21
-4.1808
 31
-0.0001
  0
LINE
  5
30
100
AcDbEntity
  8
1
 62
10
100
AcDbLine
 10
5.6241
 20
-4.1808
 30
-0.0001
 11
5.6241
 21
-4.1808
 31
0.0039
  0
LINE
  5
30
100
AcDbEntity
  8
1
 62
10
100
AcDbLine
 10
5.6751
 20
-4.2307
 30
0.0039
 11
5.6751
 21
-4.2307
 31
-0.0001
  0
LINE
  5
30
100
AcDbEntity
  8
1
 62
10
100
AcDbLine
 10
5.6751
 20
-4.2307
 30
-0.0001
 11
5.7033
 21
-4.2307
 31
-0.0001
  0
LINE
  5
30
100
AcDbEntity
  8
1
 62
10
100
AcDbLine
 10
5.7033
 20
-4.2307
 30
-0.0001
 11
5.7033
 21
-4.1874
 31
-0.0001
  0
LINE
  5
30
100
AcDbEntity
  8
1
 62
10
100
AcDbLine
 10
5.7033
 20
-4.1874
 30
-0.0001
 11
5.6751
 21
-4.1874
 31
-0.0001
  0
LINE
  5
30
100
AcDbEntity
  8
1
 62
10
100
AcDbLine
 10
5.6751
 20
-4.1874
 30
-0.0001
 11
5.6731
 21
-4.1864
 31
-0.0001
  0
LINE
  5
30
100
AcDbEntity
  8
1
 62
10
100
AcDbLine
 10
5.6731
 20
-4.1864
 30
-0.0001
 11
5.6711
 21
-4.1857
 31
-0.0001
  0
LINE
  5
30
100
AcDbEntity
  8
1
 62
10
100
AcDbLine
 10
5.6711
 20
-4.1857
 30
-0.0001
 11
5.6691
 21
-4.1851
 31
-0.0001
  0
LINE
  5
30
100
AcDbEntity
  8
1
 62
10
100
AcDbLine
 10
5.6691
 20
-4.1851
 30
-0.0001
 11
5.6670
 21
-4.1847
 31
-0.0001
  0
LINE
  5
30
100
AcDbEntity
  8
1
 62
10
100
AcDbLine
 10
5.6670
 20
-4.1847
 30
-0.0001
 11
5.6648
 21
-4.1845
 31
-0.0001
  0
LINE
  5
30
100
AcDbEntity
  8
1
 62
10
100
AcDbLine
 10
5.6648
 20
-4.1845
 30
-0.0001
 11
5.6635
 21
-4.1845
 31
-0.0001
  0
LINE
  5
30
100
AcDbEntity
  8
1
 62
10
100
AcDbLine
 10
5.6635
 20
-4.1845
 30
-0.0001
 11
5.6635
 21
-4.1843
 31
-0.0001
  0
LINE
  5
30
100
AcDbEntity
  8
1
 62
10
100
AcDbLine
 10
5.6635
 20
-4.1843
 30
-0.0001
 11
5.6196
 21
-4.1843
 31
-0.0001
  0
LINE
  5
30
100
AcDbEntity
  8
1
 62
10
100
AcDbLine
 10
5.6196
 20
-4.1843
 30
-0.0001
 11
5.5419
 21
-4.1066
 31
-0.0001
  0
LINE
  5
30
100
AcDbEntity
  8
1
 62
10
100
AcDbLine
 10
5.5419
 20
-4.1066
 30
-0.0001
 11
5.5419
 21
-4.1066
 31
0.0039
  0
LINE
  5
30
100
AcDbEntity
  8
1
 62
10
100
AcDbLine
 10
5.6241
 20
-4.3307
 30
0.0039
 11
5.6241
 21
-4.3307
 31
-0.0001
  0
LINE
  5
30
100
AcDbEntity
  8
1
 62
10
100
AcDbLine
 10
5.6241
 20
-4.3307
 30
-0.0001
 11
5.7033
 21
-4.3307
 31
-0.0001
  0
LINE
  5
30
100
AcDbEntity
  8
1
 62
10
100
AcDbLine
 10
5.7033
 20
-4.3307
 30
-0.0001
 11
5.7033
 21
-4.2873
 31
-0.0001
  0
LINE
  5
30
100
AcDbEntity
  8
1
 62
10
100
AcDbLine
 10
5.7033
 20
-4.2873
 30
-0.0001
 11
5.6241
 21
-4.2873
 31
-0.0001
  0
LINE
  5
30
100
AcDbEntity
  8
1
 62
10
100
AcDbLine
 10
5.6241
 20
-4.2873
 30
-0.0001
 11
5.6241
 21
-4.3307
 31
-0.0001
  0
LINE
  5
30
100
AcDbEntity
  8
1
 62
10
100
AcDbLine
 10
5.6241
 20
-4.3307
 30
-0.0001
 11
5.6241
 21
-4.3307
 31
0.0039
  0
LINE
  5
30
100
AcDbEntity
  8
1
 62
10
100
AcDbLine
 10
5.9900
 20
-4.3307
 30
0.0039
 11
5.9900
 21
-4.3307
 31
-0.0001
  0
LINE
  5
30
100
AcDbEntity
  8
1
 62
10
100
AcDbLine
 10
5.9900
 20
-4.3307
 30
-0.0001
 11
6.0693
 21
-4.3307
 31
-0.0001
  0
LINE
  5
30
100
AcDbEntity
  8
1
 62
10
100
AcDbLine
 10
6.0693
 20
-4.3307
 30
-0.0001
 11
6.0693
 21
-4.2873
 31
-0.0001
  0
LINE
  5
30
100
AcDbEntity
  8
1
 62
10
100
AcDbLine
 10
6.0693
 20
-4.2873
 30
-0.0001
 11
5.9900
 21
-4.2873
 31
-0.0001
  0
LINE
  5
30
100
AcDbEntity
  8
1
 62
10
100
AcDbLine
 10
5.9900
 20
-4.2873
 30
-0.0001
 11
5.9900
 21
-4.3307
 31
-0.0001
  0
LINE
  5
30
100
AcDbEntity
  8
1
 62
10
100
AcDbLine
 10
5.9900
 20
-4.3307
 30
-0.0001
 11
5.9900
 21
-4.3307
 31
0.0039
  0
LINE
  5
30
100
AcDbEntity
  8
1
 62
10
100
AcDbLine
 10
5.9900
 20
-4.2807
 30
0.0039
 11
5.9900
 21
-4.2807
 31
-0.0001
  0
LINE
  5
30
100
AcDbEntity
  8
1
 62
10
100
AcDbLine
 10
5.9900
 20
-4.2807
 30
-0.0001
 11
6.0178
 21
-4.2807
 31
-0.0001
  0
LINE
  5
30
100
AcDbEntity
  8
1
 62
10
100
AcDbLine
 10
6.0178
 20
-4.2807
 30
-0.0001
 11
6.0197
 21
-4.2817
 31
-0.0001
  0
LINE
  5
30
100
AcDbEntity
  8
1
 62
10
100
AcDbLine
 10
6.0197
 20
-4.2817
 30
-0.0001
 11
6.0217
 21
-4.2824
 31
-0.0001
  0
LINE
  5
30
100
AcDbEntity
  8
1
 62
10
100
AcDbLine
 10
6.0217
 20
-4.2824
 30
-0.0001
 11
6.0238
 21
-4.2830
 31
-0.0001
  0
LINE
  5
30
100
AcDbEntity
  8
1
 62
10
100
AcDbLine
 10
6.0238
 20
-4.2830
 30
-0.0001
 11
6.0259
 21
-4.2834
 31
-0.0001
  0
LINE
  5
30
100
AcDbEntity
  8
1
 62
10
100
AcDbLine
 10
6.0259
 20
-4.2834
 30
-0.0001
 11
6.0281
 21
-4.2836
 31
-0.0001
  0
LINE
  5
30
100
AcDbEntity
  8
1
 62
10
100
AcDbLine
 10
6.0281
 20
-4.2836
 30
-0.0001
 11
6.0294
 21
-4.2837
 31
-0.0001
  0
LINE
  5
30
100
AcDbEntity
  8
1
 62
10
100
AcDbLine
 10
6.0294
 20
-4.2837
 30
-0.0001
 11
6.0294
 21
-4.2838
 31
-0.0001
  0
LINE
  5
30
100
AcDbEntity
  8
1
 62
10
100
AcDbLine
 10
6.0294
 20
-4.2838
 30
-0.0001
 11
6.2697
 21
-4.2838
 31
-0.0001
  0
LINE
  5
30
100
AcDbEntity
  8
1
 62
10
100
AcDbLine
 10
6.2697
 20
-4.2838
 30
-0.0001
 11
6.2909
 21
-4.2838
 31
-0.0001
  0
LINE
  5
30
100
AcDbEntity
  8
1
 62
10
100
AcDbLine
 10
6.2909
 20
-4.2838
 30
-0.0001
 11
6.2930
 21
-4.2837
 31
-0.0001
  0
LINE
  5
30
100
AcDbEntity
  8
1
 62
10
100
AcDbLine
 10
6.2930
 20
-4.2837
 30
-0.0001
 11
6.2952
 21
-4.2834
 31
-0.0001
  0
LINE
  5
30
100
AcDbEntity
  8
1
 62
10
100
AcDbLine
 10
6.2952
 20
-4.2834
 30
-0.0001
 11
6.2973
 21
-4.2829
 31
-0.0001
  0
LINE
  5
30
100
AcDbEntity
  8
1
 62
10
100
AcDbLine
 10
6.2973
 20
-4.2829
 30
-0.0001
 11
6.2993
 21
-4.2823
 31
-0.0001
  0
LINE
  5
30
100
AcDbEntity
  8
1
 62
10
100
AcDbLine
 10
6.2993
 20
-4.2823
 30
-0.0001
 11
6.3013
 21
-4.2815
 31
-0.0001
  0
LINE
  5
30
100
AcDbEntity
  8
1
 62
10
100
AcDbLine
 10
6.3013
 20
-4.2815
 30
-0.0001
 11
6.3032
 21
-4.2805
 31
-0.0001
  0
LINE
  5
30
100
AcDbEntity
  8
1
 62
10
100
AcDbLine
 10
6.3032
 20
-4.2805
 30
-0.0001
 11
6.3051
 21
-4.2793
 31
-0.0001
  0
LINE
  5
30
100
AcDbEntity
  8
1
 62
10
100
AcDbLine
 10
6.3051
 20
-4.2793
 30
-0.0001
 11
6.3068
 21
-4.2780
 31
-0.0001
  0
LINE
  5
30
100
AcDbEntity
  8
1
 62
10
100
AcDbLine
 10
6.3068
 20
-4.2780
 30
-0.0001
 11
6.3084
 21
-4.2765
 31
-0.0001
  0
LINE
  5
30
100
AcDbEntity
  8
1
 62
10
100
AcDbLine
 10
6.3084
 20
-4.2765
 30
-0.0001
 11
6.3086
 21
-4.2763
 31
-0.0001
  0
LINE
  5
30
100
AcDbEntity
  8
1
 62
10
100
AcDbLine
 10
6.3086
 20
-4.2763
 30
-0.0001
 11
6.3085
 21
-4.2762
 31
-0.0001
  0
LINE
  5
30
100
AcDbEntity
  8
1
 62
10
100
AcDbLine
 10
6.3085
 20
-4.2762
 30
-0.0001
 11
6.3085
 21
-4.2762
 31
0.0039
  0
LINE
  5
30
100
AcDbEntity
  8
1
 62
10
100
AcDbLine
 10
5.9900
 20
-4.2373
 30
0.0039
 11
5.9900
 21
-4.2373
 31
-0.0001
  0
LINE
  5
30
100
AcDbEntity
  8
1
 62
10
100
AcDbLine
 10
5.9900
 20
-4.2373
 30
-0.0001
 11
6.0178
 21
-4.2373
 31
-0.0001
  0
LINE
  5
30
100
AcDbEntity
  8
1
 62
10
100
AcDbLine
 10
6.0178
 20
-4.2373
 30
-0.0001
 11
6.0190
 21
-4.2367
 31
-0.0001
  0
LINE
  5
30
100
AcDbEntity
  8
1
 62
10
100
AcDbLine
 10
6.0190
 20
-4.2367
 30
-0.0001
 11
6.0210
 21
-4.2359
 31
-0.0001
  0
LINE
  5
30
100
AcDbEntity
  8
1
 62
10
100
AcDbLine
 10
6.0210
 20
-4.2359
 30
-0.0001
 11
6.0230
 21
-4.2352
 31
-0.0001
  0
LINE
  5
30
100
AcDbEntity
  8
1
 62
10
100
AcDbLine
 10
6.0230
 20
-4.2352
 30
-0.0001
 11
6.0251
 21
-4.2348
 31
-0.0001
  0
LINE
  5
30
100
AcDbEntity
  8
1
 62
10
100
AcDbLine
 10
6.0251
 20
-4.2348
 30
-0.0001
 11
6.0273
 21
-4.2345
 31
-0.0001
  0
LINE
  5
30
100
AcDbEntity
  8
1
 62
10
100
AcDbLine
 10
6.0273
 20
-4.2345
 30
-0.0001
 11
6.0294
 21
-4.2344
 31
-0.0001
  0
LINE
  5
30
100
AcDbEntity
  8
1
 62
10
100
AcDbLine
 10
6.0294
 20
-4.2344
 30
-0.0001
 11
6.0294
 21
-4.2343
 31
-0.0001
  0
LINE
  5
30
100
AcDbEntity
  8
1
 62
10
100
AcDbLine
 10
6.0294
 20
-4.2343
 30
-0.0001
 11
6.2697
 21
-4.2343
 31
-0.0001
  0
LINE
  5
30
100
AcDbEntity
  8
1
 62
10
100
AcDbLine
 10
6.2697
 20
-4.2343
 30
-0.0001
 11
6.2803
 21
-4.2343
 31
-0.0001
  0
LINE
  5
30
100
AcDbEntity
  8
1
 62
10
100
AcDbLine
 10
6.2803
 20
-4.2343
 30
-0.0001
 11
6.3540
 21
-4.1606
 31
-0.0001
  0
LINE
  5
30
100
AcDbEntity
  8
1
 62
10
100
AcDbLine
 10
6.3540
 20
-4.1606
 30
-0.0001
 11
6.3540
 21
-4.1434
 31
-0.0001
  0
LINE
  5
30
100
AcDbEntity
  8
1
 62
10
100
AcDbLine
 10
6.3540
 20
-4.1434
 30
-0.0001
 11
6.3293
 21
-4.1434
 31
-0.0001
  0
LINE
  5
30
100
AcDbEntity
  8
1
 62
10
100
AcDbLine
 10
6.3293
 20
-4.1434
 30
-0.0001
 11
6.3293
 21
-4.0566
 31
-0.0001
  0
LINE
  5
30
100
AcDbEntity
  8
1
 62
10
100
AcDbLine
 10
6.3293
 20
-4.0566
 30
-0.0001
 11
6.4281
 21
-4.0566
 31
-0.0001
  0
LINE
  5
30
100
AcDbEntity
  8
1
 62
10
100
AcDbLine
 10
6.4281
 20
-4.0566
 30
-0.0001
 11
6.4281
 21
-4.0753
 31
-0.0001
  0
LINE
  5
30
100
AcDbEntity
  8
1
 62
10
100
AcDbLine
 10
6.4281
 20
-4.0753
 30
-0.0001
 11
6.4393
 21
-4.0753
 31
-0.0001
  0
LINE
  5
30
100
AcDbEntity
  8
1
 62
10
100
AcDbLine
 10
6.4393
 20
-4.0753
 30
-0.0001
 11
6.4751
 21
-4.0394
 31
-0.0001
  0
LINE
  5
30
100
AcDbEntity
  8
1
 62
10
100
AcDbLine
 10
6.4751
 20
-4.0394
 30
-0.0001
 11
6.4751
 21
-4.0001
 31
-0.0001
  0
LINE
  5
30
100
AcDbEntity
  8
1
 62
10
100
AcDbLine
 10
6.4751
 20
-4.0001
 30
-0.0001
 11
6.4751
 21
-3.9107
 31
-0.0001
  0
LINE
  5
30
100
AcDbEntity
  8
1
 62
10
100
AcDbLine
 10
6.4751
 20
-3.9107
 30
-0.0001
 11
6.3393
 21
-3.7750
 31
-0.0001
  0
LINE
  5
30
100
AcDbEntity
  8
1
 62
10
100
AcDbLine
 10
6.3393
 20
-3.7750
 30
-0.0001
 11
6.0501
 21
-3.7750
 31
-0.0001
  0
LINE
  5
30
100
AcDbEntity
  8
1
 62
10
100
AcDbLine
 10
6.0501
 20
-3.7750
 30
-0.0001
 11
6.0497
 21
-3.7750
 31
-0.0001
  0
LINE
  5
30
100
AcDbEntity
  8
1
 62
10
100
AcDbLine
 10
6.0497
 20
-3.7750
 30
-0.0001
 11
6.0476
 21
-3.7748
 31
-0.0001
  0
LINE
  5
30
100
AcDbEntity
  8
1
 62
10
100
AcDbLine
 10
6.0476
 20
-3.7748
 30
-0.0001
 11
6.0455
 21
-3.7745
 31
-0.0001
  0
LINE
  5
30
100
AcDbEntity
  8
1
 62
10
100
AcDbLine
 10
6.0455
 20
-3.7745
 30
-0.0001
 11
6.0434
 21
-3.7740
 31
-0.0001
  0
LINE
  5
30
100
AcDbEntity
  8
1
 62
10
100
AcDbLine
 10
6.0434
 20
-3.7740
 30
-0.0001
 11
6.0413
 21
-3.7733
 31
-0.0001
  0
LINE
  5
30
100
AcDbEntity
  8
1
 62
10
100
AcDbLine
 10
6.0413
 20
-3.7733
 30
-0.0001
 11
6.0393
 21
-3.7725
 31
-0.0001
  0
LINE
  5
30
100
AcDbEntity
  8
1
 62
10
100
AcDbLine
 10
6.0393
 20
-3.7725
 30
-0.0001
 11
6.0374
 21
-3.7715
 31
-0.0001
  0
LINE
  5
30
100
AcDbEntity
  8
1
 62
10
100
AcDbLine
 10
6.0374
 20
-3.7715
 30
-0.0001
 11
6.0356
 21
-3.7703
 31
-0.0001
  0
LINE
  5
30
100
AcDbEntity
  8
1
 62
10
100
AcDbLine
 10
6.0356
 20
-3.7703
 30
-0.0001
 11
6.0339
 21
-3.7689
 31
-0.0001
  0
LINE
  5
30
100
AcDbEntity
  8
1
 62
10
100
AcDbLine
 10
6.0339
 20
-3.7689
 30
-0.0001
 11
6.0324
 21
-3.7675
 31
-0.0001
  0
LINE
  5
30
100
AcDbEntity
  8
1
 62
10
100
AcDbLine
 10
6.0324
 20
-3.7675
 30
-0.0001
 11
6.0324
 21
-3.7674
 31
-0.0001
  0
LINE
  5
30
100
AcDbEntity
  8
1
 62
10
100
AcDbLine
 10
6.0324
 20
-3.7674
 30
-0.0001
 11
5.9825
 21
-3.7169
 31
-0.0001
  0
LINE
  5
30
100
AcDbEntity
  8
1
 62
10
100
AcDbLine
 10
5.9825
 20
-3.7169
 30
-0.0001
 11
5.9813
 21
-3.7156
 31
-0.0001
  0
LINE
  5
30
100
AcDbEntity
  8
1
 62
10
100
AcDbLine
 10
5.9813
 20
-3.7156
 30
-0.0001
 11
5.9800
 21
-3.7139
 31
-0.0001
  0
LINE
  5
30
100
AcDbEntity
  8
1
 62
10
100
AcDbLine
 10
5.9800
 20
-3.7139
 30
-0.0001
 11
5.9788
 21
-3.7121
 31
-0.0001
  0
LINE
  5
30
100
AcDbEntity
  8
1
 62
10
100
AcDbLine
 10
5.9788
 20
-3.7121
 30
-0.0001
 11
5.9778
 21
-3.7102
 31
-0.0001
  0
LINE
  5
30
100
AcDbEntity
  8
1
 62
10
100
AcDbLine
 10
5.9778
 20
-3.7102
 30
-0.0001
 11
5.9770
 21
-3.7082
 31
-0.0001
  0
LINE
  5
30
100
AcDbEntity
  8
1
 62
10
100
AcDbLine
 10
5.9770
 20
-3.7082
 30
-0.0001
 11
5.9764
 21
-3.7061
 31
-0.0001
  0
LINE
  5
30
100
AcDbEntity
  8
1
 62
10
100
AcDbLine
 10
5.9764
 20
-3.7061
 30
-0.0001
 11
5.9759
 21
-3.7040
 31
-0.0001
  0
LINE
  5
30
100
AcDbEntity
  8
1
 62
10
100
AcDbLine
 10
5.9759
 20
-3.7040
 30
-0.0001
 11
5.9756
 21
-3.7019
 31
-0.0001
  0
LINE
  5
30
100
AcDbEntity
  8
1
 62
10
100
AcDbLine
 10
5.9756
 20
-3.7019
 30
-0.0001
 11
5.9755
 21
-3.6998
 31
-0.0001
  0
LINE
  5
30
100
AcDbEntity
  8
1
 62
10
100
AcDbLine
 10
5.9755
 20
-3.6998
 30
-0.0001
 11
5.9754
 21
-3.6998
 31
-0.0001
  0
LINE
  5
30
100
AcDbEntity
  8
1
 62
10
100
AcDbLine
 10
5.9754
 20
-3.6998
 30
-0.0001
 11
5.9754
 21
-3.6927
 31
-0.0001
  0
LINE
  5
30
100
AcDbEntity
  8
1
 62
10
100
AcDbLine
 10
5.9754
 20
-3.6927
 30
-0.0001
 11
5.9754
 21
-3.6927
 31
-0.0001
  0
LINE
  5
30
100
AcDbEntity
  8
1
 62
10
100
AcDbLine
 10
5.9754
 20
-3.6927
 30
-0.0001
 11
5.9717
 21
-3.6904
 31
-0.0001
  0
LINE
  5
30
100
AcDbEntity
  8
1
 62
10
100
AcDbLine
 10
5.9717
 20
-3.6904
 30
-0.0001
 11
5.9683
 21
-3.6878
 31
-0.0001
  0
LINE
  5
30
100
AcDbEntity
  8
1
 62
10
100
AcDbLine
 10
5.9683
 20
-3.6878
 30
-0.0001
 11
5.9651
 21
-3.6848
 31
-0.0001
  0
LINE
  5
30
100
AcDbEntity
  8
1
 62
10
100
AcDbLine
 10
5.9651
 20
-3.6848
 30
-0.0001
 11
5.9622
 21
-3.6816
 31
-0.0001
  0
LINE
  5
30
100
AcDbEntity
  8
1
 62
10
100
AcDbLine
 10
5.9622
 20
-3.6816
 30
-0.0001
 11
5.9596
 21
-3.6782
 31
-0.0001
  0
LINE
  5
30
100
AcDbEntity
  8
1
 62
10
100
AcDbLine
 10
5.9596
 20
-3.6782
 30
-0.0001
 11
5.9572
 21
-3.6746
 31
-0.0001
  0
LINE
  5
30
100
AcDbEntity
  8
1
 62
10
100
AcDbLine
 10
5.9572
 20
-3.6746
 30
-0.0001
 11
5.9552
 21
-3.6707
 31
-0.0001
  0
LINE
  5
30
100
AcDbEntity
  8
1
 62
10
100
AcDbLine
 10
5.9552
 20
-3.6707
 30
-0.0001
 11
5.9536
 21
-3.6667
 31
-0.0001
  0
LINE
  5
30
100
AcDbEntity
  8
1
 62
10
100
AcDbLine
 10
5.9536
 20
-3.6667
 30
-0.0001
 11
5.9523
 21
-3.6626
 31
-0.0001
  0
LINE
  5
30
100
AcDbEntity
  8
1
 62
10
100
AcDbLine
 10
5.9523
 20
-3.6626
 30
-0.0001
 11
5.9514
 21
-3.6584
 31
-0.0001
  0
LINE
  5
30
100
AcDbEntity
  8
1
 62
10
100
AcDbLine
 10
5.9514
 20
-3.6584
 30
-0.0001
 11
5.9508
 21
-3.6541
 31
-0.0001
  0
LINE
  5
30
100
AcDbEntity
  8
1
 62
10
100
AcDbLine
 10
5.9508
 20
-3.6541
 30
-0.0001
 11
5.9506
 21
-3.6498
 31
-0.0001
  0
LINE
  5
30
100
AcDbEntity
  8
1
 62
10
100
AcDbLine
 10
5.9506
 20
-3.6498
 30
-0.0001
 11
5.9508
 21
-3.6455
 31
-0.0001
  0
LINE
  5
30
100
AcDbEntity
  8
1
 62
10
100
AcDbLine
 10
5.9508
 20
-3.6455
 30
-0.0001
 11
5.9514
 21
-3.6412
 31
-0.0001
  0
LINE
  5
30
100
AcDbEntity
  8
1
 62
10
100
AcDbLine
 10
5.9514
 20
-3.6412
 30
-0.0001
 11
5.9523
 21
-3.6370
 31
-0.0001
  0
LINE
  5
30
100
AcDbEntity
  8
1
 62
10
100
AcDbLine
 10
5.9523
 20
-3.6370
 30
-0.0001
 11
5.9536
 21
-3.6329
 31
-0.0001
  0
LINE
  5
30
100
AcDbEntity
  8
1
 62
10
100
AcDbLine
 10
5.9536
 20
-3.6329
 30
-0.0001
 11
5.9552
 21
-3.6289
 31
-0.0001
  0
LINE
  5
30
100
AcDbEntity
  8
1
 62
10
100
AcDbLine
 10
5.9552
 20
-3.6289
 30
-0.0001
 11
5.9572
 21
-3.6250
 31
-0.0001
  0
LINE
  5
30
100
AcDbEntity
  8
1
 62
10
100
AcDbLine
 10
5.9572
 20
-3.6250
 30
-0.0001
 11
5.9596
 21
-3.6214
 31
-0.0001
  0
LINE
  5
30
100
AcDbEntity
  8
1
 62
10
100
AcDbLine
 10
5.9596
 20
-3.6214
 30
-0.0001
 11
5.9622
 21
-3.6180
 31
-0.0001
  0
LINE
  5
30
100
AcDbEntity
  8
1
 62
10
100
AcDbLine
 10
5.9622
 20
-3.6180
 30
-0.0001
 11
5.9651
 21
-3.6148
 31
-0.0001
  0
LINE
  5
30
100
AcDbEntity
  8
1
 62
10
100
AcDbLine
 10
5.9651
 20
-3.6148
 30
-0.0001
 11
5.9683
 21
-3.6119
 31
-0.0001
  0
LINE
  5
30
100
AcDbEntity
  8
1
 62
10
100
AcDbLine
 10
5.9683
 20
-3.6119
 30
-0.0001
 11
5.9717
 21
-3.6092
 31
-0.0001
  0
LINE
  5
30
100
AcDbEntity
  8
1
 62
10
100
AcDbLine
 10
5.9717
 20
-3.6092
 30
-0.0001
 11
5.9754
 21
-3.6069
 31
-0.0001
  0
LINE
  5
30
100
AcDbEntity
  8
1
 62
10
100
AcDbLine
 10
5.9754
 20
-3.6069
 30
-0.0001
 11
5.9792
 21
-3.6049
 31
-0.0001
  0
LINE
  5
30
100
AcDbEntity
  8
1
 62
10
100
AcDbLine
 10
5.9792
 20
-3.6049
 30
-0.0001
 11
5.9832
 21
-3.6033
 31
-0.0001
  0
LINE
  5
30
100
AcDbEntity
  8
1
 62
10
100
AcDbLine
 10
5.9832
 20
-3.6033
 30
-0.0001
 11
5.9873
 21
-3.6020
 31
-0.0001
  0
LINE
  5
30
100
AcDbEntity
  8
1
 62
10
100
AcDbLine
 10
5.9873
 20
-3.6020
 30
-0.0001
 11
5.9915
 21
-3.6010
 31
-0.0001
  0
LINE
  5
30
100
AcDbEntity
  8
1
 62
10
100
AcDbLine
 10
5.9915
 20
-3.6010
 30
-0.0001
 11
5.9958
 21
-3.6005
 31
-0.0001
  0
LINE
  5
30
100
AcDbEntity
  8
1
 62
10
100
AcDbLine
 10
5.9958
 20
-3.6005
 30
-0.0001
 11
6.0001
 21
-3.6003
 31
-0.0001
  0
LINE
  5
30
100
AcDbEntity
  8
1
 62
10
100
AcDbLine
 10
6.0001
 20
-3.6003
 30
-0.0001
 11
6.0045
 21
-3.6005
 31
-0.0001
  0
LINE
  5
30
100
AcDbEntity
  8
1
 62
10
100
AcDbLine
 10
6.0045
 20
-3.6005
 30
-0.0001
 11
6.0087
 21
-3.6010
 31
-0.0001
  0
LINE
  5
30
100
AcDbEntity
  8
1
 62
10
100
AcDbLine
 10
6.0087
 20
-3.6010
 30
-0.0001
 11
6.0130
 21
-3.6020
 31
-0.0001
  0
LINE
  5
30
100
AcDbEntity
  8
1
 62
10
100
AcDbLine
 10
6.0130
 20
-3.6020
 30
-0.0001
 11
6.0171
 21
-3.6033
 31
-0.0001
  0
LINE
  5
30
100
AcDbEntity
  8
1
 62
10
100
AcDbLine
 10
6.0171
 20
-3.6033
 30
-0.0001
 11
6.0211
 21
-3.6049
 31
-0.0001
  0
LINE
  5
30
100
AcDbEntity
  8
1
 62
10
100
AcDbLine
 10
6.0211
 20
-3.6049
 30
-0.0001
 11
6.0249
 21
-3.6069
 31
-0.0001
  0
LINE
  5
30
100
AcDbEntity
  8
1
 62
10
100
AcDbLine
 10
6.0249
 20
-3.6069
 30
-0.0001
 11
6.0286
 21
-3.6092
 31
-0.0001
  0
LINE
  5
30
100
AcDbEntity
  8
1
 62
10
100
AcDbLine
 10
6.0286
 20
-3.6092
 30
-0.0001
 11
6.0320
 21
-3.6119
 31
-0.0001
  0
LINE
  5
30
100
AcDbEntity
  8
1
 62
10
100
AcDbLine
 10
6.0320
 20
-3.6119
 30
-0.0001
 11
6.0352
 21
-3.6148
 31
-0.0001
  0
LINE
  5
30
100
AcDbEntity
  8
1
 62
10
100
AcDbLine
 10
6.0352
 20
-3.6148
 30
-0.0001
 11
6.0381
 21
-3.6180
 31
-0.0001
  0
LINE
  5
30
100
AcDbEntity
  8
1
 62
10
100
AcDbLine
 10
6.0381
 20
-3.6180
 30
-0.0001
 11
6.0407
 21
-3.6214
 31
-0.0001
  0
LINE
  5
30
100
AcDbEntity
  8
1
 62
10
100
AcDbLine
 10
6.0407
 20
-3.6214
 30
-0.0001
 11
6.0430
 21
-3.6250
 31
-0.0001
  0
LINE
  5
30
100
AcDbEntity
  8
1
 62
10
100
AcDbLine
 10
6.0430
 20
-3.6250
 30
-0.0001
 11
6.0450
 21
-3.6289
 31
-0.0001
  0
LINE
  5
30
100
AcDbEntity
  8
1
 62
10
100
AcDbLine
 10
6.0450
 20
-3.6289
 30
-0.0001
 11
6.0467
 21
-3.6329
 31
-0.0001
  0
LINE
  5
30
100
AcDbEntity
  8
1
 62
10
100
AcDbLine
 10
6.0467
 20
-3.6329
 30
-0.0001
 11
6.0480
 21
-3.6370
 31
-0.0001
  0
LINE
  5
30
100
AcDbEntity
  8
1
 62
10
100
AcDbLine
 10
6.0480
 20
-3.6370
 30
-0.0001
 11
6.0489
 21
-3.6412
 31
-0.0001
  0
LINE
  5
30
100
AcDbEntity
  8
1
 62
10
100
AcDbLine
 10
6.0489
 20
-3.6412
 30
-0.0001
 11
6.0495
 21
-3.6455
 31
-0.0001
  0
LINE
  5
30
100
AcDbEntity
  8
1
 62
10
100
AcDbLine
 10
6.0495
 20
-3.6455
 30
-0.0001
 11
6.0497
 21
-3.6498
 31
-0.0001
  0
LINE
  5
30
100
AcDbEntity
  8
1
 62
10
100
AcDbLine
 10
6.0497
 20
-3.6498
 30
-0.0001
 11
6.0496
 21
-3.6498
 31
-0.0001
  0
LINE
  5
30
100
AcDbEntity
  8
1
 62
10
100
AcDbLine
 10
6.0496
 20
-3.6498
 30
-0.0001
 11
6.0496
 21
-3.6516
 31
-0.0001
  0
LINE
  5
30
100
AcDbEntity
  8
1
 62
10
100
AcDbLine
 10
6.0496
 20
-3.6516
 30
-0.0001
 11
6.0492
 21
-3.6559
 31
-0.0001
  0
LINE
  5
30
100
AcDbEntity
  8
1
 62
10
100
AcDbLine
 10
6.0492
 20
-3.6559
 30
-0.0001
 11
6.0485
 21
-3.6602
 31
-0.0001
  0
LINE
  5
30
100
AcDbEntity
  8
1
 62
10
100
AcDbLine
 10
6.0485
 20
-3.6602
 30
-0.0001
 11
6.0474
 21
-3.6644
 31
-0.0001
  0
LINE
  5
30
100
AcDbEntity
  8
1
 62
10
100
AcDbLine
 10
6.0474
 20
-3.6644
 30
-0.0001
 11
6.0460
 21
-3.6684
 31
-0.0001
  0
LINE
  5
30
100
AcDbEntity
  8
1
 62
10
100
AcDbLine
 10
6.0460
 20
-3.6684
 30
-0.0001
 11
6.0442
 21
-3.6724
 31
-0.0001
  0
LINE
  5
30
100
AcDbEntity
  8
1
 62
10
100
AcDbLine
 10
6.0442
 20
-3.6724
 30
-0.0001
 11
6.0420
 21
-3.6761
 31
-0.0001
  0
LINE
  5
30
100
AcDbEntity
  8
1
 62
10
100
AcDbLine
 10
6.0420
 20
-3.6761
 30
-0.0001
 11
6.0396
 21
-3.6797
 31
-0.0001
  0
LINE
  5
30
100
AcDbEntity
  8
1
 62
10
100
AcDbLine
 10
6.0396
 20
-3.6797
 30
-0.0001
 11
6.0368
 21
-3.6830
 31
-0.0001
  0
LINE
  5
30
100
AcDbEntity
  8
1
 62
10
100
AcDbLine
 10
6.0368
 20
-3.6830
 30
-0.0001
 11
6.0338
 21
-3.6860
 31
-0.0001
  0
LINE
  5
30
100
AcDbEntity
  8
1
 62
10
100
AcDbLine
 10
6.0338
 20
-3.6860
 30
-0.0001
 11
6.0305
 21
-3.6888
 31
-0.0001
  0
LINE
  5
30
100
AcDbEntity
  8
1
 62
10
100
AcDbLine
 10
6.0305
 20
-3.6888
 30
-0.0001
 11
6.0270
 21
-3.6913
 31
-0.0001
  0
LINE
  5
30
100
AcDbEntity
  8
1
 62
10
100
AcDbLine
 10
6.0270
 20
-3.6913
 30
-0.0001
 11
6.0269
 21
-3.6912
 31
-0.0001
  0
LINE
  5
30
100
AcDbEntity
  8
1
 62
10
100
AcDbLine
 10
6.0269
 20
-3.6912
 30
-0.0001
 11
6.0269
 21
-3.6912
 31
0.0039
  0
LINE
  5
30
100
AcDbEntity
  8
1
 62
10
100
AcDbLine
 10
5.9900
 20
-4.2807
 30
0.0039
 11
5.9900
 21
-4.2807
 31
-0.0001
  0
LINE
  5
30
100
AcDbEntity
  8
1
 62
10
100
AcDbLine
 10
5.9900
 20
-4.2807
 30
-0.0001
 11
5.9900
 21
-4.2373
 31
-0.0001
  0
LINE
  5
30
100
AcDbEntity
  8
1
 62
10
100
AcDbLine
 10
5.9900
 20
-4.2373
 30
-0.0001
 11
5.9900
 21
-4.2373
 31
0.0039
  0
LINE
  5
30
100
AcDbEntity
  8
1
 62
10
100
AcDbLine
 10
5.9900
 20
-4.2307
 30
0.0039
 11
5.9900
 21
-4.2307
 31
-0.0001
  0
LINE
  5
30
100
AcDbEntity
  8
1
 62
10
100
AcDbLine
 10
5.9900
 20
-4.2307
 30
-0.0001
 11
6.0178
 21
-4.2307
 31
-0.0001
  0
LINE
  5
30
100
AcDbEntity
  8
1
 62
10
100
AcDbLine
 10
6.0178
 20
-4.2307
 30
-0.0001
 11
6.0197
 21
-4.2317
 31
-0.0001
  0
LINE
  5
30
100
AcDbEntity
  8
1
 62
10
100
AcDbLine
 10
6.0197
 20
-4.2317
 30
-0.0001
 11
6.0217
 21
-4.2324
 31
-0.0001
  0
LINE
  5
30
100
AcDbEntity
  8
1
 62
10
100
AcDbLine
 10
6.0217
 20
-4.2324
 30
-0.0001
 11
6.0238
 21
-4.2330
 31
-0.0001
  0
LINE
  5
30
100
AcDbEntity
  8
1
 62
10
100
AcDbLine
 10
6.0238
 20
-4.2330
 30
-0.0001
 11
6.0259
 21
-4.2334
 31
-0.0001
  0
LINE
  5
30
100
AcDbEntity
  8
1
 62
10
100
AcDbLine
 10
6.0259
 20
-4.2334
 30
-0.0001
 11
6.0281
 21
-4.2336
 31
-0.0001
  0
LINE
  5
30
100
AcDbEntity
  8
1
 62
10
100
AcDbLine
 10
6.0281
 20
-4.2336
 30
-0.0001
 11
6.0294
 21
-4.2337
 31
-0.0001
  0
LINE
  5
30
100
AcDbEntity
  8
1
 62
10
100
AcDbLine
 10
6.0294
 20
-4.2337
 30
-0.0001
 11
6.0294
 21
-4.2338
 31
-0.0001
  0
LINE
  5
30
100
AcDbEntity
  8
1
 62
10
100
AcDbLine
 10
6.0294
 20
-4.2338
 30
-0.0001
 11
6.2409
 21
-4.2338
 31
-0.0001
  0
LINE
  5
30
100
AcDbEntity
  8
1
 62
10
100
AcDbLine
 10
6.2409
 20
-4.2338
 30
-0.0001
 11
6.2431
 21
-4.2337
 31
-0.0001
  0
LINE
  5
30
100
AcDbEntity
  8
1
 62
10
100
AcDbLine
 10
6.2431
 20
-4.2337
 30
-0.0001
 11
6.2452
 21
-4.2334
 31
-0.0001
  0
LINE
  5
30
100
AcDbEntity
  8
1
 62
10
100
AcDbLine
 10
6.2452
 20
-4.2334
 30
-0.0001
 11
6.2473
 21
-4.2329
 31
-0.0001
  0
LINE
  5
30
100
AcDbEntity
  8
1
 62
10
100
AcDbLine
 10
6.2473
 20
-4.2329
 30
-0.0001
 11
6.2494
 21
-4.2323
 31
-0.0001
  0
LINE
  5
30
100
AcDbEntity
  8
1
 62
10
100
AcDbLine
 10
6.2494
 20
-4.2323
 30
-0.0001
 11
6.2514
 21
-4.2315
 31
-0.0001
  0
LINE
  5
30
100
AcDbEntity
  8
1
 62
10
100
AcDbLine
 10
6.2514
 20
-4.2315
 30
-0.0001
 11
6.2533
 21
-4.2305
 31
-0.0001
  0
LINE
  5
30
100
AcDbEntity
  8
1
 62
10
100
AcDbLine
 10
6.2533
 20
-4.2305
 30
-0.0001
 11
6.2551
 21
-4.2293
 31
-0.0001
  0
LINE
  5
30
100
AcDbEntity
  8
1
 62
10
100
AcDbLine
 10
6.2551
 20
-4.2293
 30
-0.0001
 11
6.2568
 21
-4.2280
 31
-0.0001
  0
LINE
  5
30
100
AcDbEntity
  8
1
 62
10
100
AcDbLine
 10
6.2568
 20
-4.2280
 30
-0.0001
 11
6.2584
 21
-4.2265
 31
-0.0001
  0
LINE
  5
30
100
AcDbEntity
  8
1
 62
10
100
AcDbLine
 10
6.2584
 20
-4.2265
 30
-0.0001
 11
6.2586
 21
-4.2263
 31
-0.0001
  0
LINE
  5
30
100
AcDbEntity
  8
1
 62
10
100
AcDbLine
 10
6.2586
 20
-4.2263
 30
-0.0001
 11
6.2586
 21
-4.2262
 31
-0.0001
  0
LINE
  5
30
100
AcDbEntity
  8
1
 62
10
100
AcDbLine
 10
6.2586
 20
-4.2262
 30
-0.0001
 11
6.2586
 21
-4.2262
 31
0.0039
  0
LINE
  5
30
100
AcDbEntity
  8
1
 62
10
100
AcDbLine
 10
5.9900
 20
-4.1874
 30
0.0039
 11
5.9900
 21
-4.1874
 31
-0.0001
  0
LINE
  5
30
100
AcDbEntity
  8
1
 62
10
100
AcDbLine
 10
5.9900
 20
-4.1874
 30
-0.0001
 11
6.0178
 21
-4.1874
 31
-0.0001
  0
LINE
  5
30
100
AcDbEntity
  8
1
 62
10
100
AcDbLine
 10
6.0178
 20
-4.1874
 30
-0.0001
 11
6.0190
 21
-4.1868
 31
-0.0001
  0
LINE
  5
30
100
AcDbEntity
  8
1
 62
10
100
AcDbLine
 10
6.0190
 20
-4.1868
 30
-0.0001
 11
6.0210
 21
-4.1859
 31
-0.0001
  0
LINE
  5
30
100
AcDbEntity
  8
1
 62
10
100
AcDbLine
 10
6.0210
 20
-4.1859
 30
-0.0001
 11
6.0230
 21
-4.1853
 31
-0.0001
  0
LINE
  5
30
100
AcDbEntity
  8
1
 62
10
100
AcDbLine
 10
6.0230
 20
-4.1853
 30
-0.0001
 11
6.0251
 21
-4.1848
 31
-0.0001
  0
LINE
  5
30
100
AcDbEntity
  8
1
 62
10
100
AcDbLine
 10
6.0251
 20
-4.1848
 30
-0.0001
 11
6.0273
 21
-4.1845
 31
-0.0001
  0
LINE
  5
30
100
AcDbEntity
  8
1
 62
10
100
AcDbLine
 10
6.0273
 20
-4.1845
 30
-0.0001
 11
6.0294
 21
-4.1844
 31
-0.0001
  0
LINE
  5
30
100
AcDbEntity
  8
1
 62
10
100
AcDbLine
 10
6.0294
 20
-4.1844
 30
-0.0001
 11
6.0294
 21
-4.1843
 31
-0.0001
  0
LINE
  5
30
100
AcDbEntity
  8
1
 62
10
100
AcDbLine
 10
6.0294
 20
-4.1843
 30
-0.0001
 11
6.2303
 21
-4.1843
 31
-0.0001
  0
LINE
  5
30
100
AcDbEntity
  8
1
 62
10
100
AcDbLine
 10
6.2303
 20
-4.1843
 30
-0.0001
 11
6.2752
 21
-4.1394
 31
-0.0001
  0
LINE
  5
30
100
AcDbEntity
  8
1
 62
10
100
AcDbLine
 10
6.2752
 20
-4.1394
 30
-0.0001
 11
6.2752
 21
-4.0289
 31
-0.0001
  0
LINE
  5
30
100
AcDbEntity
  8
1
 62
10
100
AcDbLine
 10
6.2752
 20
-4.0289
 30
-0.0001
 11
6.2753
 21
-4.0271
 31
-0.0001
  0
LINE
  5
30
100
AcDbEntity
  8
1
 62
10
100
AcDbLine
 10
6.2753
 20
-4.0271
 30
-0.0001
 11
6.2756
 21
-4.0249
 31
-0.0001
  0
LINE
  5
30
100
AcDbEntity
  8
1
 62
10
100
AcDbLine
 10
6.2756
 20
-4.0249
 30
-0.0001
 11
6.2760
 21
-4.0228
 31
-0.0001
  0
LINE
  5
30
100
AcDbEntity
  8
1
 62
10
100
AcDbLine
 10
6.2760
 20
-4.0228
 30
-0.0001
 11
6.2766
 21
-4.0207
 31
-0.0001
  0
LINE
  5
30
100
AcDbEntity
  8
1
 62
10
100
AcDbLine
 10
6.2766
 20
-4.0207
 30
-0.0001
 11
6.2774
 21
-4.0187
 31
-0.0001
  0
LINE
  5
30
100
AcDbEntity
  8
1
 62
10
100
AcDbLine
 10
6.2774
 20
-4.0187
 30
-0.0001
 11
6.2784
 21
-4.0168
 31
-0.0001
  0
LINE
  5
30
100
AcDbEntity
  8
1
 62
10
100
AcDbLine
 10
6.2784
 20
-4.0168
 30
-0.0001
 11
6.2795
 21
-4.0150
 31
-0.0001
  0
LINE
  5
30
100
AcDbEntity
  8
1
 62
10
100
AcDbLine
 10
6.2795
 20
-4.0150
 30
-0.0001
 11
6.2808
 21
-4.0133
 31
-0.0001
  0
LINE
  5
30
100
AcDbEntity
  8
1
 62
10
100
AcDbLine
 10
6.2808
 20
-4.0133
 30
-0.0001
 11
6.2822
 21
-4.0116
 31
-0.0001
  0
LINE
  5
30
100
AcDbEntity
  8
1
 62
10
100
AcDbLine
 10
6.2822
 20
-4.0116
 30
-0.0001
 11
6.2823
 21
-4.0117
 31
-0.0001
  0
LINE
  5
30
100
AcDbEntity
  8
1
 62
10
100
AcDbLine
 10
6.2823
 20
-4.0117
 30
-0.0001
 11
6.2823
 21
-4.0117
 31
0.0039
  0
LINE
  5
30
100
AcDbEntity
  8
1
 62
10
100
AcDbLine
 10
5.9900
 20
-4.2307
 30
0.0039
 11
5.9900
 21
-4.2307
 31
-0.0001
  0
LINE
  5
30
100
AcDbEntity
  8
1
 62
10
100
AcDbLine
 10
5.9900
 20
-4.2307
 30
-0.0001
 11
5.9900
 21
-4.1874
 31
-0.0001
  0
LINE
  5
30
100
AcDbEntity
  8
1
 62
10
100
AcDbLine
 10
5.9900
 20
-4.1874
 30
-0.0001
 11
5.9900
 21
-4.1874
 31
0.0039
  0
LINE
  5
30
100
AcDbEntity
  8
1
 62
10
100
AcDbLine
 10
5.9900
 20
-4.1808
 30
0.0039
 11
5.9900
 21
-4.1808
 31
-0.0001
  0
LINE
  5
30
100
AcDbEntity
  8
1
 62
10
100
AcDbLine
 10
5.9900
 20
-4.1808
 30
-0.0001
 11
6.0693
 21
-4.1808
 31
-0.0001
  0
LINE
  5
30
100
AcDbEntity
  8
1
 62
10
100
AcDbLine
 10
6.0693
 20
-4.1808
 30
-0.0001
 11
6.0693
 21
-4.1374
 31
-0.0001
  0
LINE
  5
30
100
AcDbEntity
  8
1
 62
10
100
AcDbLine
 10
6.0693
 20
-4.1374
 30
-0.0001
 11
5.9900
 21
-4.1374
 31
-0.0001
  0
LINE
  5
30
100
AcDbEntity
  8
1
 62
10
100
AcDbLine
 10
5.9900
 20
-4.1374
 30
-0.0001
 11
5.9900
 21
-4.1808
 31
-0.0001
  0
LINE
  5
30
100
AcDbEntity
  8
1
 62
10
100
AcDbLine
 10
5.9900
 20
-4.1808
 30
-0.0001
 11
5.9900
 21
-4.1808
 31
0.0039
  0
LINE
  5
30
100
AcDbEntity
  8
1
 62
10
100
AcDbLine
 10
5.9900
 20
-4.1308
 30
0.0039
 11
5.9900
 21
-4.1308
 31
-0.0001
  0
LINE
  5
30
100
AcDbEntity
  8
1
 62
10
100
AcDbLine
 10
5.9900
 20
-4.1308
 30
-0.0001
 11
6.0693
 21
-4.1308
 31
-0.0001
  0
LINE
  5
30
100
AcDbEntity
  8
1
 62
10
100
AcDbLine
 10
6.0693
 20
-4.1308
 30
-0.0001
 11
6.0693
 21
-4.0874
 31
-0.0001
  0
LINE
  5
30
100
AcDbEntity
  8
1
 62
10
100
AcDbLine
 10
6.0693
 20
-4.0874
 30
-0.0001
 11
5.9900
 21
-4.0874
 31
-0.0001
  0
LINE
  5
30
100
AcDbEntity
  8
1
 62
10
100
AcDbLine
 10
5.9900
 20
-4.0874
 30
-0.0001
 11
5.9900
 21
-4.1308
 31
-0.0001
  0
LINE
  5
30
100
AcDbEntity
  8
1
 62
10
100
AcDbLine
 10
5.9900
 20
-4.1308
 30
-0.0001
 11
5.9900
 21
-4.1308
 31
0.0039
  0
LINE
  5
30
100
AcDbEntity
  8
1
 62
10
100
AcDbLine
 10
5.9900
 20
-4.0809
 30
0.0039
 11
5.9900
 21
-4.0809
 31
-0.0001
  0
LINE
  5
30
100
AcDbEntity
  8
1
 62
10
100
AcDbLine
 10
5.9900
 20
-4.0809
 30
-0.0001
 11
6.0693
 21
-4.0809
 31
-0.0001
  0
LINE
  5
30
100
AcDbEntity
  8
1
 62
10
100
AcDbLine
 10
6.0693
 20
-4.0809
 30
-0.0001
 11
6.0693
 21
-4.0374
 31
-0.0001
  0
LINE
  5
30
100
AcDbEntity
  8
1
 62
10
100
AcDbLine
 10
6.0693
 20
-4.0374
 30
-0.0001
 11
5.9900
 21
-4.0374
 31
-0.0001
  0
LINE
  5
30
100
AcDbEntity
  8
1
 62
10
100
AcDbLine
 10
5.9900
 20
-4.0374
 30
-0.0001
 11
5.9900
 21
-4.0809
 31
-0.0001
  0
LINE
  5
30
100
AcDbEntity
  8
1
 62
10
100
AcDbLine
 10
5.9900
 20
-4.0809
 30
-0.0001
 11
5.9900
 21
-4.0809
 31
0.0039
  0
LINE
  5
30
100
AcDbEntity
  8
1
 62
10
100
AcDbLine
 10
5.9900
 20
-4.0309
 30
0.0039
 11
5.9900
 21
-4.0309
 31
-0.0001
  0
LINE
  5
30
100
AcDbEntity
  8
1
 62
10
100
AcDbLine
 10
5.9900
 20
-4.0309
 30
-0.0001
 11
6.0693
 21
-4.0309
 31
-0.0001
  0
LINE
  5
30
100
AcDbEntity
  8
1
 62
10
100
AcDbLine
 10
6.0693
 20
-4.0309
 30
-0.0001
 11
6.0693
 21
-3.9875
 31
-0.0001
  0
LINE
  5
30
100
AcDbEntity
  8
1
 62
10
100
AcDbLine
 10
6.0693
 20
-3.9875
 30
-0.0001
 11
5.9900
 21
-3.9875
 31
-0.0001
  0
LINE
  5
30
100
AcDbEntity
  8
1
 62
10
100
AcDbLine
 10
5.9900
 20
-3.9875
 30
-0.0001
 11
5.9900
 21
-4.0309
 31
-0.0001
  0
LINE
  5
30
100
AcDbEntity
  8
1
 62
10
100
AcDbLine
 10
5.9900
 20
-4.0309
 30
-0.0001
 11
5.9900
 21
-4.0309
 31
0.0039
  0
LINE
  5
30
100
AcDbEntity
  8
1
 62
10
100
AcDbLine
 10
5.9900
 20
-3.9809
 30
0.0039
 11
5.9900
 21
-3.9809
 31
-0.0001
  0
LINE
  5
30
100
AcDbEntity
  8
1
 62
10
100
AcDbLine
 10
5.9900
 20
-3.9809
 30
-0.0001
 11
6.0693
 21
-3.9809
 31
-0.0001
  0
LINE
  5
30
100
AcDbEntity
  8
1
 62
10
100
AcDbLine
 10
6.0693
 20
-3.9809
 30
-0.0001
 11
6.0693
 21
-3.9375
 31
-0.0001
  0
LINE
  5
30
100
AcDbEntity
  8
1
 62
10
100
AcDbLine
 10
6.0693
 20
-3.9375
 30
-0.0001
 11
5.9900
 21
-3.9375
 31
-0.0001
  0
LINE
  5
30
100
AcDbEntity
  8
1
 62
10
100
AcDbLine
 10
5.9900
 20
-3.9375
 30
-0.0001
 11
5.9900
 21
-3.9809
 31
-0.0001
  0
LINE
  5
30
100
AcDbEntity
  8
1
 62
10
100
AcDbLine
 10
5.9900
 20
-3.9809
 30
-0.0001
 11
5.9900
 21
-3.9809
 31
0.0039
  0
LINE
  5
30
100
AcDbEntity
  8
1
 62
10
100
AcDbLine
 10
6.1718
 20
-3.9935
 30
0.0039
 11
6.1718
 21
-3.9935
 31
-0.0001
  0
LINE
  5
30
100
AcDbEntity
  8
1
 62
10
100
AcDbLine
 10
6.1718
 20
-3.9935
 30
-0.0001
 11
6.1965
 21
-3.9935
 31
-0.0001
  0
LINE
  5
30
100
AcDbEntity
  8
1
 62
10
100
AcDbLine
 10
6.1965
 20
-3.9935
 30
-0.0001
 11
6.1965
 21
-4.0566
 31
-0.0001
  0
LINE
  5
30
100
AcDbEntity
  8
1
 62
10
100
AcDbLine
 10
6.1965
 20
-4.0566
 30
-0.0001
 11
6.1718
 21
-4.0566
 31
-0.0001
  0
LINE
  5
30
100
AcDbEntity
  8
1
 62
10
100
AcDbLine
 10
6.1718
 20
-4.0566
 30
-0.0001
 11
6.1718
 21
-4.1434
 31
-0.0001
  0
LINE
  5
30
100
AcDbEntity
  8
1
 62
10
100
AcDbLine
 10
6.1718
 20
-4.1434
 30
-0.0001
 11
6.2707
 21
-4.1434
 31
-0.0001
  0
LINE
  5
30
100
AcDbEntity
  8
1
 62
10
100
AcDbLine
 10
6.2707
 20
-4.1434
 30
-0.0001
 11
6.2707
 21
-4.0566
 31
-0.0001
  0
LINE
  5
30
100
AcDbEntity
  8
1
 62
10
100
AcDbLine
 10
6.2707
 20
-4.0566
 30
-0.0001
 11
6.2459
 21
-4.0566
 31
-0.0001
  0
LINE
  5
30
100
AcDbEntity
  8
1
 62
10
100
AcDbLine
 10
6.2459
 20
-4.0566
 30
-0.0001
 11
6.2459
 21
-3.9935
 31
-0.0001
  0
LINE
  5
30
100
AcDbEntity
  8
1
 62
10
100
AcDbLine
 10
6.2459
 20
-3.9935
 30
-0.0001
 11
6.2707
 21
-3.9935
 31
-0.0001
  0
LINE
  5
30
100
AcDbEntity
  8
1
 62
10
100
AcDbLine
 10
6.2707
 20
-3.9935
 30
-0.0001
 11
6.2707
 21
-3.9067
 31
-0.0001
  0
LINE
  5
30
100
AcDbEntity
  8
1
 62
10
100
AcDbLine
 10
6.2707
 20
-3.9067
 30
-0.0001
 11
6.1793
 21
-3.9067
 31
-0.0001
  0
LINE
  5
30
100
AcDbEntity
  8
1
 62
10
100
AcDbLine
 10
6.1793
 20
-3.9067
 30
-0.0001
 11
6.0637
 21
-3.8295
 31
-0.0001
  0
LINE
  5
30
100
AcDbEntity
  8
1
 62
10
100
AcDbLine
 10
6.0637
 20
-3.8295
 30
-0.0001
 11
6.0619
 21
-3.8284
 31
-0.0001
  0
LINE
  5
30
100
AcDbEntity
  8
1
 62
10
100
AcDbLine
 10
6.0619
 20
-3.8284
 30
-0.0001
 11
6.0599
 21
-3.8274
 31
-0.0001
  0
LINE
  5
30
100
AcDbEntity
  8
1
 62
10
100
AcDbLine
 10
6.0599
 20
-3.8274
 30
-0.0001
 11
6.0579
 21
-3.8267
 31
-0.0001
  0
LINE
  5
30
100
AcDbEntity
  8
1
 62
10
100
AcDbLine
 10
6.0579
 20
-3.8267
 30
-0.0001
 11
6.0558
 21
-3.8261
 31
-0.0001
  0
LINE
  5
30
100
AcDbEntity
  8
1
 62
10
100
AcDbLine
 10
6.0558
 20
-3.8261
 30
-0.0001
 11
6.0537
 21
-3.8257
 31
-0.0001
  0
LINE
  5
30
100
AcDbEntity
  8
1
 62
10
100
AcDbLine
 10
6.0537
 20
-3.8257
 30
-0.0001
 11
6.0516
 21
-3.8254
 31
-0.0001
  0
LINE
  5
30
100
AcDbEntity
  8
1
 62
10
100
AcDbLine
 10
6.0516
 20
-3.8254
 30
-0.0001
 11
6.0501
 21
-3.8254
 31
-0.0001
  0
LINE
  5
30
100
AcDbEntity
  8
1
 62
10
100
AcDbLine
 10
6.0501
 20
-3.8254
 30
-0.0001
 11
6.0501
 21
-3.8255
 31
-0.0001
  0
LINE
  5
30
100
AcDbEntity
  8
1
 62
10
100
AcDbLine
 10
6.0501
 20
-3.8255
 30
-0.0001
 11
5.9108
 21
-3.8255
 31
-0.0001
  0
LINE
  5
30
100
AcDbEntity
  8
1
 62
10
100
AcDbLine
 10
5.9108
 20
-3.8255
 30
-0.0001
 11
5.8245
 21
-3.7396
 31
-0.0001
  0
LINE
  5
30
100
AcDbEntity
  8
1
 62
10
100
AcDbLine
 10
5.8245
 20
-3.7396
 30
-0.0001
 11
5.8245
 21
-3.6927
 31
-0.0001
  0
LINE
  5
30
100
AcDbEntity
  8
1
 62
10
100
AcDbLine
 10
5.8245
 20
-3.6927
 30
-0.0001
 11
5.8281
 21
-3.6904
 31
-0.0001
  0
LINE
  5
30
100
AcDbEntity
  8
1
 62
10
100
AcDbLine
 10
5.8281
 20
-3.6904
 30
-0.0001
 11
5.8316
 21
-3.6878
 31
-0.0001
  0
LINE
  5
30
100
AcDbEntity
  8
1
 62
10
100
AcDbLine
 10
5.8316
 20
-3.6878
 30
-0.0001
 11
5.8348
 21
-3.6849
 31
-0.0001
  0
LINE
  5
30
100
AcDbEntity
  8
1
 62
10
100
AcDbLine
 10
5.8348
 20
-3.6849
 30
-0.0001
 11
5.8377
 21
-3.6817
 31
-0.0001
  0
LINE
  5
30
100
AcDbEntity
  8
1
 62
10
100
AcDbLine
 10
5.8377
 20
-3.6817
 30
-0.0001
 11
5.8403
 21
-3.6782
 31
-0.0001
  0
LINE
  5
30
100
AcDbEntity
  8
1
 62
10
100
AcDbLine
 10
5.8403
 20
-3.6782
 30
-0.0001
 11
5.8426
 21
-3.6746
 31
-0.0001
  0
LINE
  5
30
100
AcDbEntity
  8
1
 62
10
100
AcDbLine
 10
5.8426
 20
-3.6746
 30
-0.0001
 11
5.8446
 21
-3.6708
 31
-0.0001
  0
LINE
  5
30
100
AcDbEntity
  8
1
 62
10
100
AcDbLine
 10
5.8446
 20
-3.6708
 30
-0.0001
 11
5.8463
 21
-3.6668
 31
-0.0001
  0
LINE
  5
30
100
AcDbEntity
  8
1
 62
10
100
AcDbLine
 10
5.8463
 20
-3.6668
 30
-0.0001
 11
5.8476
 21
-3.6627
 31
-0.0001
  0
LINE
  5
30
100
AcDbEntity
  8
1
 62
10
100
AcDbLine
 10
5.8476
 20
-3.6627
 30
-0.0001
 11
5.8485
 21
-3.6584
 31
-0.0001
  0
LINE
  5
30
100
AcDbEntity
  8
1
 62
10
100
AcDbLine
 10
5.8485
 20
-3.6584
 30
-0.0001
 11
5.8491
 21
-3.6542
 31
-0.0001
  0
LINE
  5
30
100
AcDbEntity
  8
1
 62
10
100
AcDbLine
 10
5.8491
 20
-3.6542
 30
-0.0001
 11
5.8493
 21
-3.6498
 31
-0.0001
  0
LINE
  5
30
100
AcDbEntity
  8
1
 62
10
100
AcDbLine
 10
5.8493
 20
-3.6498
 30
-0.0001
 11
5.8493
 21
-3.6498
 31
-0.0001
  0
LINE
  5
30
100
AcDbEntity
  8
1
 62
10
100
AcDbLine
 10
5.8493
 20
-3.6498
 30
-0.0001
 11
5.8492
 21
-3.6498
 31
-0.0001
  0
LINE
  5
30
100
AcDbEntity
  8
1
 62
10
100
AcDbLine
 10
5.8492
 20
-3.6498
 30
-0.0001
 11
5.8490
 21
-3.6455
 31
-0.0001
  0
LINE
  5
30
100
AcDbEntity
  8
1
 62
10
100
AcDbLine
 10
5.8490
 20
-3.6455
 30
-0.0001
 11
5.8485
 21
-3.6412
 31
-0.0001
  0
LINE
  5
30
100
AcDbEntity
  8
1
 62
10
100
AcDbLine
 10
5.8485
 20
-3.6412
 30
-0.0001
 11
5.8475
 21
-3.6370
 31
-0.0001
  0
LINE
  5
30
100
AcDbEntity
  8
1
 62
10
100
AcDbLine
 10
5.8475
 20
-3.6370
 30
-0.0001
 11
5.8462
 21
-3.6329
 31
-0.0001
  0
LINE
  5
30
100
AcDbEntity
  8
1
 62
10
100
AcDbLine
 10
5.8462
 20
-3.6329
 30
-0.0001
 11
5.8446
 21
-3.6289
 31
-0.0001
  0
LINE
  5
30
100
AcDbEntity
  8
1
 62
10
100
AcDbLine
 10
5.8446
 20
-3.6289
 30
-0.0001
 11
5.8426
 21
-3.6251
 31
-0.0001
  0
LINE
  5
30
100
AcDbEntity
  8
1
 62
10
100
AcDbLine
 10
5.8426
 20
-3.6251
 30
-0.0001
 11
5.8403
 21
-3.6214
 31
-0.0001
  0
LINE
  5
30
100
AcDbEntity
  8
1
 62
10
100
AcDbLine
 10
5.8403
 20
-3.6214
 30
-0.0001
 11
5.8376
 21
-3.6180
 31
-0.0001
  0
LINE
  5
30
100
AcDbEntity
  8
1
 62
10
100
AcDbLine
 10
5.8376
 20
-3.6180
 30
-0.0001
 11
5.8347
 21
-3.6148
 31
-0.0001
  0
LINE
  5
30
100
AcDbEntity
  8
1
 62
10
100
AcDbLine
 10
5.8347
 20
-3.6148
 30
-0.0001
 11
5.8315
 21
-3.6119
 31
-0.0001
  0
LINE
  5
30
100
AcDbEntity
  8
1
 62
10
100
AcDbLine
 10
5.8315
 20
-3.6119
 30
-0.0001
 11
5.8281
 21
-3.6093
 31
-0.0001
  0
LINE
  5
30
100
AcDbEntity
  8
1
 62
10
100
AcDbLine
 10
5.8281
 20
-3.6093
 30
-0.0001
 11
5.8245
 21
-3.6070
 31
-0.0001
  0
LINE
  5
30
100
AcDbEntity
  8
1
 62
10
100
AcDbLine
 10
5.8245
 20
-3.6070
 30
-0.0001
 11
5.8245
 21
-3.6070
 31
-0.0001
  0
LINE
  5
30
100
AcDbEntity
  8
1
 62
10
100
AcDbLine
 10
5.8245
 20
-3.6070
 30
-0.0001
 11
5.8245
 21
-3.6069
 31
-0.0001
  0
LINE
  5
30
100
AcDbEntity
  8
1
 62
10
100
AcDbLine
 10
5.8245
 20
-3.6069
 30
-0.0001
 11
5.8245
 21
-3.5751
 31
-0.0001
  0
LINE
  5
30
100
AcDbEntity
  8
1
 62
10
100
AcDbLine
 10
5.8245
 20
-3.5751
 30
-0.0001
 11
5.8244
 21
-3.5730
 31
-0.0001
  0
LINE
  5
30
100
AcDbEntity
  8
1
 62
10
100
AcDbLine
 10
5.8244
 20
-3.5730
 30
-0.0001
 11
5.8241
 21
-3.5708
 31
-0.0001
  0
LINE
  5
30
100
AcDbEntity
  8
1
 62
10
100
AcDbLine
 10
5.8241
 20
-3.5708
 30
-0.0001
 11
5.8236
 21
-3.5687
 31
-0.0001
  0
LINE
  5
30
100
AcDbEntity
  8
1
 62
10
100
AcDbLine
 10
5.8236
 20
-3.5687
 30
-0.0001
 11
5.8230
 21
-3.5667
 31
-0.0001
  0
LINE
  5
30
100
AcDbEntity
  8
1
 62
10
100
AcDbLine
 10
5.8230
 20
-3.5667
 30
-0.0001
 11
5.8222
 21
-3.5647
 31
-0.0001
  0
LINE
  5
30
100
AcDbEntity
  8
1
 62
10
100
AcDbLine
 10
5.8222
 20
-3.5647
 30
-0.0001
 11
5.8212
 21
-3.5627
 31
-0.0001
  0
LINE
  5
30
100
AcDbEntity
  8
1
 62
10
100
AcDbLine
 10
5.8212
 20
-3.5627
 30
-0.0001
 11
5.8200
 21
-3.5609
 31
-0.0001
  0
LINE
  5
30
100
AcDbEntity
  8
1
 62
10
100
AcDbLine
 10
5.8200
 20
-3.5609
 30
-0.0001
 11
5.8187
 21
-3.5592
 31
-0.0001
  0
LINE
  5
30
100
AcDbEntity
  8
1
 62
10
100
AcDbLine
 10
5.8187
 20
-3.5592
 30
-0.0001
 11
5.8173
 21
-3.5576
 31
-0.0001
  0
LINE
  5
30
100
AcDbEntity
  8
1
 62
10
100
AcDbLine
 10
5.8173
 20
-3.5576
 30
-0.0001
 11
5.8159
 21
-3.5564
 31
-0.0001
  0
LINE
  5
30
100
AcDbEntity
  8
1
 62
10
100
AcDbLine
 10
5.8159
 20
-3.5564
 30
-0.0001
 11
5.8159
 21
-3.5564
 31
-0.0001
  0
LINE
  5
30
100
AcDbEntity
  8
1
 62
10
100
AcDbLine
 10
5.8159
 20
-3.5564
 30
-0.0001
 11
5.7760
 21
-3.5211
 31
-0.0001
  0
LINE
  5
30
100
AcDbEntity
  8
1
 62
10
100
AcDbLine
 10
5.7760
 20
-3.5211
 30
-0.0001
 11
5.7743
 21
-3.5198
 31
-0.0001
  0
LINE
  5
30
100
AcDbEntity
  8
1
 62
10
100
AcDbLine
 10
5.7743
 20
-3.5198
 30
-0.0001
 11
5.7725
 21
-3.5186
 31
-0.0001
  0
LINE
  5
30
100
AcDbEntity
  8
1
 62
10
100
AcDbLine
 10
5.7725
 20
-3.5186
 30
-0.0001
 11
5.7706
 21
-3.5176
 31
-0.0001
  0
LINE
  5
30
100
AcDbEntity
  8
1
 62
10
100
AcDbLine
 10
5.7706
 20
-3.5176
 30
-0.0001
 11
5.7687
 21
-3.5167
 31
-0.0001
  0
LINE
  5
30
100
AcDbEntity
  8
1
 62
10
100
AcDbLine
 10
5.7687
 20
-3.5167
 30
-0.0001
 11
5.7666
 21
-3.5160
 31
-0.0001
  0
LINE
  5
30
100
AcDbEntity
  8
1
 62
10
100
AcDbLine
 10
5.7666
 20
-3.5160
 30
-0.0001
 11
5.7645
 21
-3.5155
 31
-0.0001
  0
LINE
  5
30
100
AcDbEntity
  8
1
 62
10
100
AcDbLine
 10
5.7645
 20
-3.5155
 30
-0.0001
 11
5.7624
 21
-3.5152
 31
-0.0001
  0
LINE
  5
30
100
AcDbEntity
  8
1
 62
10
100
AcDbLine
 10
5.7624
 20
-3.5152
 30
-0.0001
 11
5.7602
 21
-3.5151
 31
-0.0001
  0
LINE
  5
30
100
AcDbEntity
  8
1
 62
10
100
AcDbLine
 10
5.7602
 20
-3.5151
 30
-0.0001
 11
5.7599
 21
-3.5151
 31
-0.0001
  0
LINE
  5
30
100
AcDbEntity
  8
1
 62
10
100
AcDbLine
 10
5.7599
 20
-3.5150
 30
-0.0001
 11
5.6201
 21
-3.5150
 31
-0.0001
  0
LINE
  5
30
100
AcDbEntity
  8
1
 62
10
100
AcDbLine
 10
5.6201
 20
-3.5150
 30
-0.0001
 11
5.6179
 21
-3.5151
 31
-0.0001
  0
LINE
  5
30
100
AcDbEntity
  8
1
 62
10
100
AcDbLine
 10
5.6179
 20
-3.5151
 30
-0.0001
 11
5.6158
 21
-3.5154
 31
-0.0001
  0
LINE
  5
30
100
AcDbEntity
  8
1
 62
10
100
AcDbLine
 10
5.6158
 20
-3.5154
 30
-0.0001
 11
5.6137
 21
-3.5159
 31
-0.0001
  0
LINE
  5
30
100
AcDbEntity
  8
1
 62
10
100
AcDbLine
 10
5.6137
 20
-3.5159
 30
-0.0001
 11
5.6116
 21
-3.5165
 31
-0.0001
  0
LINE
  5
30
100
AcDbEntity
  8
1
 62
10
100
AcDbLine
 10
5.6116
 20
-3.5165
 30
-0.0001
 11
5.6096
 21
-3.5174
 31
-0.0001
  0
LINE
  5
30
100
AcDbEntity
  8
1
 62
10
100
AcDbLine
 10
5.6096
 20
-3.5174
 30
-0.0001
 11
5.6077
 21
-3.5183
 31
-0.0001
  0
LINE
  5
30
100
AcDbEntity
  8
1
 62
10
100
AcDbLine
 10
5.6077
 20
-3.5183
 30
-0.0001
 11
5.6059
 21
-3.5195
 31
-0.0001
  0
LINE
  5
30
100
AcDbEntity
  8
1
 62
10
100
AcDbLine
 10
5.6059
 20
-3.5195
 30
-0.0001
 11
5.6042
 21
-3.5208
 31
-0.0001
  0
LINE
  5
30
100
AcDbEntity
  8
1
 62
10
100
AcDbLine
 10
5.6042
 20
-3.5208
 30
-0.0001
 11
5.6028
 21
-3.5220
 31
-0.0001
  0
LINE
  5
30
100
AcDbEntity
  8
1
 62
10
100
AcDbLine
 10
5.6029
 20
-3.5220
 30
-0.0001
 11
5.6029
 21
-3.5221
 31
-0.0001
  0
LINE
  5
30
100
AcDbEntity
  8
1
 62
10
100
AcDbLine
 10
5.6029
 20
-3.5221
 30
-0.0001
 11
5.3828
 21
-3.7326
 31
-0.0001
  0
LINE
  5
30
100
AcDbEntity
  8
1
 62
10
100
AcDbLine
 10
5.3828
 20
-3.7326
 30
-0.0001
 11
5.3814
 21
-3.7342
 31
-0.0001
  0
LINE
  5
30
100
AcDbEntity
  8
1
 62
10
100
AcDbLine
 10
5.3814
 20
-3.7342
 30
-0.0001
 11
5.3800
 21
-3.7358
 31
-0.0001
  0
LINE
  5
30
100
AcDbEntity
  8
1
 62
10
100
AcDbLine
 10
5.3800
 20
-3.7358
 30
-0.0001
 11
5.3789
 21
-3.7376
 31
-0.0001
  0
LINE
  5
30
100
AcDbEntity
  8
1
 62
10
100
AcDbLine
 10
5.3789
 20
-3.7376
 30
-0.0001
 11
5.3778
 21
-3.7395
 31
-0.0001
  0
LINE
  5
30
100
AcDbEntity
  8
1
 62
10
100
AcDbLine
 10
5.3778
 20
-3.7395
 30
-0.0001
 11
5.3770
 21
-3.7415
 31
-0.0001
  0
LINE
  5
30
100
AcDbEntity
  8
1
 62
10
100
AcDbLine
 10
5.3770
 20
-3.7415
 30
-0.0001
 11
5.3763
 21
-3.7435
 31
-0.0001
  0
LINE
  5
30
100
AcDbEntity
  8
1
 62
10
100
AcDbLine
 10
5.3763
 20
-3.7435
 30
-0.0001
 11
5.3758
 21
-3.7456
 31
-0.0001
  0
LINE
  5
30
100
AcDbEntity
  8
1
 62
10
100
AcDbLine
 10
5.3758
 20
-3.7456
 30
-0.0001
 11
5.3755
 21
-3.7478
 31
-0.0001
  0
LINE
  5
30
100
AcDbEntity
  8
1
 62
10
100
AcDbLine
 10
5.3755
 20
-3.7478
 30
-0.0001
 11
5.3754
 21
-3.7499
 31
-0.0001
  0
LINE
  5
30
100
AcDbEntity
  8
1
 62
10
100
AcDbLine
 10
5.3754
 20
-3.7499
 30
-0.0001
 11
5.3754
 21
-3.7502
 31
-0.0001
  0
LINE
  5
30
100
AcDbEntity
  8
1
 62
10
100
AcDbLine
 10
5.3754
 20
-3.7502
 30
-0.0001
 11
5.3753
 21
-3.7502
 31
-0.0001
  0
LINE
  5
30
100
AcDbEntity
  8
1
 62
10
100
AcDbLine
 10
5.3753
 20
-3.7502
 30
-0.0001
 11
5.3753
 21
-4.1788
 31
-0.0001
  0
LINE
  5
30
100
AcDbEntity
  8
1
 62
10
100
AcDbLine
 10
5.3753
 20
-4.1788
 30
-0.0001
 11
5.3754
 21
-4.1809
 31
-0.0001
  0
LINE
  5
30
100
AcDbEntity
  8
1
 62
10
100
AcDbLine
 10
5.3754
 20
-4.1809
 30
-0.0001
 11
5.3757
 21
-4.1831
 31
-0.0001
  0
LINE
  5
30
100
AcDbEntity
  8
1
 62
10
100
AcDbLine
 10
5.3757
 20
-4.1831
 30
-0.0001
 11
5.3761
 21
-4.1852
 31
-0.0001
  0
LINE
  5
30
100
AcDbEntity
  8
1
 62
10
100
AcDbLine
 10
5.3761
 20
-4.1852
 30
-0.0001
 11
5.3768
 21
-4.1872
 31
-0.0001
  0
LINE
  5
30
100
AcDbEntity
  8
1
 62
10
100
AcDbLine
 10
5.3768
 20
-4.1872
 30
-0.0001
 11
5.3776
 21
-4.1892
 31
-0.0001
  0
LINE
  5
30
100
AcDbEntity
  8
1
 62
10
100
AcDbLine
 10
5.3776
 20
-4.1892
 30
-0.0001
 11
5.3786
 21
-4.1911
 31
-0.0001
  0
LINE
  5
30
100
AcDbEntity
  8
1
 62
10
100
AcDbLine
 10
5.3786
 20
-4.1911
 30
-0.0001
 11
5.3797
 21
-4.1930
 31
-0.0001
  0
LINE
  5
30
100
AcDbEntity
  8
1
 62
10
100
AcDbLine
 10
5.3797
 20
-4.1930
 30
-0.0001
 11
5.3811
 21
-4.1947
 31
-0.0001
  0
LINE
  5
30
100
AcDbEntity
  8
1
 62
10
100
AcDbLine
 10
5.3811
 20
-4.1947
 30
-0.0001
 11
5.3823
 21
-4.1960
 31
-0.0001
  0
LINE
  5
30
100
AcDbEntity
  8
1
 62
10
100
AcDbLine
 10
5.3823
 20
-4.1960
 30
-0.0001
 11
5.3823
 21
-4.1959
 31
-0.0001
  0
LINE
  5
30
100
AcDbEntity
  8
1
 62
10
100
AcDbLine
 10
5.3823
 20
-4.1959
 30
-0.0001
 11
5.3823
 21
-4.1959
 31
0.0039
  0
LINE
  5
30
100
AcDbEntity
  8
1
 62
10
100
AcDbLine
 10
6.1718
 20
-3.9935
 30
0.0039
 11
6.1718
 21
-3.9935
 31
-0.0001
  0
LINE
  5
30
100
AcDbEntity
  8
1
 62
10
100
AcDbLine
 10
6.1718
 20
-3.9935
 30
-0.0001
 11
6.1718
 21
-3.9612
 31
-0.0001
  0
LINE
  5
30
100
AcDbEntity
  8
1
 62
10
100
AcDbLine
 10
6.1718
 20
-3.9612
 30
-0.0001
 11
6.0426
 21
-3.8749
 31
-0.0001
  0
LINE
  5
30
100
AcDbEntity
  8
1
 62
10
100
AcDbLine
 10
6.0426
 20
-3.8749
 30
-0.0001
 11
5.9002
 21
-3.8749
 31
-0.0001
  0
LINE
  5
30
100
AcDbEntity
  8
1
 62
10
100
AcDbLine
 10
5.9002
 20
-3.8749
 30
-0.0001
 11
5.8998
 21
-3.8749
 31
-0.0001
  0
LINE
  5
30
100
AcDbEntity
  8
1
 62
10
100
AcDbLine
 10
5.8998
 20
-3.8749
 30
-0.0001
 11
5.8977
 21
-3.8748
 31
-0.0001
  0
LINE
  5
30
100
AcDbEntity
  8
1
 62
10
100
AcDbLine
 10
5.8977
 20
-3.8748
 30
-0.0001
 11
5.8956
 21
-3.8745
 31
-0.0001
  0
LINE
  5
30
100
AcDbEntity
  8
1
 62
10
100
AcDbLine
 10
5.8956
 20
-3.8745
 30
-0.0001
 11
5.8935
 21
-3.8740
 31
-0.0001
  0
LINE
  5
30
100
AcDbEntity
  8
1
 62
10
100
AcDbLine
 10
5.8935
 20
-3.8740
 30
-0.0001
 11
5.8914
 21
-3.8733
 31
-0.0001
  0
LINE
  5
30
100
AcDbEntity
  8
1
 62
10
100
AcDbLine
 10
5.8914
 20
-3.8733
 30
-0.0001
 11
5.8894
 21
-3.8724
 31
-0.0001
  0
LINE
  5
30
100
AcDbEntity
  8
1
 62
10
100
AcDbLine
 10
5.8894
 20
-3.8724
 30
-0.0001
 11
5.8875
 21
-3.8714
 31
-0.0001
  0
LINE
  5
30
100
AcDbEntity
  8
1
 62
10
100
AcDbLine
 10
5.8875
 20
-3.8714
 30
-0.0001
 11
5.8857
 21
-3.8702
 31
-0.0001
  0
LINE
  5
30
100
AcDbEntity
  8
1
 62
10
100
AcDbLine
 10
5.8857
 20
-3.8702
 30
-0.0001
 11
5.8840
 21
-3.8689
 31
-0.0001
  0
LINE
  5
30
100
AcDbEntity
  8
1
 62
10
100
AcDbLine
 10
5.8840
 20
-3.8689
 30
-0.0001
 11
5.8825
 21
-3.8674
 31
-0.0001
  0
LINE
  5
30
100
AcDbEntity
  8
1
 62
10
100
AcDbLine
 10
5.8825
 20
-3.8674
 30
-0.0001
 11
5.8825
 21
-3.8674
 31
-0.0001
  0
LINE
  5
30
100
AcDbEntity
  8
1
 62
10
100
AcDbLine
 10
5.8825
 20
-3.8674
 30
-0.0001
 11
5.8825
 21
-3.8674
 31
0.0039
  0
LINE
  5
30
100
AcDbEntity
  8
1
 62
10
100
AcDbLine
 10
6.3706
 20
-3.9935
 30
0.0039
 11
6.3706
 21
-3.9935
 31
-0.0001
  0
LINE
  5
30
100
AcDbEntity
  8
1
 62
10
100
AcDbLine
 10
6.3706
 20
-3.9935
 30
-0.0001
 11
6.4281
 21
-3.9935
 31
-0.0001
  0
LINE
  5
30
100
AcDbEntity
  8
1
 62
10
100
AcDbLine
 10
6.4281
 20
-3.9935
 30
-0.0001
 11
6.4281
 21
-3.9067
 31
-0.0001
  0
LINE
  5
30
100
AcDbEntity
  8
1
 62
10
100
AcDbLine
 10
6.4281
 20
-3.9067
 30
-0.0001
 11
6.3918
 21
-3.9067
 31
-0.0001
  0
LINE
  5
30
100
AcDbEntity
  8
1
 62
10
100
AcDbLine
 10
6.3918
 20
-3.9067
 30
-0.0001
 11
6.2676
 21
-3.7826
 31
-0.0001
  0
LINE
  5
30
100
AcDbEntity
  8
1
 62
10
100
AcDbLine
 10
6.2676
 20
-3.7826
 30
-0.0001
 11
6.2676
 21
-3.7826
 31
0.0039
  0
LINE
  5
30
100
AcDbEntity
  8
1
 62
10
100
AcDbLine
 10
6.3293
 20
-3.9643
 30
0.0039
 11
6.3293
 21
-3.9643
 31
-0.0001
  0
LINE
  5
30
100
AcDbEntity
  8
1
 62
10
100
AcDbLine
 10
6.3293
 20
-3.9643
 30
-0.0001
 11
6.3293
 21
-3.9148
 31
-0.0001
  0
LINE
  5
30
100
AcDbEntity
  8
1
 62
10
100
AcDbLine
 10
6.3293
 20
-3.9148
 30
-0.0001
 11
6.2394
 21
-3.8250
 31
-0.0001
  0
LINE
  5
30
100
AcDbEntity
  8
1
 62
10
100
AcDbLine
 10
6.2394
 20
-3.8250
 30
-0.0001
 11
6.0002
 21
-3.8250
 31
-0.0001
  0
LINE
  5
30
100
AcDbEntity
  8
1
 62
10
100
AcDbLine
 10
6.0002
 20
-3.8250
 30
-0.0001
 11
5.9998
 21
-3.8250
 31
-0.0001
  0
LINE
  5
30
100
AcDbEntity
  8
1
 62
10
100
AcDbLine
 10
5.9998
 20
-3.8250
 30
-0.0001
 11
5.9976
 21
-3.8248
 31
-0.0001
  0
LINE
  5
30
100
AcDbEntity
  8
1
 62
10
100
AcDbLine
 10
5.9976
 20
-3.8248
 30
-0.0001
 11
5.9955
 21
-3.8245
 31
-0.0001
  0
LINE
  5
30
100
AcDbEntity
  8
1
 62
10
100
AcDbLine
 10
5.9955
 20
-3.8245
 30
-0.0001
 11
5.9934
 21
-3.8240
 31
-0.0001
  0
LINE
  5
30
100
AcDbEntity
  8
1
 62
10
100
AcDbLine
 10
5.9934
 20
-3.8240
 30
-0.0001
 11
5.9913
 21
-3.8233
 31
-0.0001
  0
LINE
  5
30
100
AcDbEntity
  8
1
 62
10
100
AcDbLine
 10
5.9913
 20
-3.8233
 30
-0.0001
 11
5.9894
 21
-3.8225
 31
-0.0001
  0
LINE
  5
30
100
AcDbEntity
  8
1
 62
10
100
AcDbLine
 10
5.9894
 20
-3.8225
 30
-0.0001
 11
5.9875
 21
-3.8215
 31
-0.0001
  0
LINE
  5
30
100
AcDbEntity
  8
1
 62
10
100
AcDbLine
 10
5.9875
 20
-3.8215
 30
-0.0001
 11
5.9856
 21
-3.8203
 31
-0.0001
  0
LINE
  5
30
100
AcDbEntity
  8
1
 62
10
100
AcDbLine
 10
5.9856
 20
-3.8203
 30
-0.0001
 11
5.9840
 21
-3.8189
 31
-0.0001
  0
LINE
  5
30
100
AcDbEntity
  8
1
 62
10
100
AcDbLine
 10
5.9840
 20
-3.8189
 30
-0.0001
 11
5.9824
 21
-3.8175
 31
-0.0001
  0
LINE
  5
30
100
AcDbEntity
  8
1
 62
10
100
AcDbLine
 10
5.9824
 20
-3.8175
 30
-0.0001
 11
5.9825
 21
-3.8174
 31
-0.0001
  0
LINE
  5
30
100
AcDbEntity
  8
1
 62
10
100
AcDbLine
 10
5.9825
 20
-3.8174
 30
-0.0001
 11
5.9825
 21
-3.8174
 31
0.0039
  0
LINE
  5
30
100
AcDbEntity
  8
1
 62
10
100
AcDbLine
 10
6.4034
 20
-4.1434
 30
0.0039
 11
6.4034
 21
-4.1434
 31
-0.0001
  0
LINE
  5
30
100
AcDbEntity
  8
1
 62
10
100
AcDbLine
 10
6.4034
 20
-4.1434
 30
-0.0001
 11
6.4281
 21
-4.1434
 31
-0.0001
  0
LINE
  5
30
100
AcDbEntity
  8
1
 62
10
100
AcDbLine
 10
6.4281
 20
-4.1434
 30
-0.0001
 11
6.4281
 21
-4.1248
 31
-0.0001
  0
LINE
  5
30
100
AcDbEntity
  8
1
 62
10
100
AcDbLine
 10
6.4281
 20
-4.1248
 30
-0.0001
 11
6.4499
 21
-4.1248
 31
-0.0001
  0
LINE
  5
30
100
AcDbEntity
  8
1
 62
10
100
AcDbLine
 10
6.4499
 20
-4.1248
 30
-0.0001
 11
6.4520
 21
-4.1247
 31
-0.0001
  0
LINE
  5
30
100
AcDbEntity
  8
1
 62
10
100
AcDbLine
 10
6.4520
 20
-4.1247
 30
-0.0001
 11
6.4542
 21
-4.1244
 31
-0.0001
  0
LINE
  5
30
100
AcDbEntity
  8
1
 62
10
100
AcDbLine
 10
6.4542
 20
-4.1244
 30
-0.0001
 11
6.4563
 21
-4.1239
 31
-0.0001
  0
LINE
  5
30
100
AcDbEntity
  8
1
 62
10
100
AcDbLine
 10
6.4563
 20
-4.1239
 30
-0.0001
 11
6.4583
 21
-4.1233
 31
-0.0001
  0
LINE
  5
30
100
AcDbEntity
  8
1
 62
10
100
AcDbLine
 10
6.4583
 20
-4.1233
 30
-0.0001
 11
6.4603
 21
-4.1224
 31
-0.0001
  0
LINE
  5
30
100
AcDbEntity
  8
1
 62
10
100
AcDbLine
 10
6.4603
 20
-4.1224
 30
-0.0001
 11
6.4622
 21
-4.1214
 31
-0.0001
  0
LINE
  5
30
100
AcDbEntity
  8
1
 62
10
100
AcDbLine
 10
6.4622
 20
-4.1214
 30
-0.0001
 11
6.4641
 21
-4.1203
 31
-0.0001
  0
LINE
  5
30
100
AcDbEntity
  8
1
 62
10
100
AcDbLine
 10
6.4641
 20
-4.1203
 30
-0.0001
 11
6.4658
 21
-4.1190
 31
-0.0001
  0
LINE
  5
30
100
AcDbEntity
  8
1
 62
10
100
AcDbLine
 10
6.4658
 20
-4.1190
 30
-0.0001
 11
6.4674
 21
-4.1175
 31
-0.0001
  0
LINE
  5
30
100
AcDbEntity
  8
1
 62
10
100
AcDbLine
 10
6.4674
 20
-4.1175
 30
-0.0001
 11
6.4676
 21
-4.1173
 31
-0.0001
  0
LINE
  5
30
100
AcDbEntity
  8
1
 62
10
100
AcDbLine
 10
6.4676
 20
-4.1173
 30
-0.0001
 11
6.4675
 21
-4.1172
 31
-0.0001
  0
LINE
  5
30
100
AcDbEntity
  8
1
 62
10
100
AcDbLine
 10
6.4675
 20
-4.1172
 30
-0.0001
 11
6.4675
 21
-4.1172
 31
0.0039
  0
LINE
  5
30
100
AcDbEntity
  8
1
 62
10
100
AcDbLine
 10
5.6090
 20
-4.2338
 30
0.0039
 11
5.6090
 21
-4.2338
 31
-0.0001
  0
LINE
  5
30
100
AcDbEntity
  8
1
 62
10
100
AcDbLine
 10
5.6090
 20
-4.2338
 30
-0.0001
 11
5.6635
 21
-4.2338
 31
-0.0001
  0
LINE
  5
30
100
AcDbEntity
  8
1
 62
10
100
AcDbLine
 10
5.6635
 20
-4.2338
 30
-0.0001
 11
5.6656
 21
-4.2337
 31
-0.0001
  0
LINE
  5
30
100
AcDbEntity
  8
1
 62
10
100
AcDbLine
 10
5.6656
 20
-4.2337
 30
-0.0001
 11
5.6678
 21
-4.2334
 31
-0.0001
  0
LINE
  5
30
100
AcDbEntity
  8
1
 62
10
100
AcDbLine
 10
5.6678
 20
-4.2334
 30
-0.0001
 11
5.6699
 21
-4.2329
 31
-0.0001
  0
LINE
  5
30
100
AcDbEntity
  8
1
 62
10
100
AcDbLine
 10
5.6699
 20
-4.2329
 30
-0.0001
 11
5.6719
 21
-4.2323
 31
-0.0001
  0
LINE
  5
30
100
AcDbEntity
  8
1
 62
10
100
AcDbLine
 10
5.6719
 20
-4.2323
 30
-0.0001
 11
5.6739
 21
-4.2315
 31
-0.0001
  0
LINE
  5
30
100
AcDbEntity
  8
1
 62
10
100
AcDbLine
 10
5.6739
 20
-4.2315
 30
-0.0001
 11
5.6751
 21
-4.2309
 31
-0.0001
  0
LINE
  5
30
100
AcDbEntity
  8
1
 62
10
100
AcDbLine
 10
5.6751
 20
-4.2309
 30
-0.0001
 11
5.6751
 21
-4.2307
 31
-0.0001
  0
LINE
  5
30
100
AcDbEntity
  8
1
 62
10
100
AcDbLine
 10
5.6751
 20
-4.2307
 30
-0.0001
 11
5.6751
 21
-4.2307
 31
0.0039
  0
LINE
  5
30
100
AcDbEntity
  8
1
 62
10
100
AcDbLine
 10
5.7821
 20
-3.7679
 30
0.0039
 11
5.7821
 21
-3.7679
 31
-0.0001
  0
LINE
  5
30
100
AcDbEntity
  8
1
 62
10
100
AcDbLine
 10
5.7821
 20
-3.7679
 30
-0.0001
 11
5.8825
 21
-3.8678
 31
-0.0001
  0
LINE
  5
30
100
AcDbEntity
  8
1
 62
10
100
AcDbLine
 10
5.8825
 20
-3.8678
 30
-0.0001
 11
5.8825
 21
-3.8678
 31
0.0039
  0
LINE
  5
30
100
AcDbEntity
  8
1
 62
10
100
AcDbLine
 10
6.4034
 20
-4.1712
 30
0.0039
 11
6.4034
 21
-4.1712
 31
-0.0001
  0
LINE
  5
30
100
AcDbEntity
  8
1
 62
10
100
AcDbLine
 10
6.4034
 20
-4.1712
 30
-0.0001
 11
6.4034
 21
-4.1434
 31
-0.0001
  0
LINE
  5
30
100
AcDbEntity
  8
1
 62
10
100
AcDbLine
 10
6.4034
 20
-4.1434
 30
-0.0001
 11
6.4034
 21
-4.1434
 31
0.0039
  0
LINE
  5
30
100
AcDbEntity
  8
1
 62
10
100
AcDbLine
 10
6.3085
 20
-4.2767
 30
0.0039
 11
6.3085
 21
-4.2767
 31
-0.0001
  0
LINE
  5
30
100
AcDbEntity
  8
1
 62
10
100
AcDbLine
 10
6.3085
 20
-4.2767
 30
-0.0001
 11
6.3964
 21
-4.1889
 31
-0.0001
  0
LINE
  5
30
100
AcDbEntity
  8
1
 62
10
100
AcDbLine
 10
6.3964
 20
-4.1889
 30
-0.0001
 11
6.3964
 21
-4.1889
 31
0.0039
  0
LINE
  5
30
100
AcDbEntity
  8
1
 62
10
100
AcDbLine
 10
6.5246
 20
-4.0001
 30
0.0039
 11
6.5246
 21
-4.0001
 31
-0.0001
  0
LINE
  5
30
100
AcDbEntity
  8
1
 62
10
100
AcDbLine
 10
6.5246
 20
-4.0001
 30
-0.0001
 11
6.5246
 21
-3.9002
 31
-0.0001
  0
LINE
  5
30
100
AcDbEntity
  8
1
 62
10
100
AcDbLine
 10
6.5246
 20
-3.9002
 30
-0.0001
 11
6.5245
 21
-3.8980
 31
-0.0001
  0
LINE
  5
30
100
AcDbEntity
  8
1
 62
10
100
AcDbLine
 10
6.5245
 20
-3.8980
 30
-0.0001
 11
6.5242
 21
-3.8959
 31
-0.0001
  0
LINE
  5
30
100
AcDbEntity
  8
1
 62
10
100
AcDbLine
 10
6.5242
 20
-3.8959
 30
-0.0001
 11
6.5237
 21
-3.8938
 31
-0.0001
  0
LINE
  5
30
100
AcDbEntity
  8
1
 62
10
100
AcDbLine
 10
6.5237
 20
-3.8938
 30
-0.0001
 11
6.5231
 21
-3.8917
 31
-0.0001
  0
LINE
  5
30
100
AcDbEntity
  8
1
 62
10
100
AcDbLine
 10
6.5231
 20
-3.8917
 30
-0.0001
 11
6.5223
 21
-3.8897
 31
-0.0001
  0
LINE
  5
30
100
AcDbEntity
  8
1
 62
10
100
AcDbLine
 10
6.5223
 20
-3.8897
 30
-0.0001
 11
6.5213
 21
-3.8878
 31
-0.0001
  0
LINE
  5
30
100
AcDbEntity
  8
1
 62
10
100
AcDbLine
 10
6.5213
 20
-3.8878
 30
-0.0001
 11
6.5201
 21
-3.8860
 31
-0.0001
  0
LINE
  5
30
100
AcDbEntity
  8
1
 62
10
100
AcDbLine
 10
6.5201
 20
-3.8860
 30
-0.0001
 11
6.5188
 21
-3.8843
 31
-0.0001
  0
LINE
  5
30
100
AcDbEntity
  8
1
 62
10
100
AcDbLine
 10
6.5188
 20
-3.8843
 30
-0.0001
 11
6.5176
 21
-3.8829
 31
-0.0001
  0
LINE
  5
30
100
AcDbEntity
  8
1
 62
10
100
AcDbLine
 10
6.5176
 20
-3.8829
 30
-0.0001
 11
6.5175
 21
-3.8830
 31
-0.0001
  0
LINE
  5
30
100
AcDbEntity
  8
1
 62
10
100
AcDbLine
 10
6.5175
 20
-3.8830
 30
-0.0001
 11
6.5175
 21
-3.8830
 31
0.0039
  0
LINE
  5
30
100
AcDbEntity
  8
1
 62
10
100
AcDbLine
 10
6.5246
 20
-4.0501
 30
0.0039
 11
6.5246
 21
-4.0501
 31
-0.0001
  0
LINE
  5
30
100
AcDbEntity
  8
1
 62
10
100
AcDbLine
 10
6.5246
 20
-4.0501
 30
-0.0001
 11
6.5246
 21
-4.0001
 31
-0.0001
  0
LINE
  5
30
100
AcDbEntity
  8
1
 62
10
100
AcDbLine
 10
6.5246
 20
-4.0001
 30
-0.0001
 11
6.5246
 21
-4.0001
 31
0.0039
  0
LINE
  5
30
100
AcDbEntity
  8
1
 62
10
100
AcDbLine
 10
6.4675
 20
-4.1177
 30
0.0039
 11
6.4675
 21
-4.1177
 31
-0.0001
  0
LINE
  5
30
100
AcDbEntity
  8
1
 62
10
100
AcDbLine
 10
6.4675
 20
-4.1177
 30
-0.0001
 11
6.5175
 21
-4.0677
 31
-0.0001
  0
LINE
  5
30
100
AcDbEntity
  8
1
 62
10
100
AcDbLine
 10
6.5175
 20
-4.0677
 30
-0.0001
 11
6.5175
 21
-4.0677
 31
0.0039
  0
LINE
  5
30
100
AcDbEntity
  8
1
 62
10
100
AcDbLine
 10
6.3676
 20
-3.7326
 30
0.0039
 11
6.3676
 21
-3.7326
 31
-0.0001
  0
LINE
  5
30
100
AcDbEntity
  8
1
 62
10
100
AcDbLine
 10
6.3676
 20
-3.7326
 30
-0.0001
 11
6.5175
 21
-3.8825
 31
-0.0001
  0
LINE
  5
30
100
AcDbEntity
  8
1
 62
10
100
AcDbLine
 10
6.5175
 20
-3.8825
 30
-0.0001
 11
6.5175
 21
-3.8825
 31
0.0039
  0
LINE
  5
30
100
AcDbEntity
  8
1
 62
10
100
AcDbLine
 10
6.0602
 20
-3.7255
 30
0.0039
 11
6.0602
 21
-3.7255
 31
-0.0001
  0
LINE
  5
30
100
AcDbEntity
  8
1
 62
10
100
AcDbLine
 10
6.0602
 20
-3.7255
 30
-0.0001
 11
6.3499
 21
-3.7255
 31
-0.0001
  0
LINE
  5
30
100
AcDbEntity
  8
1
 62
10
100
AcDbLine
 10
6.3499
 20
-3.7255
 30
-0.0001
 11
6.3503
 21
-3.7255
 31
-0.0001
  0
LINE
  5
30
100
AcDbEntity
  8
1
 62
10
100
AcDbLine
 10
6.3503
 20
-3.7255
 30
-0.0001
 11
6.3524
 21
-3.7256
 31
-0.0001
  0
LINE
  5
30
100
AcDbEntity
  8
1
 62
10
100
AcDbLine
 10
6.3524
 20
-3.7256
 30
-0.0001
 11
6.3546
 21
-3.7260
 31
-0.0001
  0
LINE
  5
30
100
AcDbEntity
  8
1
 62
10
100
AcDbLine
 10
6.3546
 20
-3.7260
 30
-0.0001
 11
6.3567
 21
-3.7264
 31
-0.0001
  0
LINE
  5
30
100
AcDbEntity
  8
1
 62
10
100
AcDbLine
 10
6.3567
 20
-3.7264
 30
-0.0001
 11
6.3587
 21
-3.7271
 31
-0.0001
  0
LINE
  5
30
100
AcDbEntity
  8
1
 62
10
100
AcDbLine
 10
6.3587
 20
-3.7271
 30
-0.0001
 11
6.3607
 21
-3.7280
 31
-0.0001
  0
LINE
  5
30
100
AcDbEntity
  8
1
 62
10
100
AcDbLine
 10
6.3607
 20
-3.7280
 30
-0.0001
 11
6.3626
 21
-3.7290
 31
-0.0001
  0
LINE
  5
30
100
AcDbEntity
  8
1
 62
10
100
AcDbLine
 10
6.3626
 20
-3.7290
 30
-0.0001
 11
6.3644
 21
-3.7302
 31
-0.0001
  0
LINE
  5
30
100
AcDbEntity
  8
1
 62
10
100
AcDbLine
 10
6.3644
 20
-3.7302
 30
-0.0001
 11
6.3661
 21
-3.7315
 31
-0.0001
  0
LINE
  5
30
100
AcDbEntity
  8
1
 62
10
100
AcDbLine
 10
6.3661
 20
-3.7315
 30
-0.0001
 11
6.3677
 21
-3.7330
 31
-0.0001
  0
LINE
  5
30
100
AcDbEntity
  8
1
 62
10
100
AcDbLine
 10
6.3677
 20
-3.7330
 30
-0.0001
 11
6.3676
 21
-3.7331
 31
-0.0001
  0
LINE
  5
30
100
AcDbEntity
  8
1
 62
10
100
AcDbLine
 10
6.3676
 20
-3.7331
 30
-0.0001
 11
6.3676
 21
-3.7331
 31
0.0039
  0
LINE
  5
30
100
AcDbEntity
  8
1
 62
10
100
AcDbLine
 10
6.0602
 20
-3.7255
 30
0.0039
 11
6.0602
 21
-3.7255
 31
-0.0001
  0
LINE
  5
30
100
AcDbEntity
  8
1
 62
10
100
AcDbLine
 10
6.0602
 20
-3.7255
 30
-0.0001
 11
6.0269
 21
-3.6917
 31
-0.0001
  0
LINE
  5
30
100
AcDbEntity
  8
1
 62
10
100
AcDbLine
 10
6.0269
 20
-3.6917
 30
-0.0001
 11
6.0269
 21
-3.6917
 31
0.0039
  0
LINE
  5
30
100
AcDbEntity
  8
1
 62
10
100
AcDbLine
 10
6.3247
 20
-4.0394
 30
0.0039
 11
6.3247
 21
-4.0394
 31
-0.0001
  0
LINE
  5
30
100
AcDbEntity
  8
1
 62
10
100
AcDbLine
 10
6.3247
 20
-4.0394
 30
-0.0001
 11
6.3706
 21
-3.9935
 31
-0.0001
  0
LINE
  5
30
100
AcDbEntity
  8
1
 62
10
100
AcDbLine
 10
6.3706
 20
-3.9935
 30
-0.0001
 11
6.3706
 21
-3.9935
 31
0.0039
  0
LINE
  5
30
100
AcDbEntity
  8
1
 62
10
100
AcDbLine
 10
6.2823
 20
-4.0112
 30
0.0039
 11
6.2823
 21
-4.0112
 31
-0.0001
  0
LINE
  5
30
100
AcDbEntity
  8
1
 62
10
100
AcDbLine
 10
6.2823
 20
-4.0112
 30
-0.0001
 11
6.3293
 21
-3.9643
 31
-0.0001
  0
LINE
  5
30
100
AcDbEntity
  8
1
 62
10
100
AcDbLine
 10
6.3293
 20
-3.9643
 30
-0.0001
 11
6.3293
 21
-3.9643
 31
0.0039
  0
LINE
  5
30
100
AcDbEntity
  8
1
 62
10
100
AcDbLine
 10
6.3247
 20
-4.1500
 30
0.0039
 11
6.3247
 21
-4.1500
 31
-0.0001
  0
LINE
  5
30
100
AcDbEntity
  8
1
 62
10
100
AcDbLine
 10
6.3247
 20
-4.1500
 30
-0.0001
 11
6.3247
 21
-4.0394
 31
-0.0001
  0
LINE
  5
30
100
AcDbEntity
  8
1
 62
10
100
AcDbLine
 10
6.3247
 20
-4.0394
 30
-0.0001
 11
6.3247
 21
-4.0394
 31
0.0039
  0
LINE
  5
30
100
AcDbEntity
  8
1
 62
10
100
AcDbLine
 10
6.2586
 20
-4.2267
 30
0.0039
 11
6.2586
 21
-4.2267
 31
-0.0001
  0
LINE
  5
30
100
AcDbEntity
  8
1
 62
10
100
AcDbLine
 10
6.2586
 20
-4.2267
 30
-0.0001
 11
6.3176
 21
-4.1677
 31
-0.0001
  0
LINE
  5
30
100
AcDbEntity
  8
1
 62
10
100
AcDbLine
 10
6.3176
 20
-4.1677
 30
-0.0001
 11
6.3176
 21
-4.1677
 31
0.0039
  0
LINE
  5
30
100
AcDbEntity
  8
1
 62
10
100
AcDbLine
 10
5.8755
 20
-3.6998
 30
0.0039
 11
5.8755
 21
-3.6998
 31
-0.0001
  0
LINE
  5
30
100
AcDbEntity
  8
1
 62
10
100
AcDbLine
 10
5.8755
 20
-3.6998
 30
-0.0001
 11
5.8755
 21
-3.6927
 31
-0.0001
  0
LINE
  5
30
100
AcDbEntity
  8
1
 62
10
100
AcDbLine
 10
5.8755
 20
-3.6927
 30
-0.0001
 11
5.8754
 21
-3.6927
 31
-0.0001
  0
LINE
  5
30
100
AcDbEntity
  8
1
 62
10
100
AcDbLine
 10
5.8754
 20
-3.6927
 30
-0.0001
 11
5.8718
 21
-3.6904
 31
-0.0001
  0
LINE
  5
30
100
AcDbEntity
  8
1
 62
10
100
AcDbLine
 10
5.8718
 20
-3.6904
 30
-0.0001
 11
5.8684
 21
-3.6877
 31
-0.0001
  0
LINE
  5
30
100
AcDbEntity
  8
1
 62
10
100
AcDbLine
 10
5.8684
 20
-3.6877
 30
-0.0001
 11
5.8652
 21
-3.6848
 31
-0.0001
  0
LINE
  5
30
100
AcDbEntity
  8
1
 62
10
100
AcDbLine
 10
5.8652
 20
-3.6848
 30
-0.0001
 11
5.8623
 21
-3.6816
 31
-0.0001
  0
LINE
  5
30
100
AcDbEntity
  8
1
 62
10
100
AcDbLine
 10
5.8623
 20
-3.6816
 30
-0.0001
 11
5.8596
 21
-3.6782
 31
-0.0001
  0
LINE
  5
30
100
AcDbEntity
  8
1
 62
10
100
AcDbLine
 10
5.8596
 20
-3.6782
 30
-0.0001
 11
5.8573
 21
-3.6746
 31
-0.0001
  0
LINE
  5
30
100
AcDbEntity
  8
1
 62
10
100
AcDbLine
 10
5.8573
 20
-3.6746
 30
-0.0001
 11
5.8553
 21
-3.6707
 31
-0.0001
  0
LINE
  5
30
100
AcDbEntity
  8
1
 62
10
100
AcDbLine
 10
5.8553
 20
-3.6707
 30
-0.0001
 11
5.8537
 21
-3.6667
 31
-0.0001
  0
LINE
  5
30
100
AcDbEntity
  8
1
 62
10
100
AcDbLine
 10
5.8537
 20
-3.6667
 30
-0.0001
 11
5.8524
 21
-3.6626
 31
-0.0001
  0
LINE
  5
30
100
AcDbEntity
  8
1
 62
10
100
AcDbLine
 10
5.8524
 20
-3.6626
 30
-0.0001
 11
5.8514
 21
-3.6584
 31
-0.0001
  0
LINE
  5
30
100
AcDbEntity
  8
1
 62
10
100
AcDbLine
 10
5.8514
 20
-3.6584
 30
-0.0001
 11
5.8509
 21
-3.6541
 31
-0.0001
  0
LINE
  5
30
100
AcDbEntity
  8
1
 62
10
100
AcDbLine
 10
5.8509
 20
-3.6541
 30
-0.0001
 11
5.8507
 21
-3.6498
 31
-0.0001
  0
LINE
  5
30
100
AcDbEntity
  8
1
 62
10
100
AcDbLine
 10
5.8507
 20
-3.6498
 30
-0.0001
 11
5.8509
 21
-3.6455
 31
-0.0001
  0
LINE
  5
30
100
AcDbEntity
  8
1
 62
10
100
AcDbLine
 10
5.8509
 20
-3.6455
 30
-0.0001
 11
5.8514
 21
-3.6412
 31
-0.0001
  0
LINE
  5
30
100
AcDbEntity
  8
1
 62
10
100
AcDbLine
 10
5.8514
 20
-3.6412
 30
-0.0001
 11
5.8524
 21
-3.6370
 31
-0.0001
  0
LINE
  5
30
100
AcDbEntity
  8
1
 62
10
100
AcDbLine
 10
5.8524
 20
-3.6370
 30
-0.0001
 11
5.8537
 21
-3.6329
 31
-0.0001
  0
LINE
  5
30
100
AcDbEntity
  8
1
 62
10
100
AcDbLine
 10
5.8537
 20
-3.6329
 30
-0.0001
 11
5.8553
 21
-3.6289
 31
-0.0001
  0
LINE
  5
30
100
AcDbEntity
  8
1
 62
10
100
AcDbLine
 10
5.8553
 20
-3.6289
 30
-0.0001
 11
5.8573
 21
-3.6250
 31
-0.0001
  0
LINE
  5
30
100
AcDbEntity
  8
1
 62
10
100
AcDbLine
 10
5.8573
 20
-3.6250
 30
-0.0001
 11
5.8596
 21
-3.6214
 31
-0.0001
  0
LINE
  5
30
100
AcDbEntity
  8
1
 62
10
100
AcDbLine
 10
5.8596
 20
-3.6214
 30
-0.0001
 11
5.8623
 21
-3.6180
 31
-0.0001
  0
LINE
  5
30
100
AcDbEntity
  8
1
 62
10
100
AcDbLine
 10
5.8623
 20
-3.6180
 30
-0.0001
 11
5.8652
 21
-3.6148
 31
-0.0001
  0
LINE
  5
30
100
AcDbEntity
  8
1
 62
10
100
AcDbLine
 10
5.8652
 20
-3.6148
 30
-0.0001
 11
5.8684
 21
-3.6119
 31
-0.0001
  0
LINE
  5
30
100
AcDbEntity
  8
1
 62
10
100
AcDbLine
 10
5.8684
 20
-3.6119
 30
-0.0001
 11
5.8718
 21
-3.6092
 31
-0.0001
  0
LINE
  5
30
100
AcDbEntity
  8
1
 62
10
100
AcDbLine
 10
5.8718
 20
-3.6092
 30
-0.0001
 11
5.8754
 21
-3.6069
 31
-0.0001
  0
LINE
  5
30
100
AcDbEntity
  8
1
 62
10
100
AcDbLine
 10
5.8754
 20
-3.6069
 30
-0.0001
 11
5.8793
 21
-3.6049
 31
-0.0001
  0
LINE
  5
30
100
AcDbEntity
  8
1
 62
10
100
AcDbLine
 10
5.8793
 20
-3.6049
 30
-0.0001
 11
5.8833
 21
-3.6033
 31
-0.0001
  0
LINE
  5
30
100
AcDbEntity
  8
1
 62
10
100
AcDbLine
 10
5.8833
 20
-3.6033
 30
-0.0001
 11
5.8874
 21
-3.6020
 31
-0.0001
  0
LINE
  5
30
100
AcDbEntity
  8
1
 62
10
100
AcDbLine
 10
5.8874
 20
-3.6020
 30
-0.0001
 11
5.8916
 21
-3.6010
 31
-0.0001
  0
LINE
  5
30
100
AcDbEntity
  8
1
 62
10
100
AcDbLine
 10
5.8916
 20
-3.6010
 30
-0.0001
 11
5.8959
 21
-3.6005
 31
-0.0001
  0
LINE
  5
30
100
AcDbEntity
  8
1
 62
10
100
AcDbLine
 10
5.8959
 20
-3.6005
 30
-0.0001
 11
5.9002
 21
-3.6003
 31
-0.0001
  0
LINE
  5
30
100
AcDbEntity
  8
1
 62
10
100
AcDbLine
 10
5.9002
 20
-3.6003
 30
-0.0001
 11
5.9045
 21
-3.6005
 31
-0.0001
  0
LINE
  5
30
100
AcDbEntity
  8
1
 62
10
100
AcDbLine
 10
5.9045
 20
-3.6005
 30
-0.0001
 11
5.9088
 21
-3.6010
 31
-0.0001
  0
LINE
  5
30
100
AcDbEntity
  8
1
 62
10
100
AcDbLine
 10
5.9088
 20
-3.6010
 30
-0.0001
 11
5.9130
 21
-3.6020
 31
-0.0001
  0
LINE
  5
30
100
AcDbEntity
  8
1
 62
10
100
AcDbLine
 10
5.9130
 20
-3.6020
 30
-0.0001
 11
5.9171
 21
-3.6033
 31
-0.0001
  0
LINE
  5
30
100
AcDbEntity
  8
1
 62
10
100
AcDbLine
 10
5.9171
 20
-3.6033
 30
-0.0001
 11
5.9211
 21
-3.6049
 31
-0.0001
  0
LINE
  5
30
100
AcDbEntity
  8
1
 62
10
100
AcDbLine
 10
5.9211
 20
-3.6049
 30
-0.0001
 11
5.9250
 21
-3.6069
 31
-0.0001
  0
LINE
  5
30
100
AcDbEntity
  8
1
 62
10
100
AcDbLine
 10
5.9250
 20
-3.6069
 30
-0.0001
 11
5.9286
 21
-3.6092
 31
-0.0001
  0
LINE
  5
30
100
AcDbEntity
  8
1
 62
10
100
AcDbLine
 10
5.9286
 20
-3.6092
 30
-0.0001
 11
5.9320
 21
-3.6119
 31
-0.0001
  0
LINE
  5
30
100
AcDbEntity
  8
1
 62
10
100
AcDbLine
 10
5.9320
 20
-3.6119
 30
-0.0001
 11
5.9352
 21
-3.6148
 31
-0.0001
  0
LINE
  5
30
100
AcDbEntity
  8
1
 62
10
100
AcDbLine
 10
5.9352
 20
-3.6148
 30
-0.0001
 11
5.9381
 21
-3.6180
 31
-0.0001
  0
LINE
  5
30
100
AcDbEntity
  8
1
 62
10
100
AcDbLine
 10
5.9381
 20
-3.6180
 30
-0.0001
 11
5.9408
 21
-3.6214
 31
-0.0001
  0
LINE
  5
30
100
AcDbEntity
  8
1
 62
10
100
AcDbLine
 10
5.9408
 20
-3.6214
 30
-0.0001
 11
5.9431
 21
-3.6250
 31
-0.0001
  0
LINE
  5
30
100
AcDbEntity
  8
1
 62
10
100
AcDbLine
 10
5.9431
 20
-3.6250
 30
-0.0001
 11
5.9451
 21
-3.6289
 31
-0.0001
  0
LINE
  5
30
100
AcDbEntity
  8
1
 62
10
100
AcDbLine
 10
5.9451
 20
-3.6289
 30
-0.0001
 11
5.9467
 21
-3.6329
 31
-0.0001
  0
LINE
  5
30
100
AcDbEntity
  8
1
 62
10
100
AcDbLine
 10
5.9467
 20
-3.6329
 30
-0.0001
 11
5.9480
 21
-3.6370
 31
-0.0001
  0
LINE
  5
30
100
AcDbEntity
  8
1
 62
10
100
AcDbLine
 10
5.9480
 20
-3.6370
 30
-0.0001
 11
5.9490
 21
-3.6412
 31
-0.0001
  0
LINE
  5
30
100
AcDbEntity
  8
1
 62
10
100
AcDbLine
 10
5.9490
 20
-3.6412
 30
-0.0001
 11
5.9495
 21
-3.6455
 31
-0.0001
  0
LINE
  5
30
100
AcDbEntity
  8
1
 62
10
100
AcDbLine
 10
5.9495
 20
-3.6455
 30
-0.0001
 11
5.9497
 21
-3.6498
 31
-0.0001
  0
LINE
  5
30
100
AcDbEntity
  8
1
 62
10
100
AcDbLine
 10
5.9497
 20
-3.6498
 30
-0.0001
 11
5.9497
 21
-3.6498
 31
-0.0001
  0
LINE
  5
30
100
AcDbEntity
  8
1
 62
10
100
AcDbLine
 10
5.9497
 20
-3.6498
 30
-0.0001
 11
5.9497
 21
-3.6516
 31
-0.0001
  0
LINE
  5
30
100
AcDbEntity
  8
1
 62
10
100
AcDbLine
 10
5.9497
 20
-3.6516
 30
-0.0001
 11
5.9493
 21
-3.6559
 31
-0.0001
  0
LINE
  5
30
100
AcDbEntity
  8
1
 62
10
100
AcDbLine
 10
5.9493
 20
-3.6559
 30
-0.0001
 11
5.9486
 21
-3.6602
 31
-0.0001
  0
LINE
  5
30
100
AcDbEntity
  8
1
 62
10
100
AcDbLine
 10
5.9486
 20
-3.6602
 30
-0.0001
 11
5.9475
 21
-3.6644
 31
-0.0001
  0
LINE
  5
30
100
AcDbEntity
  8
1
 62
10
100
AcDbLine
 10
5.9475
 20
-3.6644
 30
-0.0001
 11
5.9460
 21
-3.6684
 31
-0.0001
  0
LINE
  5
30
100
AcDbEntity
  8
1
 62
10
100
AcDbLine
 10
5.9460
 20
-3.6684
 30
-0.0001
 11
5.9443
 21
-3.6723
 31
-0.0001
  0
LINE
  5
30
100
AcDbEntity
  8
1
 62
10
100
AcDbLine
 10
5.9443
 20
-3.6723
 30
-0.0001
 11
5.9421
 21
-3.6761
 31
-0.0001
  0
LINE
  5
30
100
AcDbEntity
  8
1
 62
10
100
AcDbLine
 10
5.9421
 20
-3.6761
 30
-0.0001
 11
5.9397
 21
-3.6797
 31
-0.0001
  0
LINE
  5
30
100
AcDbEntity
  8
1
 62
10
100
AcDbLine
 10
5.9397
 20
-3.6797
 30
-0.0001
 11
5.9369
 21
-3.6830
 31
-0.0001
  0
LINE
  5
30
100
AcDbEntity
  8
1
 62
10
100
AcDbLine
 10
5.9369
 20
-3.6830
 30
-0.0001
 11
5.9339
 21
-3.6861
 31
-0.0001
  0
LINE
  5
30
100
AcDbEntity
  8
1
 62
10
100
AcDbLine
 10
5.9339
 20
-3.6861
 30
-0.0001
 11
5.9306
 21
-3.6889
 31
-0.0001
  0
LINE
  5
30
100
AcDbEntity
  8
1
 62
10
100
AcDbLine
 10
5.9306
 20
-3.6889
 30
-0.0001
 11
5.9271
 21
-3.6914
 31
-0.0001
  0
LINE
  5
30
100
AcDbEntity
  8
1
 62
10
100
AcDbLine
 10
5.9271
 20
-3.6914
 30
-0.0001
 11
5.9270
 21
-3.6912
 31
-0.0001
  0
LINE
  5
30
100
AcDbEntity
  8
1
 62
10
100
AcDbLine
 10
5.9270
 20
-3.6912
 30
-0.0001
 11
6.0107
 21
-3.7755
 31
-0.0001
  0
LINE
  5
30
100
AcDbEntity
  8
1
 62
10
100
AcDbLine
 10
6.0107
 20
-3.7755
 30
-0.0001
 11
6.2500
 21
-3.7755
 31
-0.0001
  0
LINE
  5
30
100
AcDbEntity
  8
1
 62
10
100
AcDbLine
 10
6.2500
 20
-3.7755
 30
-0.0001
 11
6.2503
 21
-3.7755
 31
-0.0001
  0
LINE
  5
30
100
AcDbEntity
  8
1
 62
10
100
AcDbLine
 10
6.2503
 20
-3.7755
 30
-0.0001
 11
6.2525
 21
-3.7756
 31
-0.0001
  0
LINE
  5
30
100
AcDbEntity
  8
1
 62
10
100
AcDbLine
 10
6.2525
 20
-3.7756
 30
-0.0001
 11
6.2546
 21
-3.7759
 31
-0.0001
  0
LINE
  5
30
100
AcDbEntity
  8
1
 62
10
100
AcDbLine
 10
6.2546
 20
-3.7759
 30
-0.0001
 11
6.2567
 21
-3.7764
 31
-0.0001
  0
LINE
  5
30
100
AcDbEntity
  8
1
 62
10
100
AcDbLine
 10
6.2567
 20
-3.7764
 30
-0.0001
 11
6.2588
 21
-3.7771
 31
-0.0001
  0
LINE
  5
30
100
AcDbEntity
  8
1
 62
10
100
AcDbLine
 10
6.2588
 20
-3.7771
 30
-0.0001
 11
6.2608
 21
-3.7779
 31
-0.0001
  0
LINE
  5
30
100
AcDbEntity
  8
1
 62
10
100
AcDbLine
 10
6.2608
 20
-3.7779
 30
-0.0001
 11
6.2627
 21
-3.7790
 31
-0.0001
  0
LINE
  5
30
100
AcDbEntity
  8
1
 62
10
100
AcDbLine
 10
6.2627
 20
-3.7790
 30
-0.0001
 11
6.2645
 21
-3.7802
 31
-0.0001
  0
LINE
  5
30
100
AcDbEntity
  8
1
 62
10
100
AcDbLine
 10
6.2645
 20
-3.7802
 30
-0.0001
 11
6.2662
 21
-3.7815
 31
-0.0001
  0
LINE
  5
30
100
AcDbEntity
  8
1
 62
10
100
AcDbLine
 10
6.2662
 20
-3.7815
 30
-0.0001
 11
6.2677
 21
-3.7830
 31
-0.0001
  0
LINE
  5
30
100
AcDbEntity
  8
1
 62
10
100
AcDbLine
 10
6.2677
 20
-3.7830
 30
-0.0001
 11
6.2676
 21
-3.7831
 31
-0.0001
  0
LINE
  5
30
100
AcDbEntity
  8
1
 62
10
100
AcDbLine
 10
6.2676
 20
-3.7831
 30
-0.0001
 11
6.2676
 21
-3.7831
 31
0.0039
  0
LINE
  5
30
100
AcDbEntity
  8
1
 62
10
100
AcDbLine
 10
5.9825
 20
-3.8179
 30
0.0039
 11
5.9825
 21
-3.8179
 31
-0.0001
  0
LINE
  5
30
100
AcDbEntity
  8
1
 62
10
100
AcDbLine
 10
5.9825
 20
-3.8179
 30
-0.0001
 11
5.8825
 21
-3.7174
 31
-0.0001
  0
LINE
  5
30
100
AcDbEntity
  8
1
 62
10
100
AcDbLine
 10
5.8825
 20
-3.7174
 30
-0.0001
 11
5.8825
 21
-3.7174
 31
0.0039
  0
LINE
  5
30
100
AcDbEntity
  8
1
 62
10
100
AcDbLine
 10
5.5913
 20
-4.2262
 30
0.0039
 11
5.5913
 21
-4.2262
 31
-0.0001
  0
LINE
  5
30
100
AcDbEntity
  8
1
 62
10
100
AcDbLine
 10
5.5913
 20
-4.2262
 30
-0.0001
 11
5.5929
 21
-4.2277
 31
-0.0001
  0
LINE
  5
30
100
AcDbEntity
  8
1
 62
10
100
AcDbLine
 10
5.5929
 20
-4.2277
 30
-0.0001
 11
5.5945
 21
-4.2290
 31
-0.0001
  0
LINE
  5
30
100
AcDbEntity
  8
1
 62
10
100
AcDbLine
 10
5.5945
 20
-4.2290
 30
-0.0001
 11
5.5963
 21
-4.2302
 31
-0.0001
  0
LINE
  5
30
100
AcDbEntity
  8
1
 62
10
100
AcDbLine
 10
5.5963
 20
-4.2302
 30
-0.0001
 11
5.5982
 21
-4.2312
 31
-0.0001
  0
LINE
  5
30
100
AcDbEntity
  8
1
 62
10
100
AcDbLine
 10
5.5982
 20
-4.2312
 30
-0.0001
 11
5.6002
 21
-4.2321
 31
-0.0001
  0
LINE
  5
30
100
AcDbEntity
  8
1
 62
10
100
AcDbLine
 10
5.6002
 20
-4.2321
 30
-0.0001
 11
5.6022
 21
-4.2328
 31
-0.0001
  0
LINE
  5
30
100
AcDbEntity
  8
1
 62
10
100
AcDbLine
 10
5.6022
 20
-4.2328
 30
-0.0001
 11
5.6043
 21
-4.2332
 31
-0.0001
  0
LINE
  5
30
100
AcDbEntity
  8
1
 62
10
100
AcDbLine
 10
5.6043
 20
-4.2332
 30
-0.0001
 11
5.6065
 21
-4.2336
 31
-0.0001
  0
LINE
  5
30
100
AcDbEntity
  8
1
 62
10
100
AcDbLine
 10
5.6065
 20
-4.2336
 30
-0.0001
 11
5.6086
 21
-4.2337
 31
-0.0001
  0
LINE
  5
30
100
AcDbEntity
  8
1
 62
10
100
AcDbLine
 10
5.6086
 20
-4.2337
 30
-0.0001
 11
5.6090
 21
-4.2337
 31
-0.0001
  0
LINE
  5
30
100
AcDbEntity
  8
1
 62
10
100
AcDbLine
 10
5.6090
 20
-4.2337
 30
-0.0001
 11
5.6090
 21
-4.2338
 31
-0.0001
  0
LINE
  5
30
100
AcDbEntity
  8
1
 62
10
100
AcDbLine
 10
5.6090
 20
-4.2338
 30
-0.0001
 11
5.6090
 21
-4.2338
 31
0.0039
  0
LINE
  5
30
100
AcDbEntity
  8
1
 62
10
100
AcDbLine
 10
6.3964
 20
-4.1883
 30
0.0039
 11
6.3964
 21
-4.1883
 31
-0.0001
  0
LINE
  5
30
100
AcDbEntity
  8
1
 62
10
100
AcDbLine
 10
6.3964
 20
-4.1883
 30
-0.0001
 11
6.3978
 21
-4.1867
 31
-0.0001
  0
LINE
  5
30
100
AcDbEntity
  8
1
 62
10
100
AcDbLine
 10
6.3978
 20
-4.1867
 30
-0.0001
 11
6.3991
 21
-4.1850
 31
-0.0001
  0
LINE
  5
30
100
AcDbEntity
  8
1
 62
10
100
AcDbLine
 10
6.3991
 20
-4.1850
 30
-0.0001
 11
6.4002
 21
-4.1832
 31
-0.0001
  0
LINE
  5
30
100
AcDbEntity
  8
1
 62
10
100
AcDbLine
 10
6.4002
 20
-4.1832
 30
-0.0001
 11
6.4012
 21
-4.1813
 31
-0.0001
  0
LINE
  5
30
100
AcDbEntity
  8
1
 62
10
100
AcDbLine
 10
6.4012
 20
-4.1813
 30
-0.0001
 11
6.4020
 21
-4.1793
 31
-0.0001
  0
LINE
  5
30
100
AcDbEntity
  8
1
 62
10
100
AcDbLine
 10
6.4020
 20
-4.1793
 30
-0.0001
 11
6.4026
 21
-4.1772
 31
-0.0001
  0
LINE
  5
30
100
AcDbEntity
  8
1
 62
10
100
AcDbLine
 10
6.4026
 20
-4.1772
 30
-0.0001
 11
6.4030
 21
-4.1751
 31
-0.0001
  0
LINE
  5
30
100
AcDbEntity
  8
1
 62
10
100
AcDbLine
 10
6.4030
 20
-4.1751
 30
-0.0001
 11
6.4033
 21
-4.1730
 31
-0.0001
  0
LINE
  5
30
100
AcDbEntity
  8
1
 62
10
100
AcDbLine
 10
6.4033
 20
-4.1730
 30
-0.0001
 11
6.4033
 21
-4.1712
 31
-0.0001
  0
LINE
  5
30
100
AcDbEntity
  8
1
 62
10
100
AcDbLine
 10
6.4033
 20
-4.1712
 30
-0.0001
 11
6.4034
 21
-4.1712
 31
-0.0001
  0
LINE
  5
30
100
AcDbEntity
  8
1
 62
10
100
AcDbLine
 10
6.4034
 20
-4.1712
 30
-0.0001
 11
6.4034
 21
-4.1712
 31
0.0039
  0
LINE
  5
30
100
AcDbEntity
  8
1
 62
10
100
AcDbLine
 10
6.5175
 20
-4.0672
 30
0.0039
 11
6.5175
 21
-4.0672
 31
-0.0001
  0
LINE
  5
30
100
AcDbEntity
  8
1
 62
10
100
AcDbLine
 10
6.5175
 20
-4.0672
 30
-0.0001
 11
6.5189
 21
-4.0656
 31
-0.0001
  0
LINE
  5
30
100
AcDbEntity
  8
1
 62
10
100
AcDbLine
 10
6.5189
 20
-4.0656
 30
-0.0001
 11
6.5202
 21
-4.0639
 31
-0.0001
  0
LINE
  5
30
100
AcDbEntity
  8
1
 62
10
100
AcDbLine
 10
6.5202
 20
-4.0639
 30
-0.0001
 11
6.5214
 21
-4.0621
 31
-0.0001
  0
LINE
  5
30
100
AcDbEntity
  8
1
 62
10
100
AcDbLine
 10
6.5214
 20
-4.0621
 30
-0.0001
 11
6.5223
 21
-4.0602
 31
-0.0001
  0
LINE
  5
30
100
AcDbEntity
  8
1
 62
10
100
AcDbLine
 10
6.5223
 20
-4.0602
 30
-0.0001
 11
6.5231
 21
-4.0582
 31
-0.0001
  0
LINE
  5
30
100
AcDbEntity
  8
1
 62
10
100
AcDbLine
 10
6.5231
 20
-4.0582
 30
-0.0001
 11
6.5237
 21
-4.0561
 31
-0.0001
  0
LINE
  5
30
100
AcDbEntity
  8
1
 62
10
100
AcDbLine
 10
6.5237
 20
-4.0561
 30
-0.0001
 11
6.5242
 21
-4.0540
 31
-0.0001
  0
LINE
  5
30
100
AcDbEntity
  8
1
 62
10
100
AcDbLine
 10
6.5242
 20
-4.0540
 30
-0.0001
 11
6.5244
 21
-4.0519
 31
-0.0001
  0
LINE
  5
30
100
AcDbEntity
  8
1
 62
10
100
AcDbLine
 10
6.5244
 20
-4.0519
 30
-0.0001
 11
6.5245
 21
-4.0501
 31
-0.0001
  0
LINE
  5
30
100
AcDbEntity
  8
1
 62
10
100
AcDbLine
 10
6.5245
 20
-4.0501
 30
-0.0001
 11
6.5246
 21
-4.0501
 31
-0.0001
  0
LINE
  5
30
100
AcDbEntity
  8
1
 62
10
100
AcDbLine
 10
6.5246
 20
-4.0501
 30
-0.0001
 11
6.5246
 21
-4.0501
 31
0.0039
  0
LINE
  5
30
100
AcDbEntity
  8
1
 62
10
100
AcDbLine
 10
6.3176
 20
-4.1672
 30
0.0039
 11
6.3176
 21
-4.1672
 31
-0.0001
  0
LINE
  5
30
100
AcDbEntity
  8
1
 62
10
100
AcDbLine
 10
6.3176
 20
-4.1672
 30
-0.0001
 11
6.3191
 21
-4.1656
 31
-0.0001
  0
LINE
  5
30
100
AcDbEntity
  8
1
 62
10
100
AcDbLine
 10
6.3191
 20
-4.1656
 30
-0.0001
 11
6.3203
 21
-4.1638
 31
-0.0001
  0
LINE
  5
30
100
AcDbEntity
  8
1
 62
10
100
AcDbLine
 10
6.3203
 20
-4.1638
 30
-0.0001
 11
6.3215
 21
-4.1620
 31
-0.0001
  0
LINE
  5
30
100
AcDbEntity
  8
1
 62
10
100
AcDbLine
 10
6.3215
 20
-4.1620
 30
-0.0001
 11
6.3224
 21
-4.1601
 31
-0.0001
  0
LINE
  5
30
100
AcDbEntity
  8
1
 62
10
100
AcDbLine
 10
6.3224
 20
-4.1601
 30
-0.0001
 11
6.3232
 21
-4.1581
 31
-0.0001
  0
LINE
  5
30
100
AcDbEntity
  8
1
 62
10
100
AcDbLine
 10
6.3232
 20
-4.1581
 30
-0.0001
 11
6.3239
 21
-4.1560
 31
-0.0001
  0
LINE
  5
30
100
AcDbEntity
  8
1
 62
10
100
AcDbLine
 10
6.3239
 20
-4.1560
 30
-0.0001
 11
6.3243
 21
-4.1539
 31
-0.0001
  0
LINE
  5
30
100
AcDbEntity
  8
1
 62
10
100
AcDbLine
 10
6.3243
 20
-4.1539
 30
-0.0001
 11
6.3245
 21
-4.1518
 31
-0.0001
  0
LINE
  5
30
100
AcDbEntity
  8
1
 62
10
100
AcDbLine
 10
6.3245
 20
-4.1518
 30
-0.0001
 11
6.3246
 21
-4.1500
 31
-0.0001
  0
LINE
  5
30
100
AcDbEntity
  8
1
 62
10
100
AcDbLine
 10
6.3246
 20
-4.1500
 30
-0.0001
 11
6.3247
 21
-4.1500
 31
-0.0001
  0
LINE
  5
30
100
AcDbEntity
  8
1
 62
10
100
AcDbLine
 10
6.3247
 20
-4.1500
 30
-0.0001
 11
6.3247
 21
-4.1500
 31
0.0039
  0
LINE
  5
30
100
AcDbEntity
  8
1
 62
10
100
AcDbLine
 10
5.8755
 20
-3.6998
 30
0.0039
 11
5.8755
 21
-3.6998
 31
-0.0001
  0
LINE
  5
30
100
AcDbEntity
  8
1
 62
10
100
AcDbLine
 10
5.8755
 20
-3.6998
 30
-0.0001
 11
5.8756
 21
-3.7019
 31
-0.0001
  0
LINE
  5
30
100
AcDbEntity
  8
1
 62
10
100
AcDbLine
 10
5.8756
 20
-3.7019
 30
-0.0001
 11
5.8758
 21
-3.7041
 31
-0.0001
  0
LINE
  5
30
100
AcDbEntity
  8
1
 62
10
100
AcDbLine
 10
5.8758
 20
-3.7041
 30
-0.0001
 11
5.8763
 21
-3.7062
 31
-0.0001
  0
LINE
  5
30
100
AcDbEntity
  8
1
 62
10
100
AcDbLine
 10
5.8763
 20
-3.7062
 30
-0.0001
 11
5.8770
 21
-3.7082
 31
-0.0001
  0
LINE
  5
30
100
AcDbEntity
  8
1
 62
10
100
AcDbLine
 10
5.8770
 20
-3.7082
 30
-0.0001
 11
5.8778
 21
-3.7102
 31
-0.0001
  0
LINE
  5
30
100
AcDbEntity
  8
1
 62
10
100
AcDbLine
 10
5.8778
 20
-3.7102
 30
-0.0001
 11
5.8788
 21
-3.7121
 31
-0.0001
  0
LINE
  5
30
100
AcDbEntity
  8
1
 62
10
100
AcDbLine
 10
5.8788
 20
-3.7121
 30
-0.0001
 11
5.8799
 21
-3.7139
 31
-0.0001
  0
LINE
  5
30
100
AcDbEntity
  8
1
 62
10
100
AcDbLine
 10
5.8799
 20
-3.7139
 30
-0.0001
 11
5.8813
 21
-3.7157
 31
-0.0001
  0
LINE
  5
30
100
AcDbEntity
  8
1
 62
10
100
AcDbLine
 10
5.8813
 20
-3.7157
 30
-0.0001
 11
5.8825
 21
-3.7170
 31
-0.0001
  0
LINE
  5
30
100
AcDbEntity
  8
1
 62
10
100
AcDbLine
 10
5.8825
 20
-3.7170
 30
-0.0001
 11
5.8825
 21
-3.7169
 31
-0.0001
  0
LINE
  5
30
100
AcDbEntity
  8
1
 62
10
100
AcDbLine
 10
5.5000
 20
-4.1213
 30
0.0098
 11
5.5000
 21
-4.1213
 31
-0.0002
  0
LINE
  5
30
100
AcDbEntity
  8
1
 62
10
100
AcDbLine
 10
5.5000
 20
-4.2787
 30
0.0098
 11
5.5000
 21
-4.2787
 31
-0.0002
  0
LINE
  5
30
100
AcDbEntity
  8
1
 62
10
100
AcDbLine
 10
5.6634
 20
-3.9590
 30
0.0098
 11
5.6634
 21
-3.9590
 31
-0.0002
  0
LINE
  5
30
100
AcDbEntity
  8
1
 62
10
100
AcDbLine
 10
5.6634
 20
-4.0090
 30
0.0098
 11
5.6634
 21
-4.0090
 31
-0.0002
  0
LINE
  5
30
100
AcDbEntity
  8
1
 62
10
100
AcDbLine
 10
5.6634
 20
-4.0590
 30
0.0098
 11
5.6634
 21
-4.0590
 31
-0.0002
  0
LINE
  5
30
100
AcDbEntity
  8
1
 62
10
100
AcDbLine
 10
5.6634
 20
-4.1090
 30
0.0098
 11
5.6634
 21
-4.1090
 31
-0.0002
  0
LINE
  5
30
100
AcDbEntity
  8
1
 62
10
100
AcDbLine
 10
5.6634
 20
-4.1590
 30
0.0098
 11
5.6634
 21
-4.1590
 31
-0.0002
  0
LINE
  5
30
100
AcDbEntity
  8
1
 62
10
100
AcDbLine
 10
5.6634
 20
-4.2090
 30
0.0098
 11
5.6634
 21
-4.2090
 31
-0.0002
  0
LINE
  5
30
100
AcDbEntity
  8
1
 62
10
100
AcDbLine
 10
5.6634
 20
-4.2590
 30
0.0098
 11
5.6634
 21
-4.2590
 31
-0.0002
  0
LINE
  5
30
100
AcDbEntity
  8
1
 62
10
100
AcDbLine
 10
5.6634
 20
-4.3090
 30
0.0098
 11
5.6634
 21
-4.3090
 31
-0.0002
  0
LINE
  5
30
100
AcDbEntity
  8
1
 62
10
100
AcDbLine
 10
6.0296
 20
-4.3090
 30
0.0098
 11
6.0296
 21
-4.3090
 31
-0.0002
  0
LINE
  5
30
100
AcDbEntity
  8
1
 62
10
100
AcDbLine
 10
6.0296
 20
-4.2590
 30
0.0098
 11
6.0296
 21
-4.2590
 31
-0.0002
  0
LINE
  5
30
100
AcDbEntity
  8
1
 62
10
100
AcDbLine
 10
6.0296
 20
-4.2090
 30
0.0098
 11
6.0296
 21
-4.2090
 31
-0.0002
  0
LINE
  5
30
100
AcDbEntity
  8
1
 62
10
100
AcDbLine
 10
6.0296
 20
-4.1590
 30
0.0098
 11
6.0296
 21
-4.1590
 31
-0.0002
  0
LINE
  5
30
100
AcDbEntity
  8
1
 62
10
100
AcDbLine
 10
6.0296
 20
-4.1090
 30
0.0098
 11
6.0296
 21
-4.1090
 31
-0.0002
  0
LINE
  5
30
100
AcDbEntity
  8
1
 62
10
100
AcDbLine
 10
6.0296
 20
-4.0590
 30
0.0098
 11
6.0296
 21
-4.0590
 31
-0.0002
  0
LINE
  5
30
100
AcDbEntity
  8
1
 62
10
100
AcDbLine
 10
6.0296
 20
-4.0090
 30
0.0098
 11
6.0296
 21
-4.0090
 31
-0.0002
  0
LINE
  5
30
100
AcDbEntity
  8
1
 62
10
100
AcDbLine
 10
6.0296
 20
-3.9590
 30
0.0098
 11
6.0296
 21
-3.9590
 31
-0.0002
  0
LINE
  5
30
100
AcDbEntity
  8
1
 62
10
100
AcDbLine
 10
6.0000
 20
-3.6500
 30
0.0098
 11
6.0000
 21
-3.6500
 31
-0.0002
  0
LINE
  5
30
100
AcDbEntity
  8
1
 62
10
100
AcDbLine
 10
5.7000
 20
-3.6500
 30
0.0098
 11
5.7000
 21
-3.6500
 31
-0.0002
  0
LINE
  5
30
100
AcDbEntity
  8
1
 62
10
100
AcDbLine
 10
5.8000
 20
-3.6500
 30
0.0098
 11
5.8000
 21
-3.6500
 31
-0.0002
  0
LINE
  5
30
100
AcDbEntity
  8
1
 62
10
100
AcDbLine
 10
5.9000
 20
-3.6500
 30
0.0098
 11
5.9000
 21
-3.6500
 31
-0.0002
  0
LINE
  5
30
100
AcDbEntity
  8
1
 62
10
100
AcDbLine
 10
6.2213
 20
-3.9500
 30
0.0098
 11
6.2213
 21
-3.9500
 31
-0.0002
  0
LINE
  5
30
100
AcDbEntity
  8
1
 62
10
100
AcDbLine
 10
6.3787
 20
-3.9500
 30
0.0098
 11
6.3787
 21
-3.9500
 31
-0.0002
  0
LINE
  5
30
100
AcDbEntity
  8
1
 62
10
100
AcDbLine
 10
6.2213
 20
-4.1000
 30
0.0098
 11
6.2213
 21
-4.1000
 31
-0.0002
  0
LINE
  5
30
100
AcDbEntity
  8
1
 62
10
100
AcDbLine
 10
6.3787
 20
-4.1000
 30
0.0098
 11
6.3787
 21
-4.1000
 31
-0.0002
  0
ENDSEC
0
EOF
